<mxfile host="Electron" agent="Mozilla/5.0 (Macintosh; Intel Mac OS X 10_15_7) AppleWebKit/537.36 (KHTML, like Gecko) draw.io/24.7.5 Chrome/126.0.6478.183 Electron/31.3.0 Safari/537.36" version="24.7.5">
  <diagram name="Page-1" id="CrsVlyNlqynqQEds2Bug">
    <mxGraphModel dx="1393" dy="1024" grid="1" gridSize="10" guides="1" tooltips="1" connect="1" arrows="1" fold="1" page="1" pageScale="1" pageWidth="850" pageHeight="1100" math="0" shadow="0">
      <root>
        <mxCell id="0" />
        <mxCell id="1" parent="0" />
        <mxCell id="S2lPCbAoQJ0k8r7t1wLW-4" value="&lt;div style=&quot;&quot;&gt;&lt;span style=&quot;color: rgb(255, 38, 38);&quot;&gt;std_yaw&lt;/span&gt;&lt;br&gt;&lt;/div&gt;" style="shape=cube;whiteSpace=wrap;html=1;boundedLbl=1;backgroundOutline=1;darkOpacity=0.05;darkOpacity2=0.1;size=10;align=center;" vertex="1" parent="1">
          <mxGeometry x="320" y="370" width="140" height="30" as="geometry" />
        </mxCell>
        <mxCell id="S2lPCbAoQJ0k8r7t1wLW-5" value="&lt;div style=&quot;&quot;&gt;&lt;span style=&quot;color: rgb(255, 38, 38);&quot;&gt;yaw_range&lt;/span&gt;&lt;br&gt;&lt;/div&gt;" style="shape=cube;whiteSpace=wrap;html=1;boundedLbl=1;backgroundOutline=1;darkOpacity=0.05;darkOpacity2=0.1;size=10;align=center;" vertex="1" parent="1">
          <mxGeometry x="320" y="348" width="140" height="30" as="geometry" />
        </mxCell>
        <mxCell id="S2lPCbAoQJ0k8r7t1wLW-6" value="&lt;div style=&quot;&quot;&gt;&lt;div&gt;&lt;font color=&quot;#ff2626&quot;&gt;average_yaw&lt;/font&gt;&lt;/div&gt;&lt;/div&gt;" style="shape=cube;whiteSpace=wrap;html=1;boundedLbl=1;backgroundOutline=1;darkOpacity=0.05;darkOpacity2=0.1;size=10;align=center;" vertex="1" parent="1">
          <mxGeometry x="320" y="326" width="140" height="30" as="geometry" />
        </mxCell>
        <mxCell id="S2lPCbAoQJ0k8r7t1wLW-3" value="&lt;div style=&quot;&quot;&gt;&lt;span style=&quot;color: rgb(255, 38, 38);&quot;&gt;amplitude_peaks&lt;/span&gt;&lt;br&gt;&lt;/div&gt;" style="shape=cube;whiteSpace=wrap;html=1;boundedLbl=1;backgroundOutline=1;darkOpacity=0.05;darkOpacity2=0.1;size=10;align=center;" vertex="1" parent="1">
          <mxGeometry x="320" y="304" width="140" height="30" as="geometry" />
        </mxCell>
        <mxCell id="S2lPCbAoQJ0k8r7t1wLW-2" value="&lt;div style=&quot;&quot;&gt;&lt;span style=&quot;color: rgb(255, 38, 38);&quot;&gt;num_troughs&lt;/span&gt;&lt;br&gt;&lt;/div&gt;" style="shape=cube;whiteSpace=wrap;html=1;boundedLbl=1;backgroundOutline=1;darkOpacity=0.05;darkOpacity2=0.1;size=10;align=center;" vertex="1" parent="1">
          <mxGeometry x="320" y="282" width="140" height="30" as="geometry" />
        </mxCell>
        <mxCell id="rhMrbndXJ0T741SxI-ga-46" value="&lt;p style=&quot;line-height: 0%;&quot;&gt;&lt;font style=&quot;font-size: 5px;&quot;&gt;frame.jpg&lt;/font&gt;&lt;/p&gt;" style="shape=cube;whiteSpace=wrap;html=1;boundedLbl=1;backgroundOutline=1;darkOpacity=0.05;darkOpacity2=0.1;size=9;fillColor=#f5f5f5;strokeColor=#666666;fontColor=#333333;" parent="1" vertex="1">
          <mxGeometry x="370" y="169" width="40" height="19" as="geometry" />
        </mxCell>
        <mxCell id="rhMrbndXJ0T741SxI-ga-47" value="&lt;p style=&quot;line-height: 0%;&quot;&gt;&lt;font style=&quot;font-size: 5px;&quot;&gt;frame.jpg&lt;/font&gt;&lt;/p&gt;" style="shape=cube;whiteSpace=wrap;html=1;boundedLbl=1;backgroundOutline=1;darkOpacity=0.05;darkOpacity2=0.1;size=9;fillColor=#f5f5f5;strokeColor=#666666;fontColor=#333333;" parent="1" vertex="1">
          <mxGeometry x="335" y="169" width="40" height="19" as="geometry" />
        </mxCell>
        <mxCell id="rhMrbndXJ0T741SxI-ga-48" value="&lt;p style=&quot;line-height: 0%;&quot;&gt;&lt;font style=&quot;font-size: 5px;&quot;&gt;frame.jpg&lt;/font&gt;&lt;/p&gt;" style="shape=cube;whiteSpace=wrap;html=1;boundedLbl=1;backgroundOutline=1;darkOpacity=0.05;darkOpacity2=0.1;size=9;align=center;fillColor=#f5f5f5;strokeColor=#666666;fontColor=#333333;" parent="1" vertex="1">
          <mxGeometry x="300" y="169" width="40" height="19" as="geometry" />
        </mxCell>
        <mxCell id="rhMrbndXJ0T741SxI-ga-37" value="&lt;p style=&quot;line-height: 0%;&quot;&gt;&lt;font style=&quot;font-size: 5px;&quot;&gt;frame.jpg&lt;/font&gt;&lt;/p&gt;" style="shape=cube;whiteSpace=wrap;html=1;boundedLbl=1;backgroundOutline=1;darkOpacity=0.05;darkOpacity2=0.1;size=9;fillColor=#f5f5f5;strokeColor=#666666;fontColor=#333333;" parent="1" vertex="1">
          <mxGeometry x="370" y="154" width="40" height="19" as="geometry" />
        </mxCell>
        <mxCell id="rhMrbndXJ0T741SxI-ga-38" value="&lt;p style=&quot;line-height: 0%;&quot;&gt;&lt;font style=&quot;font-size: 5px;&quot;&gt;frame.jpg&lt;/font&gt;&lt;/p&gt;" style="shape=cube;whiteSpace=wrap;html=1;boundedLbl=1;backgroundOutline=1;darkOpacity=0.05;darkOpacity2=0.1;size=9;fillColor=#f5f5f5;strokeColor=#666666;fontColor=#333333;" parent="1" vertex="1">
          <mxGeometry x="335" y="154" width="40" height="19" as="geometry" />
        </mxCell>
        <mxCell id="rhMrbndXJ0T741SxI-ga-39" value="&lt;p style=&quot;line-height: 0%;&quot;&gt;&lt;font style=&quot;font-size: 5px;&quot;&gt;frame.jpg&lt;/font&gt;&lt;/p&gt;" style="shape=cube;whiteSpace=wrap;html=1;boundedLbl=1;backgroundOutline=1;darkOpacity=0.05;darkOpacity2=0.1;size=9;align=center;fillColor=#f5f5f5;strokeColor=#666666;fontColor=#333333;" parent="1" vertex="1">
          <mxGeometry x="300" y="154" width="40" height="19" as="geometry" />
        </mxCell>
        <mxCell id="rhMrbndXJ0T741SxI-ga-40" value="&lt;p style=&quot;line-height: 0%;&quot;&gt;&lt;font style=&quot;font-size: 5px;&quot;&gt;frame.jpg&lt;/font&gt;&lt;/p&gt;" style="shape=cube;whiteSpace=wrap;html=1;boundedLbl=1;backgroundOutline=1;darkOpacity=0.05;darkOpacity2=0.1;size=9;fillColor=#f5f5f5;strokeColor=#666666;fontColor=#333333;" parent="1" vertex="1">
          <mxGeometry x="370" y="139" width="40" height="19" as="geometry" />
        </mxCell>
        <mxCell id="rhMrbndXJ0T741SxI-ga-41" value="&lt;p style=&quot;line-height: 0%;&quot;&gt;&lt;font style=&quot;font-size: 5px;&quot;&gt;frame.jpg&lt;/font&gt;&lt;/p&gt;" style="shape=cube;whiteSpace=wrap;html=1;boundedLbl=1;backgroundOutline=1;darkOpacity=0.05;darkOpacity2=0.1;size=9;fillColor=#f5f5f5;strokeColor=#666666;fontColor=#333333;" parent="1" vertex="1">
          <mxGeometry x="335" y="139" width="40" height="19" as="geometry" />
        </mxCell>
        <mxCell id="rhMrbndXJ0T741SxI-ga-42" value="&lt;p style=&quot;line-height: 0%;&quot;&gt;&lt;font style=&quot;font-size: 5px;&quot;&gt;frame.jpg&lt;/font&gt;&lt;/p&gt;" style="shape=cube;whiteSpace=wrap;html=1;boundedLbl=1;backgroundOutline=1;darkOpacity=0.05;darkOpacity2=0.1;size=9;align=center;fillColor=#f5f5f5;strokeColor=#666666;fontColor=#333333;" parent="1" vertex="1">
          <mxGeometry x="300" y="139" width="40" height="19" as="geometry" />
        </mxCell>
        <mxCell id="rhMrbndXJ0T741SxI-ga-43" value="&lt;p style=&quot;line-height: 0%;&quot;&gt;&lt;font style=&quot;font-size: 5px;&quot;&gt;frame.jpg&lt;/font&gt;&lt;/p&gt;" style="shape=cube;whiteSpace=wrap;html=1;boundedLbl=1;backgroundOutline=1;darkOpacity=0.05;darkOpacity2=0.1;size=9;fillColor=#f5f5f5;strokeColor=#666666;fontColor=#333333;" parent="1" vertex="1">
          <mxGeometry x="370" y="124" width="40" height="19" as="geometry" />
        </mxCell>
        <mxCell id="rhMrbndXJ0T741SxI-ga-44" value="&lt;p style=&quot;line-height: 0%;&quot;&gt;&lt;font style=&quot;font-size: 5px;&quot;&gt;frame.jpg&lt;/font&gt;&lt;/p&gt;" style="shape=cube;whiteSpace=wrap;html=1;boundedLbl=1;backgroundOutline=1;darkOpacity=0.05;darkOpacity2=0.1;size=9;fillColor=#f5f5f5;strokeColor=#666666;fontColor=#333333;" parent="1" vertex="1">
          <mxGeometry x="335" y="124" width="40" height="19" as="geometry" />
        </mxCell>
        <mxCell id="rhMrbndXJ0T741SxI-ga-45" value="&lt;p style=&quot;line-height: 0%;&quot;&gt;&lt;font style=&quot;font-size: 5px;&quot;&gt;frame.jpg&lt;/font&gt;&lt;/p&gt;" style="shape=cube;whiteSpace=wrap;html=1;boundedLbl=1;backgroundOutline=1;darkOpacity=0.05;darkOpacity2=0.1;size=9;align=center;fillColor=#f5f5f5;strokeColor=#666666;fontColor=#333333;" parent="1" vertex="1">
          <mxGeometry x="300" y="124" width="40" height="19" as="geometry" />
        </mxCell>
        <mxCell id="rhMrbndXJ0T741SxI-ga-34" value="&lt;p style=&quot;line-height: 0%;&quot;&gt;&lt;font style=&quot;font-size: 5px;&quot;&gt;frame.jpg&lt;/font&gt;&lt;/p&gt;" style="shape=cube;whiteSpace=wrap;html=1;boundedLbl=1;backgroundOutline=1;darkOpacity=0.05;darkOpacity2=0.1;size=9;fillColor=#f5f5f5;strokeColor=#666666;fontColor=#333333;" parent="1" vertex="1">
          <mxGeometry x="370" y="110" width="40" height="19" as="geometry" />
        </mxCell>
        <mxCell id="rhMrbndXJ0T741SxI-ga-35" value="&lt;p style=&quot;line-height: 0%;&quot;&gt;&lt;font style=&quot;font-size: 5px;&quot;&gt;frame.jpg&lt;/font&gt;&lt;/p&gt;" style="shape=cube;whiteSpace=wrap;html=1;boundedLbl=1;backgroundOutline=1;darkOpacity=0.05;darkOpacity2=0.1;size=9;fillColor=#f5f5f5;strokeColor=#666666;fontColor=#333333;" parent="1" vertex="1">
          <mxGeometry x="335" y="110" width="40" height="19" as="geometry" />
        </mxCell>
        <mxCell id="rhMrbndXJ0T741SxI-ga-36" value="&lt;p style=&quot;line-height: 0%;&quot;&gt;&lt;font style=&quot;font-size: 5px;&quot;&gt;frame.jpg&lt;/font&gt;&lt;/p&gt;" style="shape=cube;whiteSpace=wrap;html=1;boundedLbl=1;backgroundOutline=1;darkOpacity=0.05;darkOpacity2=0.1;size=9;align=center;fillColor=#f5f5f5;strokeColor=#666666;fontColor=#333333;" parent="1" vertex="1">
          <mxGeometry x="300" y="110" width="40" height="19" as="geometry" />
        </mxCell>
        <mxCell id="rhMrbndXJ0T741SxI-ga-31" value="&lt;p style=&quot;line-height: 0%;&quot;&gt;&lt;font style=&quot;font-size: 5px;&quot;&gt;frame.jpg&lt;/font&gt;&lt;/p&gt;" style="shape=cube;whiteSpace=wrap;html=1;boundedLbl=1;backgroundOutline=1;darkOpacity=0.05;darkOpacity2=0.1;size=9;fillColor=#f5f5f5;strokeColor=#666666;fontColor=#333333;" parent="1" vertex="1">
          <mxGeometry x="370" y="95" width="40" height="19" as="geometry" />
        </mxCell>
        <mxCell id="rhMrbndXJ0T741SxI-ga-32" value="&lt;p style=&quot;line-height: 0%;&quot;&gt;&lt;font style=&quot;font-size: 5px;&quot;&gt;frame.jpg&lt;/font&gt;&lt;/p&gt;" style="shape=cube;whiteSpace=wrap;html=1;boundedLbl=1;backgroundOutline=1;darkOpacity=0.05;darkOpacity2=0.1;size=9;fillColor=#f5f5f5;strokeColor=#666666;fontColor=#333333;" parent="1" vertex="1">
          <mxGeometry x="335" y="95" width="40" height="19" as="geometry" />
        </mxCell>
        <mxCell id="rhMrbndXJ0T741SxI-ga-33" value="&lt;p style=&quot;line-height: 0%;&quot;&gt;&lt;font style=&quot;font-size: 5px;&quot;&gt;frame.jpg&lt;/font&gt;&lt;/p&gt;" style="shape=cube;whiteSpace=wrap;html=1;boundedLbl=1;backgroundOutline=1;darkOpacity=0.05;darkOpacity2=0.1;size=9;align=center;fillColor=#f5f5f5;strokeColor=#666666;fontColor=#333333;" parent="1" vertex="1">
          <mxGeometry x="300" y="95" width="40" height="19" as="geometry" />
        </mxCell>
        <mxCell id="rhMrbndXJ0T741SxI-ga-15" value="" style="shape=cube;whiteSpace=wrap;html=1;boundedLbl=1;backgroundOutline=1;darkOpacity=0.05;darkOpacity2=0.1;size=10;fillColor=#d5e8d4;strokeColor=#82b366;" parent="1" vertex="1">
          <mxGeometry x="90" y="100" width="70" height="70" as="geometry" />
        </mxCell>
        <mxCell id="rhMrbndXJ0T741SxI-ga-18" value="&lt;p style=&quot;line-height: 70%;&quot;&gt;&lt;font style=&quot;font-size: 8px;&quot;&gt;Split video into frames&amp;nbsp;&lt;/font&gt;&lt;/p&gt;" style="shape=cube;whiteSpace=wrap;html=1;boundedLbl=1;backgroundOutline=1;darkOpacity=0.05;darkOpacity2=0.1;size=10;fillColor=#dae8fc;strokeColor=#6c8ebf;" parent="1" vertex="1">
          <mxGeometry x="190" y="98.5" width="70" height="70" as="geometry" />
        </mxCell>
        <mxCell id="rhMrbndXJ0T741SxI-ga-24" value="&lt;p style=&quot;line-height: 0%;&quot;&gt;&lt;font style=&quot;font-size: 5px;&quot;&gt;frame.jpg&lt;/font&gt;&lt;/p&gt;" style="shape=cube;whiteSpace=wrap;html=1;boundedLbl=1;backgroundOutline=1;darkOpacity=0.05;darkOpacity2=0.1;size=9;fillColor=#f5f5f5;strokeColor=#666666;fontColor=#333333;" parent="1" vertex="1">
          <mxGeometry x="370" y="80" width="40" height="19" as="geometry" />
        </mxCell>
        <mxCell id="rhMrbndXJ0T741SxI-ga-23" value="&lt;p style=&quot;line-height: 0%;&quot;&gt;&lt;font style=&quot;font-size: 5px;&quot;&gt;frame.jpg&lt;/font&gt;&lt;/p&gt;" style="shape=cube;whiteSpace=wrap;html=1;boundedLbl=1;backgroundOutline=1;darkOpacity=0.05;darkOpacity2=0.1;size=9;fillColor=#f5f5f5;strokeColor=#666666;fontColor=#333333;" parent="1" vertex="1">
          <mxGeometry x="335" y="80" width="40" height="19" as="geometry" />
        </mxCell>
        <mxCell id="rhMrbndXJ0T741SxI-ga-22" value="&lt;p style=&quot;line-height: 0%;&quot;&gt;&lt;font style=&quot;font-size: 5px;&quot;&gt;frame.jpg&lt;/font&gt;&lt;/p&gt;" style="shape=cube;whiteSpace=wrap;html=1;boundedLbl=1;backgroundOutline=1;darkOpacity=0.05;darkOpacity2=0.1;size=9;align=center;fillColor=#f5f5f5;strokeColor=#666666;fontColor=#333333;" parent="1" vertex="1">
          <mxGeometry x="300" y="80" width="40" height="19" as="geometry" />
        </mxCell>
        <mxCell id="rhMrbndXJ0T741SxI-ga-49" value="" style="endArrow=classic;html=1;rounded=0;" parent="1" edge="1">
          <mxGeometry width="50" height="50" relative="1" as="geometry">
            <mxPoint x="270" y="133.42" as="sourcePoint" />
            <mxPoint x="290" y="133.42" as="targetPoint" />
            <Array as="points" />
          </mxGeometry>
        </mxCell>
        <mxCell id="rhMrbndXJ0T741SxI-ga-58" value="&lt;p style=&quot;line-height: 90%; font-size: 8px;&quot;&gt;CNN - Regressor model&lt;/p&gt;" style="text;html=1;align=center;verticalAlign=middle;whiteSpace=wrap;rounded=0;" parent="1" vertex="1">
          <mxGeometry x="444.5" y="74.5" width="95" height="30" as="geometry" />
        </mxCell>
        <mxCell id="rhMrbndXJ0T741SxI-ga-59" value="" style="shape=cube;whiteSpace=wrap;html=1;boundedLbl=1;backgroundOutline=1;darkOpacity=0.05;darkOpacity2=0.1;size=10;fillColor=#fff2cc;strokeColor=#d6b656;" parent="1" vertex="1">
          <mxGeometry x="457" y="100" width="70" height="70" as="geometry" />
        </mxCell>
        <mxCell id="rhMrbndXJ0T741SxI-ga-62" value="" style="sketch=0;points=[[0,0,0],[0.25,0,0],[0.5,0,0],[0.75,0,0],[1,0,0],[0,1,0],[0.25,1,0],[0.5,1,0],[0.75,1,0],[1,1,0],[0,0.25,0],[0,0.5,0],[0,0.75,0],[1,0.25,0],[1,0.5,0],[1,0.75,0]];outlineConnect=0;fontColor=#232F3E;fillColor=#01A88D;strokeColor=#ffffff;dashed=0;verticalLabelPosition=bottom;verticalAlign=top;align=center;html=1;fontSize=12;fontStyle=0;aspect=fixed;shape=mxgraph.aws4.resourceIcon;resIcon=mxgraph.aws4.deep_learning_amis;" parent="1" vertex="1">
          <mxGeometry x="477" y="124" width="40" height="40" as="geometry" />
        </mxCell>
        <mxCell id="rhMrbndXJ0T741SxI-ga-63" value="" style="endArrow=classic;html=1;rounded=0;entryX=0;entryY=0;entryDx=0;entryDy=10;entryPerimeter=0;" parent="1" edge="1">
          <mxGeometry width="50" height="50" relative="1" as="geometry">
            <mxPoint x="420" y="138.59" as="sourcePoint" />
            <mxPoint x="440" y="138.59" as="targetPoint" />
          </mxGeometry>
        </mxCell>
        <mxCell id="rhMrbndXJ0T741SxI-ga-67" value="" style="shape=cube;whiteSpace=wrap;html=1;boundedLbl=1;backgroundOutline=1;darkOpacity=0.05;darkOpacity2=0.1;size=10;" parent="1" vertex="1">
          <mxGeometry x="575" y="80" width="140" height="114" as="geometry" />
        </mxCell>
        <mxCell id="rhMrbndXJ0T741SxI-ga-68" value="" style="shape=image;verticalLabelPosition=bottom;labelBackgroundColor=default;verticalAlign=top;aspect=fixed;imageAspect=0;image=data:image/png,iVBORw0KGgoAAAANSUhEUgAAAmMAAAHOCAYAAADUog7QAAAKqmlDQ1BJQ0MgUHJvZmlsZQAASImVlwdQk9kWx+/3pYeEAAkISAm9SW8BpIQeem+iEpIAoYQYCCp2ZXEF14KICCpSFgUUXJUiq6iIYkVQAfuCLArKc7GABcv7gCHs7mvzzsyd+5t/zv3fc+98d+YEALIMWyhMhWUASBNkikK8XOlR0TF03AjAABjII0OazckQMoOC/AASc/NfY7IPQNPzXeNpr3/9/b+GLJeXwQEACkI4npvBSUP4NDJecoSiTABQhxFda2WmcJo7EKaJkAIRvj/NibM8Ns3xM4wGMzlhIW4I0wDAk9hsUSIAJDqi07M4iYgPyQVhMwGXL0BYiLBTWlo6F+ETCOsjOYhGmvZnxP/JJ/EvnvESTzY7UcKzZ5kJvDs/Q5jKXv1/Xsf/jrRU8dweusggJYm8Q5BZDrmz+ynpvhIWxAcEzjGfO5M/w0li7/A55mS4xcwxl+3uK1mbGuA3xwl8T5bEJ5MVNse8DI/QORalh0j2ShC5MeeYLZrfV5wSLtGTeCyJf3ZSWOQcZ/EjAuY4IyXUdz7HTaKLxCGS+nkCL9f5fT0lZ0/L+NN5+SzJ2sykMG/J2dnz9fMEzHnPjChJbVyeu8d8TrgkX5jpKtlLmBokyeelekn0jKxQydpM5IOcXxskucNktk/QHINQ4AEsgBUwB7bAG3iBKAAyeasypw/ili5cLeInJmXSmcgL49FZAo7JIrqFmYUVANPvdfZzeBcy8w4hhbZ5Lb0K+YwnkTeye16LLwSgORcAxYfzmvYhACg5ADS1c8SirFlt5i1hABFQAA0oATWgBfSBMVKjDXAALki1PiAQhIFosAxwQBJIAyKwEqwFm0AuyAe7wF5QAspAJTgKjoOToBmcBRfBFXADdINe8AgMgGHwCoyDSTAFQRAOIkNUSAlSh3QgI8gCYkBOkAfkB4VA0VAclAgJIDG0FtoC5UMFUAlUDtVAv0BnoIvQNagHegANQqPQW+gzjIJJMA1WhXVhU5gBM2FfOAxeCifCK+BsOAfeARfDFfAxuAm+CN+Ae+EB+BU8gQIoKZQCSgNljGKg3FCBqBhUAkqEWo/KQxWhKlD1qFZUJ+ouagA1hvqExqKpaDraGO2A9kaHoznoFej16O3oEvRRdBO6A30XPYgeR3/DkDEqGCOMPYaFicIkYlZicjFFmGpMI+YyphczjJnEYrEKWD2sLdYbG41Nxq7BbscexDZgL2B7sEPYCRwOp4QzwjniAnFsXCYuF7cfdwx3HncHN4z7iJfCq+Mt8J74GLwAvxlfhK/Ft+Hv4F/gpwgyBB2CPSGQwCWsJuwkVBFaCbcJw4QpoixRj+hIDCMmEzcRi4n1xMvEx8R3UlJSmlJ2UsFSfKmNUsVSJ6SuSg1KfSLJkQxJbqRYkpi0g3SEdIH0gPSOTCbrkl3IMeRM8g5yDfkS+Sn5ozRV2kSaJc2V3iBdKt0kfUf6NYVA0aEwKcso2ZQiyinKbcqYDEFGV8ZNhi2zXqZU5oxMv8yELFXWXDZQNk12u2yt7DXZETmcnK6chxxXLkeuUu6S3BAVRdWiulE51C3UKupl6jANS9OjsWjJtHzacVoXbVxeTt5KPkJ+lXyp/Dn5AQWUgq4CSyFVYafCSYU+hc8LVBcwF/AWbFtQv+DOgg+KCxVdFHmKeYoNir2Kn5XoSh5KKUq7lZqVniijlQ2Vg5VXKh9Svqw8tpC20GEhZ2HewpMLH6rAKoYqISprVCpVbqpMqKqpeqkKVferXlIdU1NQc1FLVitUa1MbVaeqO6nz1QvVz6u/pMvTmfRUejG9gz6uoaLhrSHWKNfo0pjS1NMM19ys2aD5RIuoxdBK0CrUatca11bX9tdeq12n/VCHoMPQSdLZp9Op80FXTzdSd6tus+6InqIeSy9br07vsT5Z31l/hX6F/j0DrAHDIMXgoEG3IWxobZhkWGp42wg2sjHiGx006lmEWWS3SLCoYlG/McmYaZxlXGc8aKJg4mey2aTZ5LWptmmM6W7TTtNvZtZmqWZVZo/M5cx9zDebt5q/tTC04FiUWtyzJFt6Wm6wbLF8Y2VkxbM6ZHXfmmrtb73Vut36q42tjcim3mbUVts2zvaAbT+DxghibGdctcPYudptsDtr98nexj7T/qT9Hw7GDikOtQ4ji/UW8xZXLR5y1HRkO5Y7DjjRneKcDjsNOGs4s50rnJ+5aLlwXapdXjANmMnMY8zXrmauItdG1w9u9m7r3C64o9y93PPcuzzkPMI9Sjyeemp6JnrWeY57WXut8brgjfH29d7t3c9SZXFYNaxxH1ufdT4dviTfUN8S32d+hn4iv1Z/2N/Hf4//4wCdAEFAcyAIZAXuCXwSpBe0IujXYGxwUHBp8PMQ85C1IZ2h1NDlobWhk2GuYTvDHoXrh4vD2yMoEbERNREfIt0jCyIHokyj1kXdiFaO5ke3xOBiImKqYyaWeCzZu2Q41jo2N7Zvqd7SVUuvLVNelrrs3HLKcvbyU3GYuMi42rgv7EB2BXsinhV/IH6c48bZx3nFdeEWckd5jrwC3osEx4SChJFEx8Q9iaNJzklFSWN8N34J/02yd3JZ8oeUwJQjKd9TI1Mb0vBpcWlnBHKCFEFHulr6qvQeoZEwVziwwn7F3hXjIl9RdQaUsTSjJZOGNEY3xfriH8SDWU5ZpVkfV0asPLVKdpVg1c3Vhqu3rX6R7Zn98xr0Gs6a9rUaazetHVzHXFe+Hlofv759g9aGnA3DG702Ht1E3JSy6dZms80Fm99vidzSmqOaszFn6AevH+pypXNFuf1bHbaW/Yj+kf9j1zbLbfu3fcvj5l3PN8svyv+ynbP9+k/mPxX/9H1Hwo6unTY7D+3C7hLs6tvtvPtogWxBdsHQHv89TYX0wrzC93uX771WZFVUto+4T7xvoNivuGW/9v5d+7+UJJX0lrqWNhxQObDtwIeD3IN3Drkcqi9TLcsv+3yYf/h+uVd5U4VuRVEltjKr8nlVRFXnz4yfa6qVq/Orvx4RHBk4GnK0o8a2pqZWpXZnHVwnrhs9Fnus+7j78ZZ64/ryBoWG/BPghPjEy1/ifuk76Xuy/RTjVP1pndMHGqmNeU1Q0+qm8eak5oGW6JaeMz5n2lsdWht/Nfn1yFmNs6Xn5M/tbCO25bR9P599fuKC8MLYxcSLQ+3L2x9dirp0ryO4o+uy7+WrVzyvXOpkdp6/6nj17DX7a2euM64337C50XTT+mbjLetbjV02XU23bW+3dNt1t/Ys7mm743zn4l33u1fuse7d6A3o7ekL77vfH9s/cJ97f+RB6oM3D7MeTj3a+BjzOO+JzJOipypPK34z+K1hwGbg3KD74M1noc8eDXGGXv2e8fuX4Zzn5OdFL9Rf1IxYjJwd9Rztfrnk5fAr4aupsdx/yP7jwGv916f/cPnj5njU+PAb0Zvvb7e/U3p35L3V+/aJoImnk2mTUx/yPip9PPqJ8anzc+TnF1Mrv+C+FH81+Nr6zffb4+9p378L2SL2TCuAQgackADA2yMAkKMBoHYDQFwy20/PBDT7H2CGwH/i2Z57JmwAqOwHIGwNAH63ANhfgrSziD8lFoAgCqI7ANjSUjLmet+ZPn06ZI4B0D1pZunLAv8mZnv4P9X99xlMu1qBv8//BJnRBaN2YkqwAAAAVmVYSWZNTQAqAAAACAABh2kABAAAAAEAAAAaAAAAAAADkoYABwAAABIAAABEoAIABAAAAAEAAAJjoAMABAAAAAEAAAHOAAAAAEFTQ0lJAAAAU2NyZWVuc2hvdBqm40QAAAHWaVRYdFhNTDpjb20uYWRvYmUueG1wAAAAAAA8eDp4bXBtZXRhIHhtbG5zOng9ImFkb2JlOm5zOm1ldGEvIiB4OnhtcHRrPSJYTVAgQ29yZSA2LjAuMCI+CiAgIDxyZGY6UkRGIHhtbG5zOnJkZj0iaHR0cDovL3d3dy53My5vcmcvMTk5OS8wMi8yMi1yZGYtc3ludGF4LW5zIyI+CiAgICAgIDxyZGY6RGVzY3JpcHRpb24gcmRmOmFib3V0PSIiCiAgICAgICAgICAgIHhtbG5zOmV4aWY9Imh0dHA6Ly9ucy5hZG9iZS5jb20vZXhpZi8xLjAvIj4KICAgICAgICAgPGV4aWY6UGl4ZWxZRGltZW5zaW9uPjQ2MjwvZXhpZjpQaXhlbFlEaW1lbnNpb24+CiAgICAgICAgIDxleGlmOlBpeGVsWERpbWVuc2lvbj42MTE8L2V4aWY6UGl4ZWxYRGltZW5zaW9uPgogICAgICAgICA8ZXhpZjpVc2VyQ29tbWVudD5TY3JlZW5zaG90PC9leGlmOlVzZXJDb21tZW50PgogICAgICA8L3JkZjpEZXNjcmlwdGlvbj4KICAgPC9yZGY6UkRGPgo8L3g6eG1wbWV0YT4KwrfSLQAAQABJREFUeAHsnQecVNX1xw/bC7tLXRYQBKUpCCgqoqigYsFgTaIx1mhMjCVqEqPGqCQYa0xibP+Y2GKsiTUiggXQUBQQEBEEpAjS2/bK/O/vzp63b2anvJl5M/Pem3M/n93Xbv3eKWfOOffcDj6VSJIQEAJCQAgIASEgBIRAWghkpaVVaVQICAEhIASEgBAQAkJAExBhTF4IQkAICAEhIASEgBBIIwERxtIIX5oWAkJACAgBISAEhIAIY/IaEAJCQAgIASEgBIRAGgmIMJZG+NK0EBACQkAICAEhIAREGJPXgBAQAkJACAgBISAE0khAhLE0wpemhYAQEAJCQAgIASEgwpi8BoSAEBACQkAICAEhkEYCIoylEb40LQSEgBAQAkJACAgBEcbkNSAEhIAQEAJCQAgIgTQSEGEsjfClaSEgBISAEBACQkAIiDAmrwEhIASEgBAQAkJACKSRgAhjaYQvTQsBISAEhIAQEAJCQIQxeQ0IASEgBISAEBACQiCNBEQYSyN8aVoICAEhIASEgBAQAiKMyWtACAgBISAEhIAQEAJpJCDCWBrhS9NCQAgIASEgBISAEBBhTF4DQkAICAEhIASEgBBIIwERxtIIX5oWAm4jcOedd1KHDh3c1u2M6e+6dev0/DzwwANpG7O8RtKGXhp2MQERxlw8edJ1ZxE47bTTqHPnzrR169Z2Hdu7dy/17NmTRo8eTfv27Wv3XG4IgVgITJ06lSD0pCvV1tbq9mfOnJmuLki7QsBTBEQY89R0ymDSSeDRRx+lxsZGuuGGG9p149Zbb6UdO3bQ3/72N8rKkrddO0ByIyYCEMYmT54cUxk7M0MYQ/uhhLHbbruN6urq7GxO6hICnicg3wqen2IZYKoI9O/fn+644w564YUXaPr06Uazn376KT3++ON044030ogRI4z7cuIuAtBo1tfXu6vTaehtTk4OFRQUpKFlaVIIuJeACGPunTvpuQMJQOAaPnw4/exnP9Nf3C0tLfTTn/6U9t9/f/rhD39Il156KR1wwAH6y6qiooJ+9KMf0c6dO42RLF26VPv8vPnmm8a9hQsX6nuHHXaYcQ8nMIvC7BkuwW8I/l3r169vl+WWW26hvLw82r17t3720Ucf0fe+9z3q27cv5efnU58+fbSGL5qGg32Unn766XZtoO1gU9qmTZv0mHv06KHbGTp0KD355JPtyv71r38lPCsqKtKm38MPP5yef/75dvnMN6CVvP3222nUqFFUVlZGxcXFdOyxx9KHH35ozqbPIVj95S9/oUMOOUTPRffu3enUU0+lBQsWGHnR/2uuuYb+9a9/6b6Ay7Rp0/Tzzz77TPMvLS2ljh070oknnkjz5s0zyuKkqalJa48GDhyo2+jatSuNHTuWZsyYYeTbsmULXXbZZbTffvtpHjBln3nmmQSu4RJeQ4888oh+jD7yX3B+aGEPPPBAXe8RRxxB+FEQnFasWEHf/e53qUuXLrqP4Gx+7QXnxzX6Bl5I0I5x+zzXOOKeOeEaLF955RU6+OCDqbCwkMaMGUOff/65zvZ///d/NGDAAN2HcePGhRz//Pnz9RxhbvG6OP744+l///ufuRk5FwKuJZDj2p5Lx4WAAwlAK4AvwaOPPpp+//vfU3l5OS1atEh/ieNL+Ouvv9ZfvhDEvvjiC50XR3yR4wtr2LBh1KlTJ5o9ezadccYZeoQQlGDaXLJkCVVWVhIEAAgTc+bMoSuvvDIshe9///t000030csvv0y/+tWvAvLh3sknn6wFHTzAlyRMT1dddRVBaPjkk08IAtHGjRv1s4DCcV7Al+6oo47S48QXM77Q33nnHbr88sv1uK6//npd8xNPPEHXXXedFhJ+/vOfa6EWQiq+jC+44IKwrYPN3//+d/rBD35AP/7xj6mqqor+8Y9/0CmnnKLHM3LkSKMs2oQACYH2iiuuoObmZgJnzAMEEk4ffPCB5of+duvWjfr166fnDUIe5gF8c3NzCcIEhIhZs2YZAjKEkrvvvlvXf+SRR+oxQtjD62HChAm6iXPPPVfXd+211+q6t23bpoW1DRs26Gvuh/n4k5/8hL799lud75///Kf5kXEOwRXjR168ru677z4655xz9OsP/UXC6+6YY46h3r17080336yFV7wuzjrrLPrPf/5DZ599tlGf+QTz9thjj+nXCvKgXiT8CImUwBeC3tVXX62zgc13vvMdzRAmfvyAwY8D9BU/UsCeE84xVxC0oX3G++Gpp56iE044Qc8b+EoSAq4m4JMkBISA7QTUl7dPfen5lNbEp4QDXb8Sdtq1o0yaPvUB4lPCl/Hs9NNP96kvF+Nafdn58Jedne1Twou+r77Qdbk33njDyBfqRGkffOoLLOCRErR02Weffda4H6pv6svSp77IfUqzZuRTX4S6LN9Yu3atvlZfjHzLOGJcyM9JCUA+pfnxKd85vqWP559/vk9pO3zcB6UZ8imtWEAeKxdKoPI1NDQEZFVf7j6lhfOpL3fjvvpi131WAp9xj0+UkMunOo/60vcpocW4hxMlrPiUVtG3Zs0a474SjnwlJSW+4447zrinTNI+zGW4hL6B0f333x8uS9j7SqDRZYMz8Hwogdq3a9cu4zFeJ2jrrbfeMu4pbZ5PaQZ9yvRq3MP41Q8Jn9LmGfdCnWzfvl3XZ55fzhf8GsF9tK00iz70j5MSYPV99cPEpwRpvu1TWlt9n/OiT+iPEqp95vnB60W5BviUYGuUlRMh4FYCYqZUnxKShIDdBO666y6tYcIv+D/96U+6ephmOMH3CA790BQhQVvCCVoXXNfU1OhbH3/8MU2cOJGg2YF2AQlHaDxg9oqUzjvvPIKZUwkORraXXnpJm65gDuNk7hvaRd+g3VMfbASTXKIJ9UDbMmnSJF0n6uc/aK6w2pQZQDMIjVwos1qkfihhVZtekUd9aZMSRrTGC5ourhvP0A+wU0IDLgMS7psTTGEwq3GC2Rn+gNAewdzMCeZFaO0wV9DQIWEc0D6tWrWKswUcwRym4plqRSKbiwMyJHCBecfKXk54TSFBM4sENtA2QXsKDRrPBUzmmA/0GSZlOxNMuf2UZpETm9ihHVSCLN82NIvc18WLF+v+gC/6x33F6xR1QouM+ZYkBNxMQIQxN8+e9N2xBGDCGjx4sPa9gn8UEr4AYXbDNb6IYe6B0z8ShBFO+OKE2Wzu3Lm0cuVKgukK95TWJUAYg5AAX59ICX5gEAghgCFBKIJJEiYf9JETzGLwRUJ98IFC3yCIIJn7xvljPSpNCu3Zs0ebZVG3+Q8+U0gYJ9Kvf/1r3QeYnuBvBbOWVd+gZ555RpvL4EAOcyvaefvttwPGAMG0V69eUdmhLzw/OEfCOJRGRs+t/07b/4MOOkgLBd98842++bvf/U6PedCgQdo3DaZimFs5wQft3nvv1aZavCYwvzDRwY8s0QTfP3NiwYyFvtWrV+vXwm9/+9uAuQAvFlJ5Psz1JHIe3Cf4fiHBP9Gc+D73lYXZSy65pF1fYZZW2tCA+TXXJedCwC0ExGfMLTMl/XQ9AWgh4OeFL2VouSD04Bc9HMfNv+yhyYEwgV/8+AKD3xm+0CGQwbcGXz7QjIXz6TGDgtCBcvAFQngN+ERB8IIQwAnaHvgwQViEIDRkyBDtPwTNCAQ0c9+4DB+DNUl8H3WaE9dx4YUXEr5UQyX2OYJQAyH0v//9r/a1gyYL44ZzfqRwDs8995zuL7RWYAxu0JbBN8msGQzVdrh7Zo1huDzh7kO4QrvKRKi1aRAcoCXFylr4qSHBTw7awtdff53effddgnCE/kJrdeihh4arOup9jDtUgjCOxPPxy1/+UmvCQuWFQ72dKVyfwt0P7qsy5+r3Tag+4b0kSQi4mYAIY26ePem7awjgV/7777+vhQkIFZz4Vz9f4wjTFbRCELggjEGYQsIRghhW98EZHl/2VhJMVnCOhoADDRlWokEA4IQVbV999RVBq3TxxRfz7YBVf8bNoBPWuEDrZU7BKzihcYEpCkLaSSedZM4a8hwrIdFv/GGVJJzEYfrFKtBwYRP+/e9/a9Phq6++qs2QXDFrevgaKwwh+ED4jKZZ5DJ8xDjADyyDE1YmQgtp1vSgfmj+8FddXa3nDI79LIyhDvTnF7/4hf7D6wGC+h//+EeCcBkuhROCw+UPvs8mVjjzW5mP4PKJth9cX6Rr8EGCJjeevkaqW54JAacQEDOlU2ZC+uFpAvzrn3/t82D//Oc/82nAEYIXVg8iLAMLY1jNB60Ra7X4fkDBEBfwyUH7iH8GEyVWsEHY4RSqb+gnQj9ES/iCRL+gxTMnaLLMCW2gH9ByLVu2zPxIn8P8x8kc6gP3IJzCJIs+IVxEuBRqHGAIc685oR+oK5SWLXh+zOVwjjawChXaLoR44AThGCsY4cPH5t/gcUB7A20TBGokmDuD45ZB8IDQynm4/uAjz1+wEBycL9w1tIbjxo3Tq0A3b97cLpt5Pto9VDcgkCLF274ubPEfVlCCC0K1QKANTtH6GpxfroWAEwmIZsyJsyJ98hwBfEGzTxAECoQTgCO4WjEWcqwQtKAJgv+RWehCHQijAEdoxKaykvDFO378eHrwwQe1sza0TeYEsyS+7GCygmkSfYXQxD475ryhzqHlueeee7S2ByZWCGbQtAUn5IFwCcdthJ6AgAXtFJzr33vvPX2OMhB2EPoDYRfgS/Xll1/Sww8/TGplYoCjd3D9EDKhFYP5FnnBFiZBtGP+EgeLiy66iB566CHtGM5mYmgi8QxhLCKlKVOmaK0hBC9oHBHOBHMCAQo+X5zQLgQeCBPQkCGsBbR3XD8YwQEd5mvkRT2vvfaa1nqqFaZcTcgj6kRCCBA43ENIjFYmuCLEKsMYEGsN8wFtGYRKCK9YQIFQKuESzLfoMzStMKFjfAjLgj+7E7SNMPHCzxGx56BlxPsHr1W8nvB6VatE7W5W6hMCqSWgfglKEgJCIAkElAN8QIgG9QXnU4KCT62y06EclHO9DyER1Dvep0xpAT3AUn/1BavDJSBkAydlutL5lTDBtywdVewuXQ7hF1Qg13Zlli9f7lMmIB2KQ2m6fOrL2ae+jHUZc9gK9BP9NSeEGEDYCoSnQP1KuPAp52+dL3hc6sveh7AMypSnQ38grAFCLKjYbEaVCHmghE4fwjMgHIISFH3KB8ynFhIYeUKdKD8o3x/+8AefCrCryymfK5/yO/MpHzV9z1wGTBFSQgmiOkyFMj/61Je9T608NbJhnOhrqKQESB1qQWm7fEpL5FNCnE/5AwZkVUKbDlGC+VbCi25LCdg+ZXbV+dSqQF0/+qA0XZqfElR9yr8voJ5QF+i/ik3mQ7+VydCYEyWA6vNQ4TJCvc6UT5tPmaZ9mAeEYlFCjk8JtT4lNIZqNuAexouwKQjzYa471GskFMtwfVUClq5PaXED2lOrenWIF35dYJ7xWlPm/4B8ciEE3EigAzqt3iiShIAQEAJCQAgIASEgBNJAQHzG0gBdmhQCQkAICAEhIASEABMQYYxJyFEICAEhIASEgBAQAmkgIMJYGqBLk0JACAgBISAEhIAQYAIijDEJOQoBISAEhIAQEAJCIA0ERBhLA3RpUggIASEgBISAEBACTECEMSYhRyEgBISAEBACQkAIpIGABH21CB17uamYUDroZCq3ArHYPckmBISAEBACQkAIhCCACF5VVVWEvXoRRNiJSYQxi7MCQcy855zFYpJNCAgBISAEhIAQcAAB7GhideeSVHdXhDGLxLFfHBImk/eei1YU295gyxts74INeSUll4DwTi7f4NqFdzCR5F4L7+TyDa5deAcTSe51MnmrHU20MoW/x5M7kvhqF2HMIjc2TUIQi0UYw4a6yC/CmEXQCWTDm1l4JwAwxqLCO0ZgCWYX3gkCjLG48I4RWILZU8Gbv8cT7GpSijvTeJqUoUqlQkAICAEhIASEgBBwHgERxpw3J9IjISAEhIAQEAJCIIMIOE4Yu/vuu+mII47QqxbLy8vprLPOopUrVxpTsmvXLrr22mtp8ODBVFhYSH379qXrrruO9u7da+QJdXLppZcSVJTmv1NPPTVUVrknBISAEBACQkAICIGUEXCcMDZr1iy6+uqrad68eTRjxgyCHRkO8DU1NRoKVjXi74EHHqBly5bR008/TdOmTaPLL788KjQIX5s3bzb+XnjhhahlJIMQEAJCQAgIASEgBJJJwHEO/BCszAnCFjRkCxcupOOOO46GDRtG//nPf4wsBx54IN1111104YUXUnNzM+XkhB9Sfn4+VVRUGGXlRAgIASEgBISAEBAC6SYQXnJJd89a22fzY5cuXcL2CHmwYjGSIIbCM2fO1IJd586d6YQTTqApU6ZQ165dQ9bb0NBA+OOEpbFI0NThz0rifHy0UkbyxE+AOfMx/pqkpBUCzJmPVspInvgJMGc+xl+TlLRCgDnz0UoZyRM/AebMx/hral8yGXW2byWxOx1UZFpfYlUkrzSi3p9xxhm0Z88e+vjjj0M2tGPHDho1apTWjEFDFi69+OKLOuxB//79ac2aNXTrrbdSx44dae7cuZSdnd2u2J133kmTJ09ud//555/X9bR7IDeEgBAQAkJACAgBxxGora2lCy64QPuWWw1NlepBOFoYu+qqq+idd97RglioqLnQVk2YMIGgNXvzzTdjiuX19ddfE0yc7733Hp144ontuIfSjCECP4Q/q5MJaRx+b+ijxBlrh9j2G8LbdqQRKxTeEfHY/lB42440YoXCOyIe2x8mkzdkhW7dujlaGHOsmfKaa66h//73vzR79uyQ2xdgnyk45COi7muvvRazsHPAAQfoyVm9enVIYQz+ZfgLThCqYhWs4ikT3K5cWycgvK2zsiOn8LaDovU6hLd1VnbkFN52ULReRzJ4o06nJ8cJY7CaInQFBCz4eMGsGJwg5Z5yyilaWIJGrKCgIDhL1OuNGzfSzp07qWfPnlHzSgYhIASEQLIItOzz0Sdrd9G2qnoqLymgI/t3oeysDslqTuoVAkLAgQQcJ4whrAX8st544w2t9dqyZYvGVlZWpuOKQRBDqAvYgJ977jnCNf6Qunfvbvh/DRkyhBCz7Oyzz6bq6mrt/3Xuuefq1ZTwGbvppptowIABWqjTheVfRhCQL76MmGbXDHLass00+a3ltHlvvdHnnmUFdMekg+nUYfJD0YAiJ0LA4wQcJ4w99thjGvm4ceMC0D/11FOEwK2LFi2i+fPn62cQpsxp7dq11K9fP30LgWJ5JSYc9JcuXUrPPPOMXgzQq1cvLdD9/ve/D2mKNNcp594hIF983plLL4wEr8ernltEwSuotijBDPcfu/AwEci8MNEyBiFggYDjhLFoizshpEXLg3Gb8yBS/7vvvmsBh2TxKgH54vPqzLpzXNDQQiMWLIhhNLgHIyWeTzi4QkyWgCJJCHicgOMi8HuctwwvDQSiffGhS/jiQz5JQiAVBOAjZjZNBreJVyKeI58kISAEvE9AhDHvz3HGj1C++DL+JeA4AHDWt5Ks5rNSl+QRAkLAuQREGHPu3EjPbCJg9QvNaj6buiXVZDABrJq0kqzms1KX5BECQsC5BEQYc+7cSM9sImD1C81qPpu6JdVkMAGEr8CqyXABLHAfz5FPkhAQAt4nIMKY9+c440coX3wZ/xJwHADEEUP4ilCJBTQ8l3hjoQjJPSHgPQIijHlvTmVEQQTkiy8IiFw6ggDiiCF8RV42i1/+blUojZiEtXDEFEknhEDKCIgwljLU0lA6CeCL75ELDmvXhR6l+fLF146K3EgVgZNV6Iq87LaPYQTen/nLcRJfLFUTIO0IAYcQaPsUcEiHpBtCIFkEDu/f2ai6W8c8fX77d4bKF59BRU5STWD9rlqqbmyh/JwsylN/iK6yraoh1d2Q9oSAEEgzARHG0jwB0nzqCGzd6/+S616ST98Z3ks3/PGaHanrgLQkBIIIfL5pr75zUM9S2q9zoT7/RglokoSAEMgsAiKMZdZ8Z/Rot1T6Yzthldrxg7prFrO/2h6wW0NGA5LBp5zA5xv36DYP6V1GfToX6fNvdoswlvKJkAaFQJoJiDCW5gmQ5lNHYMveOt1Yj9ICGn1AF+2rs3F3Ha3dUZO6TkhLQsBEgDVjEMbaNGP+16kpm5wKASHgcQIijHl8gmV4bQTMmrGivBw6vJ/fhwzaMUlCINUE9ikHsS82Vepmh0Ez1kU0Y6meA2lPCDiFgAhjTpkJ6UfSCfBegNCMIR3HpspV4jeWdPjSQDsCcN6vamjWzvsDe3Q0zJTQ1koSAkIgswiIMJZZ853Ro93a6jNWwcLYQL/f2Nw1O6mhuSWj2cjgU0+ATZRw3s9V4S36dBEH/tTPgrQoBJxBQIQxZ8yD9CIFBLbsbXPgR3MH9Syhbh3zqa6phRau352CHkgTQqCNgNl5H3fZgR+hLerVa1KSEBACmUNAhLHMmeuMHykLYz3UakqkDh060HEDu+nz2V+JqVKDkH8pI8CaMTjvI3UqyqWO+Tn6XEyVGoP8EwIZQ0CEsYyZ6sweaFV9E9Wo4JpIbKbEueE3Jk78wCEpRQSCnffRLH4cGCsqJbxFimZCmhECziAgwpgz5kF6kWQC7C9WUpBDxa3aBzQ5tlUztnxzJW2XyOdJngWpngkEO+/z/f1aY41tlMCvjESOQiAjCIgwlhHTLIPklZRmrRiowGdsWO9SDeijVRLiQl4pqSGwtDXYKzvvc6vsxC9mSiYiRyGQGQREGMuMec74UbK/WEWrv5gZyHGtqyo/khAXZixynkQCy1q3QWJ/MW6KnfglCj8TkaMQyAwCIoxlxjxn/CgNYaw1rIUZCPuNQTMGXx5JQiDZBIKd97k9I/DrLok1xkzkKAQygYAIY5kwyzJGMkffD8ZxWN/OVJyXTTuqGwm+Y5KEQDIJhHLe5/bYTCmaMSYiRyGQGQREGMuMec74UbIDP4e1MAPJy8miMQd21bdmi9+YGY2cJ4FAOOd9NMUO/HtqmwgrgCUJASGQGQREGMuMec74UbIDf88QPmOAw6ZK2acy418qSQcQznkfDSPOWGcVbwzpGzFVag7yTwhkAgERxjJhlmWMZGjGQviMAQ878SMSf43aL1CSEEgWgXDO+9we+41tlFhjjESOQsDzBEQY8/wUywCx7yT8wZCCQ1swnX7diqlvlyJqavHRvK938m05CgHbCYRz3ueG2lZUihM/M5GjEPA6ARHGvD7DMj7aVtmgKeSpzZi7FOeFJXKssTWSxBsLC0keJEQgkvM+V7yfbBjOKOQoBDKGgAhjGTPVmTtQw0RZlq+3nAlHwvAbk3hj4RDJ/QQJRHLe56pZMyZmSiYiRyHgfQIijHl/jjN+hIbzfmlhRBZHqxWVOVkdaO2OGuU8XRsxrzwUAvEQiOS8z/UZ+1OKAz8jkaMQ8DwBEcY8P8UywDbNWEFEGCUFuYSYY0izZOPwiKzkYXwEojnvo1Z24EesMZ9PghDHR1pKCQF3EXCcMHb33XfTEUccQSUlJVReXk5nnXUWrVy5MoBqfX09XX311dS1a1fq2LEjnXvuubR169aAPMEX+FC7/fbbqWfPnlRYWEgnnXQSrVq1KjibXDuQQIuKij93zU56Y/EmfcR1LIk1YxWl+VGLHTeom87z+meb4m4vaiOSIWMJRHPeB5jenfwa3NrGFtqt4o1JEgJCwPsEHCeMzZo1Swta8+bNoxkzZlBTUxOdfPLJVFNTY8zGDTfcQG+99Ra98sorhPzffvstnXPOOcbzUCf33XcfPfTQQ/T444/T/Pnzqbi4mE455RSCYCfJuQSmLdtMY+/9gH7wxDz6+YuL9RHXuG81cfT9irLIZkrUl5Plf0ssUCEu4m3Par8kX2YRMDvvH7JfWdjBF+RmU4/WHw5iLg+LSR4IAU8RcJwwNm3aNLr00ktp6NChNGLECHr66adpw4YNtHDhQg1+79699I9//IMefPBBOuGEE2jUqFH01FNP0Zw5cwgCXKgErdif//xnuu222+jMM8+k4cOH07PPPquFuNdffz1UEbnnAAIQuK56bhGxZou7hH0mcd+qQLZV5UcKF9aC60V9905bwZfGMdb2jIJyIgRMBNbtrKEqFcMuX+34MLC8o+lJ+1N24pdtkdqzkTtCwIsEcpw+KAhfSF26dNFHCGXQlsHMyGnIkCHUt29fmjt3Lh111FF82ziuXbuWtmzZElCmrKyMRo8ercucf/75Rl4+aWhoIPxxqqz071mItvFnJXE+PlopI3n8BGCKvPPNLyiUQRL3Oqi/yW99QeMGdqVs5XSPxJz5qG+qf5v3+uM1dS/OMfLwMz7G0x6XzdQjc+ZjpnKwOu7FG3bprEMqSsi3r4Wa1F+41LtTAS1YT7Rue7XxmmXOfAxXVu7bQ4A589GeWqWWcASYMx/D5YvnfjLqjKcfkco4Whjbt28fXX/99XTMMcfQsGHD9DggVOXl5VGnTp0CxtWjRw8tcAXcbL1AGSTkMadIZeC7NnnyZHN2fT59+nQqKipqdz/SDZhbJcVGYNXeDmpz7+ywhSCQbd7bQA+/NI0GlgWKbGbecC/bshf1dKAvFs6hzctCV5lIe6FrzJy7Zt6ZM+rYR/rWOhgisqikaTdNnTo1YgV1O/x55yxdSX2qvwzIK7wDcCT9QngnHXFAA8ngXVvr/NXxjhbG4KS/bNky+vjjjwMmKxUXt9xyC914441GU9CM9enTR/uvlZaWGvcjnUAaxwtrwoQJlJvr328uUn551kbgraXKJ2z55203wpwdMHQkTRzeUz8NxXtHdQO1zJul4osRnXfGqZSrAr+GSrG2B00a/Mq2VTVQeUk+Hb5/Z0NDF6p+L94LxduL47RrTM8/+amqajdNHHMITRzVO2K1NQs30fRNX1BWSXeaOHGUziu8IyKz/aHwth1pxAqTyZstWxE7kOaHjhXGrrnmGvrvf/9Ls2fPpv3228/AVFFRQY2NjbRnz54A7RhWU+JZqMT3kQerKTnheuTIkXwZcMzPzyf8BScIVbEKVvGUCW430657diq2NGTkC54PM++drb+IunXMp6KC9vPJjVht74vNVZSbk0N/mPplgC8bNiC/Y9LBdOqwttcX1+31o5m318ca7/jgvL/82ypd/ND9u7R7zQbX26+736fs2z317fIK72Bayb0W3snlG1x7MnijTqen0GqCNPYazvYQxF577TX64IMPqH///gG9gcM+wL7//vvGfYS+gJP/mDFjjHvmE9QBgcxcBpIyVlWGK2MuL+epJ3Bk/y4EAUcptEIm3Mdz5IuU4HyPFM15P1p73MY/Pl5H177wWYAghmfi5M+E5BiKQCzO+yjPDvwbd9cRBDlJQkAIeJuA44QxmCafe+45ev7553WsMfh74a+uzu+EDcf7yy+/XJsQP/zwQ73K8rLLLtNCldl5H079EOiQOigbFXzPpkyZQm+++SZ9/vnndPHFF1OvXr10HDNvT7E7RwenfGiaQn0NsYCG5+y8H26UmytbhTEluEVK3B7ycP2cH9f4+64yLbWuFeBHxpH7Ofmt5RRrHDSjEjnxLAGOL3ZQz1LKCWMqNw8ePzTwmmxs2adN4eZnci4EhID3CDhOGHvssccIKyjHjRunTYowK+LvpZdeMuj/6U9/ou985zs62Otxxx2ntV6vvvqq8Rwn0JbxSkxc33TTTXTttdfSlVdeqYPKVldXE8JoFBRE/pJGWUnpIQCT34lDyts1Xq5iMD124WGWTIJWw1qgEbSHeiuCBDdc4/65h/WhSEoKCGQIw/HJWv+quXYdlxsZS8BK5H0zHAhsvdSKSiQJb2EmI+dCwJsEHOczZmX7DwhQjzzyiP4LNy3B9UA79rvf/U7/hSsj951FQAfJ/NYfUuQXEwbR03PW0c6aRvrj90bQ2IHdLXWWY5QFC1jhCkMgm3BwhRaotlXVK+d8vykUWgrsAGAloZwkIWAmwJqxQ3qHD/Zqzo/z/ToVqT1S6/Q+qUf0i2yODy4r10JACLiLgOM0Y+7CJ71NJgGsVkT0/JKCHLry+APo0NZ9I1dtq7bcLO9LGc1nzFwhBK8xatPwM0f21kdcI0Ews5Ks5rNSl+RxPwH9o2KT/0dFpMj7wSPt08W/YwQEMklCQAh4m4AIY96eX1eP7q0l3+r+nzK0QkUtzyYEy0RaucW/Kk1fRPnXthWSNUEqUnXRnPwhsllZVBCpDXnmLQLwH3xdaVQReT9XCfUHdLO2ShgU2pz4nR8jyVuzJqMRAqknIMJY6plLixYINCvH5amf+/efnDSily4xmIWxrTEIY7yaMsgPzEIX2mWBhgyLBpD8urK2LHxtZVFBWyk58zIBbK+FfVRvfHmJHmaTEszGPTDT8jZefbr4g0uLz5iXXyUyNiHgJyDCmLwSHElg7tc7tX9Yl+I8OlqZDJFYGPtKacasLPevqm+iaqWRQIrFTKkLhPkXzckfzyUJATv2VRUzpbyOhEDmEBBhLHPm2lUjZRPlacMqjKj5/ZWJJze7A9U0ttCmPdH9aNhfrCQ/h4rVn10JAtfHvz6B0B+kX58yWF+LIGYXYXfXA9MkQpxwuBPzaPielRAobKbE3qpNSlMsSQgIAe8SEGHMu3Pr2pE1NLcoU84W3X82UeICWxkd2BqZ3Irf2Ba1dyWS1ZWUOrPFfzBZdldR/ZH6di2OGu/MYrWSzQMEENqEV/GGGo7VECjYNSIvJ0uHU9msIvFLEgJCwLsERBjz7ty6dmQffbWDKuubqYeKJxa8pJ9NlSst+I3Z6bwfCmZhnn8j87qmllCP5V6GErAa2iRaviwl8O/XuXVF5W5x4s/Ql5MMO0MIiDCWIRPtpmG+tdS/ivL0Q3q10zgZwpiFFZVblHkHyS5/sWCGRSyMNfr90oKfy3VmErAa2sRKPjZVbhRhLDNfTDLqjCEgwljGTLU7Blqn/MHeW75Vd3bSiPbO8IN7WA9vkSrNWK3qsyQhwAQ4BApfBx9jCYEiTvzB9ORaCHiTgAhj3pxX147qw5XbtIM+zDMj+3RqNw7WjK3ZXk2NzZGdmnmT8B6liccYa9cRdaMwV8yUobhk+j1zCJRgFrGGQGHNmIS3CCYp10LAWwREGPPWfLp+NLyKEo772MIqOPXuVEgd1crIZrVibe2OmuDHAdesGUMg1mSkNjOlaMaSwdfNdWK7rnzlfB+ceJ9TqytvjVhju8RnLJilXAsBLxGwb72/l6jIWNJCAHHBPlixTbc9abg/0GtwRyCgDerRkRZt2EMrtlQasceC8+GaV1MmTTOW53/7iJkyFP3Mvvfaoo3UoDS3/bsV0R/OPoS2VTUE7HNqlU6bA3/0UC5W65R8QkAIOI+ACGPOm5OM7dF7X27VX2AHdi+mg3r6fcNCwRhcUaqFsa8irKiECXNHtT+0RbI0Y2ymFGEs1Cxl7j2fz0f/nLdeA7h4TD+1v2m3uGGwmXK7EubqZdVu3ByloBBwOoH2enSn91j651kCby1p2/4olImSBz5YacaQIsUa47ABeSo2GaL4JyOxmVK+JJNB1711Is7YV1urtU/hOYftl9BAOhXlarM8KtkkscYSYimFhYCTCYgw5uTZyaC+7altpNlfbdcj/k4YEyXjgGYMaUWE8BYcfb9cxSqLJNhxnfEcOc5YrYS2iAefZ8s826oVO+vQ3lRWmJvQOPHaZVOlhLdICKUUFgKOJiDCmKOnJ3M6h4j7cMo/qGcpDSj3a77CjZ5XVG7cXWfsPRmclyOgJ8tEifZYMyZmymD6mXu9rbKe3m3dPeLCo/raAoKd+PF6lyQEhIA3CYgw5s15dc2osI/f3DU76cn/rdV9Pn14RdS+w+zYvcS/FVE4v7Fkh7VAJ9lnTCLwR52yjMnw4qff6B8Vo/bvTEN7ldkybvYb+0aEMVt4SiVCwIkExIHfibOSIX2atmyz3lCZtVgY9jNz1tMAtf9ktKX/QypKCE7NXylT5WF9O7cjxsJYMjVjbKZEoFpJQqBZbeb9/PwNGsTFY/a3DUibmbKOhtsj39nWN6lICAgBewiIZswejlJLjAQgiF313KJ2GyrvUAIW7uN5pDSoNRJ/OL8xjjGWrLAW6FuRhLaINEUZ9wyrgfG666o0t6cOi67htQrIMFPuETOlVWaSTwi4jYAIY26bMRf1l02QbyzepE2RuEbCcfJby8l/FTggvofnnD8wh/+K/cbCrahkB/6eZf6NlkPVkeg99hkTM2WiJL1RnsNZnHdEHxXw1b87gx0j4y2RNu2ut6M6qUMICAEHEhAzpQMnxQtdCmWChMnwjkkHU3OLr51GzDxmCGQwXSJEwJgDu5ofGecwUyKF8xlj02dFmd+3zCho44nhMyZmShupurOq1duq6X+rd1KW2jTigtH2OO4zCfYZ21PXRPWyJz1jkaMQ8BQBEcY8NZ3OGAybIFnLxb2CgPRTZYK0mjhWWKj8A8tLVMgKop01jdp3jB36kXef0rxtq/QHfE2mmdLwGVPBONFmFr6JJWUkgedaw1mcMKSHCkVRZCuDYrX9Fxat7FKv9Z3+l7Wt9UtlQkAIpJ+AmCnTPwee6kEkE2SsAy0vCb+nJASh/bv4v/SCTZW7VcyyRuVMDWEtUh2x9ic4P5spcb++WZz4g/lkynVNQzP9Z+FGPdyLxuyflGH36ew3t+9sEIE/KYClUiGQZgIijKV5AtzaPIQuhKQI9geDaZFNhJHGhl/64b5WcB8mzSP7d4lUhbEv5cqgbZG2tGrFuhbnU16IzZojVhrDwwKTX5DEGosBnEey8nvgd8q/sUoJZPt3KaRjB8S/9VEkLPu1/vDYKW5jkTDJMyHgWgJipnTt1KWv4+H8wW47/SD6aNUOSx07a2Qveup/67RAZjZnsoAG37LsKGa/wWpF5btfbFXbIlUGtLlVrchESmZYC9QPs2RBbpbaM3AfSXgLEMmcFOo9sKu2iaYv3xI1LEs8lDi8xS7RjMWDT8oIAccTEM2Y46fIWR1kf7Bg7Reur37+M0LQSytpwsEV9NiFh1GF0oCZE65xP1qcMZThbZFWqn0AzYljjCXTX4zb4/AWsqKSiXj/GO49UK28662EZYmHEDvx7xKfsXjwSRkh4HgCohlz/BQ5p4NW/cFKCnIIX0xmjRePApovCFwwQULzBaEMpk0468O/i+9z/kjHwRX+bZNWKTMlHOg5bW01UyZzJSW3xSsqxUzJRLx9jPQewCsQr2+EZcHrOppmNxZSHGtsZz3rjmMpLXmFgBBwOgHRjDl9hhzUP6v+YFeMPUD3Ovhrg6/NJkh8YSF8xZkje+tjLF9g/boWa58wCELf7K41SHHA12TGGOPGeEWlbBbORLx9jPYegEAGLTHy2Zl6tWqQtymfsXlf74wYg8/OdqUuISAEUkNAhLHUcPZEK5FCTZgH2K9bUcImSHN94c5zsrP01kl4bl5RyZqx1Jgp/cE961V4C0neJ2D1PWA1nxViMIte9I/5OmuLrwNd9NRCGnvvB1F3qbBSt+QRAkLAGQTETOmMeXBFL6yGiUA+aLsSMUFaBYJI/Ms3V2phbPwgf4DYtuj7gf5oVuuMJZ+YKWOh5f68sbwH7Bgt+6e1GeH9tcIvEv5pVv0r7eiL1CEEhEDyCDhOMzZ79myaNGkS9erVS8WJ6kCvv/56wOhxL9Tf/fffH5DPfHHnnXe2KzNkyBBzFjm3QAD+XFihyObG4CK4bw5JkYgJMrjucNe8LdIKU3gLDm2RSs2Y+IyFmyFv3Y/1PZDI6KP5p6HuaNuGJdK+lBUCQiB1BBwnjNXU1NCIESPokUceCUlh8+bNZP578skntaB17rnnhszPN4cOHRpQ7uOPP+ZHcrRIAMIV/L1CJRbQzP5gofLZfY+Fsa+2VOmq65W1sFrFfEIKXqmpb9r8j33GxExpM1iHVpfK90C6/NMcil66JQQ8TcBxZsrTTjuN8BcuVVRUBDx64403aPz48XTAAX6n8YCHpoucnBwKLmt6LKcWCSDkBEwjCGOBX+6cIPhAELMSkoLL2HFErDGkr3fUUEPzPtrb6K+1RG0h01H9JTsV5vrbEM1Yskk7p35+D/zq30upyrRZpN3vAat+Z1bzOYeg9EQICIFgAsn/tgpu0cbrrVu30ttvv03PPPNM1FpXrVqlTZ8FBcqfacwYuvvuu6lvX3s39I3aCY9kwJdRfvZiqlXC2G8mHkTDepfFFJLCTgwwiyKUBr4U1yqBbE+jX0fXo3X1mZ1thaqLt0QSYSwUHe/ew3tg2beV9PAHq+mYAV3pmvEDbX8PpNo/zbuzJSMTAs4n4GphDEJYSUkJnXPOORFJjx49mp5++mkaPHiwNlVOnjyZjj32WFq2bJkuH6pwQ0MD4Y9TZaU/yntTUxPhz0rifHy0UsYNebAXX62KOo907qE9tTC0r6WZ9qVpQeGg8o60cMMeWv7tHkMz1qMk3/I8JcJcbZGpU019Y0raS6Svdpfl1zUf7a7f6fVV1/nVsAerRSSH9y1Vr3973wOH7ldCFaX5hNXBbTroQCrdO+YR8mXqHATSsPeKmfLR3tqltmACzJmPwc8TuU5GnYn0J1RZVwtj8Bf74Q9/SNB2RUpms+fw4cMJwtn+++9PL7/8Ml1++eUhi0JzBqEtOE2fPp2KivwbVAc/C3c9Y8aMcI9ceX+H3h8vh3KzfDT7/enKZy+9wyhogOtjFk2f/wUVtApHTZXbaerUqUnv2KZv/G2vWL1Wtbcm6e05sQGvvb6tMl6xxj/3365fo+Z+tdViMeWbWNGBnqxEO0jmNxrEsw7U1NhAb7z9jvG619nkn60EMvX1bSvEGCpLBu/a2rY4lDF0JaVZXSuMffTRR7Ry5Up66aWXYgbWqVMnGjRoEK1eHf4D9JZbbqEbb7zRqBuasT59+tDJJ59MpaWlxv1IJ5DG8cKaMGEC5ebmRsrqqmcL1+8m+uxT5SBfRKeffmza+757/gb6339XUHNxd9qrhDCkUQcfSBNPGpj0vm36eC1N27iKynv2pokTD0l6e05qwKuvb6uMp724hGjbVjr0kINp4pj9rRaLKd9Elfswtf/qlKkriFcJowKYMLFoZI8yz79X1YsePn+E3is1pspTkBl+pQvU58U2tV9sudJWH75/Z1t3JkjmEDL99Z1MtqHqTiZvtmyFatcp91wrjP3jH/+gUaNG6ZWXscKsrq6mNWvW0EUXXRS2aH5+PuEvOEGoilWwiqdMcLtOut5d57dHlpcWxMwiGeM4qFcnXe2qbTXUpVWJ0LtzcUr6VlKQp9uub/alpL1k8Eu0Tq+9vq3yYFN9WVF+Uuf+OyP3o9OG96a5q7fR9I/m08nHjqYxA8pp6cY9dN7/zaMZX26jxz5aR9efNMhq11OSDzHSEHrDvI8tfDzTsdAnkQFn6us7EWaJlE0Gb9Tp9MT6b8f0E4LS4sWL9R86tXbtWn2+YcMGo4+Qcl955RW64oorjHvmkxNPPJEefvhh49Yvf/lLmjVrFq1bt47mzJlDZ599NmVnZ9MPfvADI4+cWCewvdrvS9e9Y3th1Xot9uUcUuHXVH6rAmFurfObciqUoJiKVJDrt4uKA38qaDurDQ6hkopVuwipMVrF+RvVzaePuD60b2eacvYwDeXP762id7/Yolc4z12zk95YvIlwNK94TiU9DlZrFsTQPgerxXNJQkAItBFwnGZswYIFOlQFd5FNhZdccgk9rZzwkV588UXy+XxhhSlovXbs2KHz4t/GjRt13p07d1L37t1p7NixNG/ePH1uZJITywS2K5MDUndldnBCKivKVY7OBcqMU0/bWzdSTkWMMYy9KM//FqqT7ZCc8FJIaR+wkAWpo1rNm670/cP7qIUrlfT0nHV03Quf6cU0O6pb47uoTqVDExUtWC1+LiVjM/V0zYG0KwTsIJC+T5EwvR83bpwWtMI81revvPJKwl+4BA2YOUF4k2QfgW1qdReSU4Qx9GWQWtHGG4TjOnXCmF8zVqc2K5eUWQQ4xlgqNGORyP7m9INozpod9NXWamowCWIow5qoVG6bFEuwWmybJkkICAEsQZMkBGIkYJgpHaIZQ/eHKGGMU252B+pS5Pfl4nvJOnIE/tpGv5YkWe1Ivc4jkEozZaTRZ6nlzHtqQ4fb4ZAYqdw2yWoQWqv5Io1dngkBrxAQYcwrM5nCcRhmSof4jGHoA1SsMU5lymzEX0J8L1lH3ii8vjXuWrLakXqdRQBuEk4wU4IKNFFYrRgu4b0A3y3kS0WSYLWpoCxteI2ACGNem9EUjIeFsXIVkNIJCc7A901bYXRlR00Tjb33A0qFk3BbBH7RjBkTkAEn2HqrWYVtQCpOwbZbkZBa1TBZzRepLSvPsJl6JDcB+IzBlw35JAkBIeAnIMKYvBJiIrBPfQHt4NWUDjBT8qots9MyBsS+MskWyNrMlOIzFtMLyeWZ2USJYRS3LuJI15CcponCSs/xg7uHxOFf60w6vAXySRICQsBPQIQxeSXERGBPXZOhEehanF7NWLRVWxhYsn1l2EwJTUm6wgjENIGS2RYC1a0bhEMzmm6hAhomaJoiiTap1ESt2lpFry7apDlj31hzgsYslYsJzG3LuRBwMgERxpw8Ow7sG5soO6twEnk56X35xLJqK1koObQF6kdEdEmZQYA1Y+leSQnaEAYRSBUpnEB2/hF9UyI04j1wrQqxgR8nxw3qTotum0B3tvath3Jr+PjXJxA2WZckBIRAIIH0fpsG9kWuXECA/U6cENaC+xINm9V80eoJ9bwgN8vYm1MCv4Yi5M17hjAWpPlJ12gh4EDjFOyrVdD6g+mJj76mZZv2Jr179yrfzRVbqqhrcR498L3hlKvaP2ZAN90uBLR0axGTDkAaEAJxEgjUIcdZiRTLHAKsGXOCMOYEX5kOKqwATJUQxCTWWOa8D4yVlGl23jcTh0A24eCK1tWV9Xr/yuH7ldGPnv6U5quVlJc+9Qn9+6dHU58uRQF5YOYMFpJgcvev0vTXEyqPuW2cf7hiGz31v3X69gPfG6Hbx0VZoX8rmkrl4gCf0yzxFdOM5J8QMBMQYcxMQ86jEjCEMQeEtWBfGTjrhwplAZMNNAXIl8zEwlhtk6yoTCZnJ9VtaMYcJIyBD4Sq4ECqT1xyOJ2v9rBcvrmSzn18DmWrHxDmUBjBUfqx6MXKnpJmgS1facB+89rneoouPbofjR9SbkxXaaswhsWn1SoeX2mB8/cJNDovJ0IgRQREGEsRaK80w8IYNglPd2JfmaueW6R9ZcwCGfvOwJcm+Fe/3f3WKyprSDRjdoN1cH0cfT/dYS2sIILw88yPjqSJf5lN24Mi9KM8rzyGmRMJ7yfzewn3zHmggQslsCFf704FdPNpQ3BqJOzfCmENZsq9KjitCGMGGjkRAgYB8RkzUMiJFQJG9H0HaMbQ33C+MqlctcWxxsRMaeUV5I08bKYscZhmLBzdLsqHK5x7PwQv/P329WV0m/oLFsRQJ9+Dxmzq0s1aYAveBBz5Nu2pp5krt+E0ILGpcq8yVUoSAkKgPQHRjLVnInciEGDNmBN8xrib7Cszd/U2mv7RfDr52NE0ZkB50jVi3H5ha5wpceBnIt4/spnSDZoxzAb8v/iHVLjZCaU1M+eFQAYB7OcvfWYIZ+bnOIdGGgIbfNfMGmkIYzCNwm9MkhAQAu0JiGasPRO5E4GAE4UxdBcf/KOVb9iobj59NH8RRBiOLY8K1YpKpDoJbWELTzdUwsJYR4espozGzM4VxU0trCdr3yoLbMFbL4lmrD0ruSMEzAREGDPTkPOoBNjx10masaidTnIGjjUmZsokg3ZQ9Rz01Qlxxqxgsbry2EpdVvIEC38ijFmhJnkymYAIY5k8+zGOvaG5hdjno7tDfMZiHEJSsrdtiSSrKZMC2IGV1qhVgUhuEcZ45TEvbAlGqlceq6CsFWphTqQ8XYqtrYQMFv54RSV/fgS3L9dCINMJiDCW6a+AGMbP+z/mZnegTioCvyQ/Ad4SqVbMlBnzkuDVlG4RxmC2Dxeln4WvO88YSneeETqSP+eZcuawiFsvIV+orZdEM5Yxbw0ZaJwERBiLE1wmFjP8xZRWDMFOJfkJ8GrKehX4VVJmEODVlG5x4MesWFl5HC3PxOG9ogp1ocLJiGYsM94XMsr4CchqyvjZZVxJQxgrSe8G4U4D32amFGHMaXOTrP6wA3/wRtjJas+uennlcaTo+tHysMAWHBgW4WQgiOF5cGLNWGXrBuvBz+VaCGQ6ARHGMv0VEMP4RRgLDaso1/82EjNlaD5evMsO/G7SjPE8wGQZHKWfn/ExWp5oAhvXw0cWxsRnjInIUQgEEhBhLJCHXEUgIMJYaDiFeX5rv6ymDM3Hi3dZM+YWn7FkzEE0gc3cpghjZhpyLgTaExCfsfZM5E4YAtur6/UTWUkZCIiDvoowFsjFq1c+n49EGIttdlkYk6CvsXGT3JlDQISxzJnrhEe6rbJB1yExxgJRFqm995DETBnIxatX9U37CJteI7kl6Ku/t+n7z8KYmCnTNwfSsrMJiDDm7PlxVO94OxURxgKnhVdT1rXGngp8KldeI1DV4N/SBwuKWRD32hjtHo9ZGINmUZIQEAKBBEQYC+QhVxEItPmMFUTIlXmPCvJaNWMS2iIjJr+mwb9qtljtSZqlnOElRSfAwliLUinWyPskOjDJkXEERBjLuCmPb8D4NcvCWLmEtgiAyNoR2ZsyAItnL3glZSY778c6uQVq/9a8bP/XjZgqY6Un+TOBgAhjmTDLNoyxqqGZGpr36Zq6yVZIAURlb8oAHJ6/YOf94ny/RtTzA7ZhgAgSXVroX7y/t9Zv5rWhWqlCCHiGgAhjnpnK5A6EtWIl+TnEQU6T26J7aufQFrVifnHPpCXQUxbGOhbIlmCxYJQo/LHQkryZRkCEsUyb8TjHy8KYOO+3B2iEtpC9KdvD8eCd6lYH/o6iGYtpdtlvTMyUMWGTzBlCQISxDJnoRIe5rcof1qKb+Iu1Q8k+Y43KjAsHZUneJlDd6sAvPmOxzTMLY5X1YqaMjZzkzgQCIoxlwizbMEbRjIWHaDbb1kp4i/CgPPKEHfjduBVSOqfAEMbqRBhL5zxI284kIMKYM+fFcb1iYUxWUrafmvycLELMKSSJwu/n4OX/NWoxCxL8JyVZJ8DCmJgprTOTnJlDwHHC2OzZs2nSpEnUq1cv9QXXgV5//fWA2bj00kv1fTzjv1NPPTUgT6iLRx55hPr160cFBQU0evRo+uSTT0Jlk3thCLAwJj5j7QHhdcimSglv0Z6P1+60OfCLMBbL3IowFgstyZtpBBwnjNXU1NCIESMIwlO4BOFr8+bNxt8LL7wQLqu+/9JLL9GNN95Id9xxBy1atEjXf8opp9C2bdsilpOHbQSM6PsS1qINiumMnfhlRaUJikdPWRgTM2VsEyzCWGy8JHdmEXDcT7vTTjuN8Bcp5efnU0VFRaQsAc8efPBB+vGPf0yXXXaZvv/444/T22+/TU8++STdfPPNAXnlIjQB0YyF5sJ3JbwFk/D+kX3GxEwZ21xLaIvYeEnuzCLgOGHMCv6ZM2dSeXk5de7cmU444QSaMmUKde3aNWTRxsZGWrhwId1yyy3G86ysLDrppJNo7ty5xr3gk4aGBsIfp8rKSn3a1NRE+LOSOB8frZRxap7tVfW6a50Lsy2PP9VjYc58TGX7hTn+AKBVdQ2O5WM3D+bMR7vrd2p9Va2rAQtyOqR0rpkzH53KJ1y/Oqoo/Eh7ahtTyi1cf6LdZ858jJZfnidGgDnzMbHaAksno87AFhK/cp0wBhPlOeecQ/3796c1a9bQrbfeqjVpEKyys9tHxN6xYwe1tLRQjx49AmjhesWKFQH3zBd33303TZ482XxLn0+fPp2Kiora3Y90Y98wiPsAAEAASURBVMaMGZEeO/5Zi4rWsLMabDvQ0vkf07o8Z3c5Hbwbav18Pp77Ce1dmVnhLdLBO52vwI1b/XO9ctkSmvrt4pR3xa28V+8Fqhz6dvsemjp1asq5xdugW3nHO950l0sG79ra2nQPK2r7rhPGzj//fGNQhxxyCA0fPpwOPPBAgrbsxBNPNJ4legJNGvzMOEEz1qdPHzr55JOptLSUb0c8QhrHC2vChAmUm+veaN2IMeabN4uwJ/L3zjiNsh26OXI6eb+4dQGtr95FBw8fSROH94z4uvDKw3TyTifDh1b/j6i6ho47+kgac0BojXwy+ud23iu2VNFfl8+llux8mjhxXDIQ2Vqn23nbCiMFlSWTN1u2UjCMuJtwnTAWPNIDDjiAunXrRqtXrw4pjOEZNGZbt24NKIrrSH5n8EvDX3CCUBWrYBVPmeB203m9u87/q6Krct4vyHe4WkyBSgdv3p8SOyLF+vpI59za0XY6eNvR73jr4EUanYoL0jLXbuXdpaRQI0fQ15ycHL0aPt45SGU5t/JOJSM720oGb9Tp9OS41ZSxAtu4cSPt3LmTevYMrY3Iy8ujUaNG0fvvv29UvW/fPn09ZswY456chCcgKynDs+EnHPhVQlswEe8e2YFfIvDHNse8mrJJ+T3I+yQ2dpLb+wQcJ4xVV1fT4sWL9R/wr127Vp9v2LCB8OxXv/oVzZs3j9atW6cFqjPPPJMGDBhACFXBCebKhx9+mC+1ufGJJ56gZ555hr788ku66qqrCCE0eHWlkVFOQhKQlZQhsQTcLMqDHxERa00CHsqFZwj4fD6qbt1lQYSx2Ka1WL1H2MWhss4fODe2GiS3EPAuAceZKRcsWEDjx483iLPf1iWXXEKPPfYYLV26VAtVe/bs0YFh4cP1+9//PsCkCMd+OO5zOu+882j79u10++2305YtW2jkyJE0bdq0dk79nF+OgQREGAvkEeqKzZQSgT8UHe/cg7Ct5DGdOhY47uPT0aARHBnasV01jYQo/BVlBY7ur3ROCKSSgOM+TcaNG6c+7MKvRnv33Xej8oHWLDhdc801hD9JsRMQYSw6s4Jc0YxFp+T+HLwVEtawFLbOuftHlboRmIWx1LUqLQkB5xNwnJnS+cgyr4eGMCbR98NOPpspxRcmLCJPPKhq3ZcS0feh6ZEUGwEJ/BobL8mdOQREGMucuY57pIYwVtJ+dWnclXqsoCGMtfoTeWx4MpxWAqwZE3+x+F4S7MQvm4XHx09KeZeACGPenVvbRsarKctFGAvLVMyUYdF46oGspExsOkUYS4yflPYuARHGvDu3to1MNGPRURqasSYVaEySZwmYzZSeHWQSB1ZW6HdTFs1YEiFL1a4kIMKYK6ctdZ2uVWa36lY/me6iGQsL3hDGEPVVkmcJsJmyRFZSxjXHrBmrVKspJQkBIdBGQISxNhZyFoLAjqpGfbdAbfIrfjIhALXeKszz/+KXOGPhGXnhCf8wkfdCfLPJwphoxuLjJ6W8S0CEMe/OrS0j215dr+uBVkxWj4VHymEOZDVleEZeeMLCGFZTSoqdQGmBf1saEcZiZyclvE1AhDFvz2/CozP8xSSsRUSWYqaMiMczD8WBP7GpFM1YYvyktHcJiDDm3bm1ZWTbqhp0PeIvFhkn700JHztJ3iXAPmNipoxvjkUYi4+blPI+ARHGvD/HCY3Q0IyJ835EjoZmTFZTRuTk9oe8mlK2QopvJjnoqzjwx8dPSnmXgAhj3p1bW0bGwlh5iewjFwko+4w1tfioqWVfpKzyzMUE2EwpPmPxTaJoxuLjJqW8T0CEMe/PcUIjZGFMzJSRMbKZErnEiT8yKzc/rWk1Q5eIA39c01hW5Hfgb2jeR/WiRY6LoRTyJgFbhbHGxkZauXIlNTeL34xXXi4cfb+7OPBHnNK87CzKxu7RKtVJrLGIrNz8kDVj4jMW3yx2VCFgWt8mJKbK+BhKKW8SsEUYq62tpcsvv5yKiopo6NChtGHDBk3r2muvpXvuuceb5DJkVKIZszbRCPvBpkqJNWaNmRtzSWiLxGYtS0li7Dcm4S0SYymlvUXAFmHslltuoSVLltDMmTOpoKDNt+ikk06il156yVvEMmg0+/b5aEe1rKa0OuVsqpQVlVaJuS8fC2MSgT/+uRO/sfjZSUnvErAlcuHrr7+uha6jjjoqIDAotGRr1qzxLj2Pj2yP2rIEDulIXTvmeXy0iQ+PV1SKL0ziLJ1aQ02Df7srceCPf4ZEGIufnZT0LgFbNGPbt2+n8vLydpRqamoChLN2GeSGowmwibKTcrrNz8l2dF+d0DkxUzphFpLXB2iKWTMmPmPxcxZhLH52UtK7BGwRxg4//HB6++23DUq8bc7f//53GjNmjHFfTtxFgIWxcokxZmni2syUslm4JWAuy1RrWv0nwlj8kyc+Y/Gzk5LeJWCLmfIPf/gDnXbaabR8+XK9kvIvf/mLPp8zZw7NmjXLu/Q8PjLzvpQeH6otwxMzpS0YHVsJr6TEqtmCXFt+xzp2rMnsmOxPmUy6UrdbCdjyiTJ27FhavHixFsQOOeQQmj59ujZbzp07l0aNGuVWNhnfb9aMSVgLay+Fwlz/bxtZTWmNl9tyVTc06S4X52WL+0UCkydmygTgSVHPErBFMwY6Bx54ID3xxBOeBZWJAzOEMTFTWpp+1oyJMGYJl+syVbc675cU+AOXum4ADukwC2OVdRKP0iFTIt1wAAFbhDGOKxZuPH379g33SO47mIAIY7FNDjvw18lm4bGBc0luNlOKv1hiE8bCmMQZS4yjlPYWAVuEsX79+kVU27e0iEOzG18226okxlgs88YO/LIdUizU3JOXV1IW58vK4kRmjYUxicCfCEUp6zUCtghjn332WQCXpqYmwr0HH3yQ7rrrroBncuEeAoZmrGNbIF/39D71PRUzZeqZp7JFFsY6ipkyIewsjIlmLCGMUthjBGwRxkaMGNEOC8Jd9OrVi+6//34655xz2j2XG84nwPtSlpfmO7+zDuhhm5lSNMEOmA7bu1DT4Pdx6iiasYTYijCWED4p7FECtqymDMdm8ODB9Omnn4Z7LPcdTKChuYX21PpXj8lqSmsTxWZKceC3xsttuQzNWL4tv2HdNnzb+ivCmG0opSIPEbDlU6WysjIAic/no82bN9Odd95JAwcODHgmF+4gsLO6UXc0N7sD8YenO3qevl4W5fnfTuIzlr45SGbLLIzJVkiJUebPE7xPGpv3UV5OUnUCiXVWSguBFBGwRRjr1KlTOwd+CGR9+vShF198MUVDkWbsJMD+Yt065lOWCnIpKToB9hmraxQzZXRa7svBqylLRDOW0ORhk/UO6iNFfUUQ/Ma6S+ichHhKYW8QsEUY+/DDDwNoZGVlUffu3WnAgAGUk2NLEwH1y0XyCbAwJh+U1lkX5PpX2dVKaAvr0FyUkzVjHZUwISl+AvhxB4G2sr5ZhLH4MUpJjxGw5VPl+OOP9xgWGY4R1kJpxiRZI2Boxpr2WSsguVxFgIUxMVMmPm3Yn5KFscRrkxqEgPsJxC2Mvfnmm5ZHf8YZZ1jOO3v2bL0Cc+HChdrv7LXXXqOzzjpLl0fIjNtuu42mTp1KX3/9NZWVldFJJ51E99xzj165Ga4R+K5Nnjw54DEWF6xYsSLgnly0ERDNWBsLq2eGMCaaMavIXJWPzZQS9DXxaYPf2MbddSSxxhJnKTV4g0DcwhgLSNEwdFDOAbEEfa2pqSGEyvjRj37ULiRGbW0tLVq0iH7729/qPLt376af//znBGFvwYIFEbsydOhQeu+994w8Yj41UIQ84U3Cy8WfIySfUDdlNWUoKt65V9MqZIswlvicshN/Zb1/xXbiNUoNQsDdBOIWxvbtS44p5rTTTiP8hUrQhM2YMSPg0cMPP0xHHnkkYUumSNsuQfiqqKgIKCsX4QmIZiw8m3BPJM5YODLeuC+aMfvmkYUxCfxqH1Opyd0E4hbGnDLsvXv36pWcWNEZKa1atUqbMgsKCmjMmDF09913RxTeGhoaCH+cOHwHTKX4s5I4Hx+tlHFKnm2V9bornQtzLI833X1nznxMdX9ys9TyMJWwZD9dfUjlmHmMfExl2+loi33GEPM1HWPmNvmYDgZ2tVnSGjh3V3VDWlhaGQdz5qOVMpInfgLMmY/x19S+ZDLqbN9KYnc6qBAU/m+QxOohmBdnzZqlNVSNjf4YVVzlddddx6cxHWHiNPuMBReur6+nY445hoYMGUL/+te/gh8b1++88w5VV1cT/MQQ/wz+Y5s2baJly5ZRSUmJkc98EsrPDM+ff/55KioqMmf15PnvFmXTzoYOdP2wZuofGpEnx53IoGpVgPZbPvX/vvnj6GaS8EmJ0HRe2V/Nz6bGfR3ot4c2UzfZISyhCXpjfRZ98G0Wjeu5j87ulxwrS0IdlMKeIgAXpwsuuICgvCktLXXk2GwRxrAP5cSJEwkDhlDWpUsX2rFjhxZaysvLtbN9PKOPJIxB0j333HNp48aNNHPmzJgA79mzh/bff3+9d+bll18esmuhNGOIm4ZxWZ1M9BFm1QkTJlBubm7Idpx4E/L58N+/T/VqVeD7N4ylvl3cIXymmzcCWA6d7PdLXHDreM8Hy00371S+d1r2+WjIHX4XiXm/Pp66pmGVsZd4Pz7ra/rje6vp3MN60T1nD0vlVFpuy0u8LQ86jRmTyRuWrW7dujlaGLPFTHnDDTfQpEmT6PHHH9crHOfNm6eFjwsvvFA72Ns9v5i073//+7R+/Xr64IMPLAtH3A+YNAcNGkSrV6/mW+2O+fn5hL/gBKEqVsEqnjLB7abyGk61EMSQenYuVuO15WWSsiGkizfk7RwVQ6lZfXE3+TrE/DpJGSCbG0oXb5uHEbG6OpOjeaeOhWpu/THlIhZK0kMv8O7c0a9arKpvcfz7xAu8k/RSTEq1yeCNOp2ebNmHYvHixfSLX/xCRWrPouzsbO1rBS3SfffdR7feequtDFgQgw8YVkd27do15vphslyzZg317Nkz5rKZUICd97FqjLf4yYRx2zFGXlEpUfjtoOmcOth5H9uD5Yv9OeGJEQf+hBFKBR4jYIswBqkTghgSzJJY2YiE1Y/ffPONPrf6D4IShDv8Ia1du1afo04IYt/97nd1GAv4iCFkxpYtW/Sf2U/txBNPJKyy5PTLX/5S+7OtW7eO5syZQ2effbYWGn/wgx9wFjm2EoA5ZubKbfoKUbJxLck6AY41JpuFW2fmhpw1DcohUCUEfIX7hKTECIgwlhg/Ke09ArbYnw499FD69NNP9abgiMZ/++23a9+qf/7znzRsWGz+AIgXNn78eIP0jTfeqM8vueQSglM9B5sdOXKkkQcn2JJp3Lhx+h60XvDt4gS/MgheO3fu1Ns0jR07lmBKxZZNktoITFumFje8tZw27/WvpNysVlSOvfcDumPSwXTqMNEitpEKf2aEt1ArKiV5h0BVqzAmMcbsmVMWxiToqz08pRb3E7BFGPvDH/5AVVVVmsZdd91FF198MV111VVaOHvyySdjogSBKtICz0jPuCFowMxJNis30wh9DkHsqucWUbAebIsSzHD/sQsPE4EsNLqAu4V5/reUmCkDsLj+gjVjIozZM5UsjEmcMXt4Si3uJ2CLMHb44YcbJGCmnDZtmnEtJ84nAFMkNGLBghh6jnswyuD5hIMrKFs5qEsKT0DMlOHZuPkJ+4yJMGbPLGJvSqSaRhWTr2Uf5Wb73VzsqV1qEQLuI2DLO2DKlCnat8t9w5ceg8Ana3cZpslQRCCQwXSJfJIiE2BhrK7J72MUObc8dQsBDvgqm4TbM2OlBW16ADFV2sNUanE3AVuEsVdeeYUGDBhARx99ND366KMB/lruxpMZvd9W5fcRizZaq/mi1ePl5wWtIQ/Egd9bs8zCWEeTEOGtEaZ2NDlKE8Zaxsp6+eGSWvrSmhMJ2CKMLVmyhJYuXaod6B944AG97dDpp5+uo9UjEKwkZxMoL7EWTtxqPmePNrm9MzRjyvwiyTsE2GcMK4wl2UNA/Mbs4Si1eIOALcIYUAwdOpTgyP/111/rlY39+vWj66+/XjbndsHr5Mj+XahnWYH2DQvVXXiJ4TnySYpMQISxyHzc+pRXU4qZ0r4ZZL8xceK3j6nU5F4CtgljZgTFxcVUWFhIeXl5jt0E1tzfTD+HUz7CVyAFu+fzNZ6L8370V4phppTQFtFhuSiHOPDbP1llhX4towhj9rOVGt1HwDZhDMFZEdYCGjKsrsR+ldiQG0FZJTmfAOKIIXxFhdKAmROuJayFmUjkc9GMRebj1qdspmQ/J7eOw0n9FjOlk2ZD+pJuArY4QBx11FE66Ovw4cPpsssu0wFWe/fune6xSfsxEoBAduzA7jT0jnd1yScvOZyOH1wuGrEYOPL2URJnLAZoLsgqDvz2TxILY7Ka0n62UqP7CNgijGH7IQR3Pfhgv6nLfRikx0ygqnVlE0yS44eUy9YvDMbikSPw14qZ0iIxd2RjYUx8xuybLxbGxExpH1Opyb0EbBHGYJ6U5A0C/MGIOECyB1/sc9q2Ubgs14+dnnNLsDAmqyntmyNDGKttsq9SqUkIuJSAbT5jLh2/dDuIAAtj/EEZ9FguoxAwfMZEMxaFlLse1zT4Q5WIZsy+eePPGP7Msa9mqUkIuI+ACGPum7Ok9pg/GPmDMqmNebByw0wpccY8NbtsvhcHfvumVUJb2MdSanI/ARHG3D+Hto7AEMaK8mytN1MqEwd+b840r6YskQj8tk2wCGO2oZSKPEBAhDEPTKKdQzCEsdaNfO2sOxPqKszzv6VkOyTvzHaz2si6rtXsLGZK++aVte+V9eIzZh9VqcmtBGxx4D/uuOP0VkjHH388HXPMMVRQEBiryq1wMrHfe2sb9bA5IGMmMkhkzIW5/rcUf3knUpeUdQYB9hdDb4rzs53RKQ/0goUx/gHogSHJEIRA3ARs0YydfPLJNG/ePDrzzDOpU6dONHbsWLrttttoxowZJHtTxj03aSnIH4z8QZmWTri4UcOBX3zGXDyLgV2vbvSvjM1Tm1vn54gwFkgn/iv+jIE/Xss+X/wVSUkh4AECtmjGIHghNTc36+Cvs2bNopkzZ9J9991HWVlZVF9f7wFUmTEEEcYSm2cObVGrvsB9Pp+EB0kMpyNKG1shib+YrfPBwhgqrVKmyk7ip2orX6nMXQRs0YzxkLFJ+Oeff05LliyhpUuXUklJCZ122mn8WI4uICDCWGKTxMIYfug3NO9LrDIp7QgCHGNMTJT2Tkeu0jSyJpk/d+xtQWoTAu4hYItm7IILLiBowxoaGgj+Y/Adu/nmmwnbI0ngUPe8GNBT/lAsK5TVlPHMXFFumxmrXjl988bh8dQlZZxBgIWxjvm5zuiQh3oB7RgWu/DnjoeGJkMRAjERsEUYe/HFF6lbt250xRVX0AknnKB9xoqKimLqiGR2BgH+UDSbEJzRM3f0Ikf92odvUaNagYcvmU7yNnDHxEXopRHWIt+Wj8sILWXeI3zObN5bL8JY5k29jDiIgC1myp07d9Lf//53amxspFtuuUULZkcffTTdeuutNH369KAm5dLJBEQYS3x2CnIlvEXiFJ1TA/uMiZnS/jmRWGP2M5Ua3UnAFmGsc+fOdMYZZ9CDDz5ICxcu1P5igwYNovvvv198xlz0uoDDuSGMFYlJJt6p48CvMFNKcj8Bw0xZIO8Ju2eTNfD8uWN3/VKfEHALAVv07tCM8QpKrKJcvny5DnExadIk7T/mFhiZ3k/Exmpq8S8x5w/JTGcSz/jZKVkCv8ZDz3llDGFMYozZPjn8OSPCmO1opUKXEbBFGCsvL9emyWOPPZZ+/OMf6wCwhxxyiMtQSHf5AzE7qwMV57U5oguZ2AjwikqEt5DkfgJtwpgtH5fuB2LjCEpbtY382WNj1VKVEHAVAVs+XRDGYujQoa4auHS2PQH+QOyknGplFWx7Plbv8GbhdRL41SoyR+djYUy2QrJ/mlgzVlknP1zspys1uomALT5jIoi5acrD93VvrX+POP6ADJ9TnkQiwJox2RIpEiX3PGMH/o6ymtL2SeNt1yrrZH9K2+FKha4iYItmDCP+97//TS+//DJt2LBBr6o0U1i0aJH5Us4dSmBP6wcir3ByaDcd3y3xGXP8FMXUQQ5tIcJYTNgsZS5rXSjEWnlLhSSTEPAgAVs0Yw899BBddtll1KNHD/rss8/oyCOPpK5duxIi8ksEfve8avgDUTRjic2ZmCkT4+e00lUNfhNaR9kOyfap4c8a/uyxvQGpUAi4hIAtwtijjz5Kf/vb3+ivf/0r5eXl0U033aQ3Cb/uuuto7969LkEh3WRTAX9ACpH4CBTm+RXOspoyPn5OKyWaseTNCH/WiDCWPMZSszsI2CKMwTSJIK9IhYWFVFVVpc8vuugieuGFF/S5/HM+Af5A5A9I5/fYmT1kM6X4jDlzfmLtFTvwi5kyVnLR8/NnDX/2RC8hOYSANwkkJIx9++23mkpFRQXt2rVLn/ft25fmzZunz9euXUsIJBpLmj17NiE+Wa9evfSKvtdffz2gOOq7/fbbqWfPnlrwO+mkk2jVqlUBeUJdPPLII9SvXz8qKCig0aNH0yeffBIqW0bf4w/EThLwNaHXgSGMSWiLhDg6pbDhwC9mStunhP1TK+ubaN++2L4rbO+MVCgE0kggIWFs2LBh9K9//UvvR/nmm2/qYcB37IYbbqAJEybQeeedR2effXZMw6upqaERI0YQhKdQ6b777iP4qD3++OM0f/58Ki4uplNOOYXq6+tDZdf3XnrpJbrxxhvpjjvuICwmQP0os23btrBlMvEBC2P8azUTGdgxZt4cXMyUdtBMfx2sGStuNT+nv0fe6QF/1uA3O/vmeWd0MhIhYJ1AQqspp0yZQj/96U/p5JNPpnvvvVe3evXVV2vn/Tlz5ugtkn7yk59Y743KCYf/cE7/0Ir9+c9/pttuu43OPPNMXe+zzz6rFw5Ag3b++eeHbAvbNCEYLQRFJAhyb7/9Nj355JN08803hyyTiTf3tIa24F+rmcjAjjEbmjEL2yG1KG3AJ2t30baqeiovKaAj+3chBN2V5AwCTWrD94bmfbozJaIZs31S8nOyCXu51jftI/issnBme0NSoRBwOIGEhLGf/exnWnC6/PLLddDXJ554QpsYIRSFE4wS4QGz55YtWwimSU5lZWXa7Dh37tyQbWLzcuyXiQ3MOWVlZek6UCZcamhoIPxxqqys1KdNTU2EPyuJ8/HRSpl05tlT26ib76g+HN3SZzMv7jMfzc9Sec675tQ0RH6tvPvFVpoydQVtqWx7nVWU5tNtE4fQKUN7pLLLcbXFnPkYVyUOL8Q/UNDNvCxfWt8XzJmPDkdnuXtlKgp/fVMD7ayqo4oS5+z/yZz5aHlAkjEuAsyZj3FVEqZQMuoM01TctxMSxtBq//796YMPPqCHH36YzjnnHDrooIMoJyewWrvijEEQQ0IIDXPCNT8z38f5jh07qKWlJWSZFStWBGc3ru+++26aPHmycc0n06dPp6KiIr60dJwxY4alfOnOtHkHtkDqQF8uWUBN69Ldm/jbTzfvFTug2cqmjZu30dSpU0MOZMnODvTkV+wl0KYJ21JZT9e8uJh+NGgfjejqDh+adPMOCdimmzu190MO5Xbw0Yx3p9lUa2LVeI13h2b/5870Wf+j9WXOe817jXdir77kl04G79ra2uR3PMEWAqWmOCtbv349vfrqq9S5c2dtPgwWxuKsNq3FoEmDnxknaMb69OmjTbKlpaV8O+IR0jheWPCfy811zi++cJ2evPRD9aiJTh5/LA2pKAmXzbH3ncI7/8tt9OyqxVRY2okmTjyqHS+YJu/+42x1v00j1papgxKHid7ZWkQ3/fA4R5ssncK7jZ39Zyu3qJXhn82l0qJ8NZfj7G8ghhq9yvvZTZ/Qlg176KDhh9GpDtIIe5V3DC+5lGZNJm+2bKV0QDE2lrAwBtPkL37xC232++KLL6h79+4xdsF6dqzaRNq6dateTcklcT1y5Ei+DDh269aNsrOzdRnzA5Th+sz3+Tw/P5/wF5wgVMUqWMVTJrjdZF/DH4/3h+tWWhjzGJPdv1jqTzfvEvXFjdTQ5AvJccGanQGmyeCxQTeweW8DfbaxisYc2DX4seOu0807mUDqW/y1I+BrrO/7ZPXLa7w7FeVpVDWN+xzD2Dx3XuNtHpsTz5PB2ynv3Ui82U4SKU/YZ6eeeir9+te/1iZKaMaSKYihEzCJQoB6//33jT5B4sWqyjFjxhj3zCcIQjtq1KiAMvv27dPX4cqYy2fKOVb+NbcuLRcn2sRmnfemrG0KvfkxnPWtJKv5rNQleeIjwCspJcZYfPyslOLPG17NbaWM5BECXiOQkGYMvlhLly6l/fbbzzYu1dXVtHr1aqM+OO0vXryYunTpQohhdv311xNWcQ4cOFALZ7/97W91TLKzzjrLKHPiiSfqkBrXXHONvgdz4yWXXEKHH3643qoJKzIRQoNXVxoFM/iE96XMze5AvJ1PBuNIaOjMr04JuKESVk1aSVbzWalL8sRHgIWxYtkkPD6AFkrx6m0RxizAkiyeJZCQMJYMR7sFCxbQ+PHjDeDstwVh6umnn9ZbLUGQuvLKK2nPnj00duxYmjZtmg7myoXWrFmjHff5GvHOtm/froPFwtEfJk2UCV4IwPkz8bi3NawFfqV26NDmUJ6JLBIdM4e2CBdnDOErepYV0Ja99RTKXRn0K9Rz5JOUXgIc8LVEhLGkTYRoxpKGVip2EYGEhLFkjHPcuHERo/ZDUPjd736n/8K1v27dunaPoCVjTVm7h3KD+Fcp/0oVJPETYDMltkOCL16wcIs4YndMOpiuem5R2EbwXOKNhcWTsgeiGUs+ahHGks9YWnA+gYR8xpw/POmhVQIsjHVSmjFJiREoao3UjqjiHDA0uMZTh/Wkxy48jEJtPXXnGUMJzyWlnwALY3Dgl5QcAiKMJYer1OouAiKMuWu+ktZbRL9G4g/GpDWUARWzzxiGGs5UiWcQuC47uh9O6Yh+nWlknzJ9vlmZLyU5g0BNg38RhjjwJ28++DOHP4OS15LULAScS0CEMefOTUp7xpox/mBMaeMeawzmxbwc/1urNspm4Wu21+jRjx9STj89foA+//fCjYRteCSln4ChGROfsaRNRlmRXxvPn0HhGkJ8vrkqLMwbizfpI66Dk5U8wWXkWgg4gYDo3p0wCw7ow546/1ZIIozZMxlw4m9UexrWR9mfcvW2at3gwPISGje4O3XrmE87qhvofRU49tRh/rh69vRIaomHQHWDf0WsaMbioWetDH/mRBLGpi3bTJPfWq7i77VpjbEIBr6VbNK3ksdajySXEEg9AdGMpZ65I1vkD0L+YHRkJ13UKTZVRjJT4lf8mu1+YWxAeUfKzc6i747yh4l56dMNLhqtd7taXe8334swlrw55s+cyvrmkIu3IGRhsYtZEENvsBoZ9/HcSp7kjUBqFgKJExBhLHGGnqhhb53fN0ZWU9oznbyiMpIwtml3nXbwh0mzT+dC3fB5R/TRx1lfbadv99TZ0xmpJW4CNawZEwf+uBlGK1iqNgpHwo8TNgtzGdyDRqy9QZKMe3e++QXhL1Ie1IG6JAkBpxIQYcypM5PifrFmjLcmSXHznmuOY40hvEW4tHq72vdQpQO6FVOO0ooh9VfnRx3QhfC98cqCjfqe/EsfgapWB34J+pq8OSjIzaK81tc/tGPm9MnaXe00YubnEK+2VDZY2F6snlCXJCHgVAIijDl1ZlLcLxbG2GSQ4uY911xRrt8dM1wUfgx41dY2E6UZwPlH9NWXLy/4Rn7Nm8Gk4by6QcyUycaOOHyskefg09ymnVuC2VkX90+OQsAuAiKM2UXS5fXwsnIRxuyZyALlwI8UyUzJzvvwFzMnOO6XKrPYJmWm/Hj1DvMjOU8xAcNMKaspk0q+rND/44V/FHJjdm4JZmdd3D85CgG7CIgwZhdJl9ezp1ZWU9o5hUW5fmGsLkJoi1WmlZTmtgtU2XMOE0d+M5N0nfN2SBL0NbkzwD8CzcIYdq/47JvdERvWW4eV5lNFaQGF28QN97HyUrYXi4hSHqaZgAhjaZ4AJzSPDz321eAPRSf0y819iOYzBuZrWoWxYM0Yxs2O/DOWb9WhLtzMwq19b2huocbWeG+ymjK5swhNMNKsr7bpGGIIC3OHcsq/b9pKo+FgYYuvsWPFnWccrPPxPaNQ64lsLxZMRK6dRsD/DnBar6Q/KSWAFUy80kiEMXvQR1tNuVU5HcM5HAFi+3UratfoQT1LacR+ZbRk4156ddFGuvK4A9vlkRvJJcAmSrRS3Gp2Tm6LmVk7wlLMa3Wuf+GTbwh/+WqFMbYSU+5k9JuJB9F+arVxcJyxiqA4Y9heLDgPfhQ9+P0RRiyyzCQso3YDARHG3DBLSe4jmwYQYgErmyQlToDjjIVz4Gd/sf27FKkvHr9JM7jV84/sq4Sxz+nFT7+hHx97QLsNx4Pzy7W9BHgrJMwlr3a1twWpjeODBQed4D1drxjbn65Qr32kCQdX6BWRcMSH/xfMjvgxwwnBXznPTKVh+79ZX2sh+mRVTpIQcDoB+eZ1+gyloH8sjEErhpVNkhInwGbKcA78q7b5w1qEMlFy65NG9CLU87XaMunTdZF9Z7iMHO0jUNUaZkHCWtjH1FxTpBhinO+/SzcbWnsIXmMO7Epnjuytj2ZBjPNznhsnDKIStehie3Wj8jvbw49dfQSvaNtBuXqAGd550Yxl+AsAwzcLY4LDHgKFef63Vrg4Y6wZiySMwU9p0vBe9JIKcfGiisgfzQEZH9aIpRROc2DPyDKnlprWxRclEvA1KZMeLYYYGkXUfeSDEBZLgrYZ+72+ueRbmv7FFhq1f+dYitua1473JTSIwSbY4O2gbO20VJZyAiKMpRy58xrk2D7iL2bf3BS2mnvDmSmNlZQ9AsNaBPfgvCP7aGHs7aXf0sRDehJMZ6FMNPJhHUwu8WteSVmcH9qMnHgLmV2D1bhfVvMF00SIGAhj05QwdvNpQ9Ki9bfjfRnOlMvbQcFXjvfntEPwC+Yo16khIMJYajg7uhXRjNk/PUWtmrHaMKEtjJWU3UsiNn5on056WT40BFc8s8DIa/5VHMuHtVGBnEQlwNH3ZSVlVFRxZbAa98tqvuBOHD+oO8EPdv3OWlq5tYqGVJQGZ0nqtR3vSwhX0IgF+9Sh47gHpxI8h6/cjOVbRHsGMC5N4jPm0omzs9sijNlJ018Xr6YMZabcVdNIO9Uf0oHlxf4CYf6/q37VB2+QjKz8q3iq0phF+rBGXjzHh7qk2AiwA78IY7Fxs5obZnf8qAjnpYr7icQHg6/fcQO76+5MW7bFardsyRdNiEIjVt6X0Uy5eFfj8+GBd1dE3UzdloFJJUkjIMJY0tC6p2IRxuyfK3bgD2WmZH+x3p0KlYN+eOU0f6CH6h0+hPH3y1eWhBTWuAx/WONDXVJsBNhMKcJYbNys5oazPeJ/IQULZHydaHywU4b20PWnWhizKkRFe19aNdE+plaO4r0enPieFcEvuKxcp5aACGOp5e3I1kQYs39aOLRFqNWUVlZSokfRPtCRp7ZpHw5Rk9UP9agVZVAGxN9Dkuj7yZt0+DrB5wkxw8wJ12ZfKPOzWM5POqiHDn+xYkuVMlfWxFI0obxW32+cDz+8Qq2U3F7VkFA/UFh+kCWMMCUVhP9ZnpLmpREnEBBhzP5ZYDNlKGGMNWMDg/akDO4Ff1AH34/nOl6/m3ja8koZFsYktEVyZ9QcHwyv+VALVOLtQefiPBqtzKFz1uwkmPytBk+GcDRfaZMX7uhAXbGac0B5QEyzaP2x+n5bqYRELM6Z8vaXARru7iX51EcFul20IXJYDmgQsfBqT51/Q/tI/bLz8yRSO/IsPgIijMXHzVOlRBizfzrZ/Fjf1NKuchbGIoW1QCGrH+hd1BfObuWDxiYJc4P4sIaWIVpYDHMZOfcTYJ8xxKuSlFwCHB8sGa1gVaVfGNtqSRgLXAGZTc+uWqB912Ay5VWL0fqJ91u5Eqi2RdFsPTpzTciqoBHDH96/x6mFCLO/2q7zmd/jbMq97Jh+9Kf3VoWsx3zT6ueJuYycp46AmClTx9qxLYkwZv/UsM9YRM1YlLAWVh2cp5w5TA+AP5x5NHwdq99NOJMJ15spR15NKZoxd884R+BfuH43bausjzgYXgEZvGiGF8zguZUE4XL/ru23OUNZvC/xd+aInnq7J9wLl7p2zKcnLz0ioin3mhMGJnUhRLi+yX17CchPPnt5urI2FsY6FeW6sv9O7HSB2kIHCasp9ymTR1brti1V9U2GOWJAlLAW7OB81XOL9Id3qF/F/Gv9saz2+/IF791nhVOgVsBfwhxGw0odXsnDmjFx4Hf3jOJ9MFKFiFmsIvFPX76VLjxq/5AD4gUz5vcZZ8Q9CFBwhEcYCbw3I6X3v9yqd81ALmiuefU0yvD7sqwwj95YElm421HdoH1Ho5ly8TkQ6nOC+xjrDzIuJ8fUERDNWOpYO7YlFsYk6Kt9U8SaMdRY39xmqlyjtjZCgk9ImQXh16qDM/J9/OsT6J8/OpJys/1fFH+/5HDLZhX0yS6tAOryQpLVlF6YRf8YYKpEgt9YuBRtwQwEMmjMoq2ArFQ/uH7z2jLdzJXHHUCf/OYkeuHHR9Ffzh+pj3if4v1q1YeL87EpN9R2UOE+J7oqQdCOhRDhmMl9+wiIZsw+lq6sCVqbylbnTxHG7JtCXk2JGhHegn3IDH+x7pEj75t7gg9a3gA5koMzPqyPVf4lYw7spn1M5n+9i4b2KjNXFfbcTq1A2EZc9oAd+GU1pcsmLkR3TxlaQfe8s0KvWMSOI6F+CLHQE6J4wK1o+dDOFmUO7afMlNefNEhr0UJt52TVh8tqPvPnxJ1vfUFYHPCrUwbH9IMsYKBykVICohlLKW7nNVatIsQreUynUrUqR5I9BGCWzFfRv5HMfmMc1mJgFH+x4F5E+lUcnHfMAf59/OZ+vTP4Udhru7QCYRtw4QNDGBMHfhfOXmCX+3crpsE9SqhZfdi9v2Jr4MPWK6tCT6R8CE/x/PwNusZ7zh1OvKo6VINWfUJjWXzDnxNYQYq0Tu0+IMkdBEQYc8c8Ja2XvC8lBAf2c0paYxlWMZsqzVH4jW2QooS1SAQV/wqfr4QxaLyspGi/9rkOq/k4v5uPIoy5efba9z1aAFgIPRWlgfHOgmuB/+DhYTYdhwb85leX6iI/HN2Xjmr9URRcB19DcIIvF1KwBxpfx+vrBeETad2O1MVW0w3Kv7gJiDAWNzpvFBR/seTNI5smzVH4eYPwaGEtEunVsF6lhC+Nyvpm+nJzpaWqIv3aN1dgNZ+5jBvPfT6f3pQdfRczpRtnsH2fT2n1G5u9arvSVvsD+ppzwSf/wO6RtyeDgH79S4u16wHKmlce/+rfS/Q+mFjwgo3JraRwvl5w8k/E16tfqzC2VoQxK9PgiDziM+aIaUhfJ1gYk5WU9s8BmyjYTImYY9/s8psNkimM5WRn6bhiH6zYpn1khvWO7jfGJhMs4Q+lS8MvdXxBxGIysZ9o6mpsaN5HTS1+EhLaInXck9nSwT1LaT8VSHXj7jrtUwlByJween81/U+ZGfFax+fhbuVbxgkCFqL5v/jpBnr78820Qb2PL1Dar4feX2Wsjua85xzWm0oKrLt8mH29oHnGDx68z6A5izcdwJoxteuAeTV3vPVJueQTcKVmrF+/fio+S4d2f1dffXVIYk8//XS7vAUFkdXRISvy4E0WxsR53/7JZSf+uib/r/Cv1UpKWA3BuruKH5TMFKvfmNlkEq5f8ZpMwtXn5Psc1gJ9LI6wf6iTxyB9CySA74xTlSM/0rtfBPqNvfzpNypw6lf62e/PGkYLbptAz/3ocLp4YIs+YgUk7j93+WjqrAS1zzftpVte/bydIIYKHv1wjV6ZrCuz+I99vUKtlLRYRUA27Hubo4Q5/KjYHCW2WkBBuUgbAVcKY59++ilt3rzZ+JsxY4YG+L3vfS8syNLSUiM/yq5fvz5s3kx6IMJY8mY7WDO2enu1bgxaMXwxJDOx3xgc85tbrO1fiV/oPz9xYLtu4Yvi0R8ellGrsthf7P/bO/P4Kop07z8hCQlLYkhCSELY911QRHBjVEDwur5X38HBjZE/HHF0uOM7w+hVEEd01HGcwaujn6vOvQ6jzqi4AW5sIiAigoR9EQhLEpbsgSQkeeupkzo5p3POSZ+ku9PLrz6fpLurq2v5Vp9znnrqqafY7q81GoomMBHRpgTUVCW7cXnvuyNSc7xC+ASb+/42Wa9fTOwn/ZBxn7MR/AXp9fKo3oFxwg7svXsvkYJOpIa09cbcrB3v2eB0FnZjkXrKPvccOU3ZtWvXIIJPPfUU9evXj6644oqg+MAL/vHLzPSNigLjvX6uhDGspDT+TfAb8AvDXg77Csrksbk9KWWiVv4bIqZkWAPH/cuj+NE9u+jK8WSFb2PinwzqStNGZNEjS3Ll6Doj2VxNnq7KWZhIfS5Yu8Ar5Fo7bWRh1VFUBAInSqtIdKlwxlxHc/65VabkYRFPSN88urt0BRHhcXmL3Vbwqsxwge8of2RqUBQurZnxfdI6EWvjDwi7sUv6p5tZFPI2gIAjNWOB7a6urqY333yTZs6cGVHbUF5eTr169aIePXrQDTfcQNu3bw/MxrPnxQ12EZimNP4V8AtjDftTBmrGjC8tOEc1sudYvS4u2Bh5ea5v+ubOCb3plgt70L+NzJYZv7v5aHABLr5ircldr38rW8iLIKa/uoEufXpF1FNPLkbkyKZxv963eLPflY9qhBKrfjI4I+JviEqvd0Wx3nQqX6OPWFFpNFFz83OkZiwQyZIlS6i4uJjuuuuuwOig80GDBtFrr71GI0eOpJKSEnr22WdpwoQJUiDLyckJSqsuqqqqiP9UKC31rUqrqakh/tMTVDp11POM1WmKGjQhSWI6xs711MNF1V8d9TxjZpqEBk/4ZWeqJds9wgkjhz5pHSxhfVHvFLn9y7p9J2nWJb2abeq3B4uIt19JSoyjsT3Pk3W8fmQ3enfzEfrkh2P0u2sG+n2ncWaKszo2W4ADErAt0f1vbW2yiEHtTfiXn44i5SLB6uYozupodflOLo8HGvM+3N6kX1WbWDv25FKx1dHgdP+0tOKsjiptWkd9P5ucTvusysOKY48uPrvo/YVlbVoPvW1VrNRR73N60pmRp55yo0kTI5Zwq4FBNM/ZJu2UKVOoffv29NFHH+muE3fMkCFDaPr06bRgwYKQz82bN4/mz5/f5N7ixYupY8fQG8A2SeyAiNf3tKMtp9rR/+ldS5dnOfpVsB3tdw60o68L2tGUnDqa0r2OHtoYS7X1wrfQmHOUasGs3zHhYujpH+Kofbt6Wji2Vti5REb03o/taHV+OxrbtY5m9PfZmfFszLzNsVRSHUMzB9bSqDT3viPc1vmircXVzIl/nrWhnlLak+i/WjnVpb2La/sS2FsSQ4t2+PaLjVTL2UNracB5kd9xp7wne0SbXxRtzkisp4dHN27JFqn9br1XWSlWv952m1TGsP24HYM+Ed+ONRd1YiP8L774gt57772oahgfH0+jR4+mffv2hX1u7ty5NGfOHP991ozxFOfkyZNJb2ey0MeLCyZNmkRcph3D24WbiE6dpvEXjKJp5/umpOxYTz11shvvH5bvFsLYIcrp1YeGXpBDtd98LbZFiqXbbpjk3zhcT7tamoaXtL+yb5Vcot99xHi6IIyzSs6fx2RPPfeVODtLP580hq4akuEvdmf8Hnrlq4OUF5tFc6ed74+3G29/xVp48o1Y7FC8QXwewoYYKah1HXqxNOoOm8ykG27jbRKmkNl+9IPYkHuHz0g/ZIKGyL7DzqdpI30uLyLxju/t06DyY4Gim0+Ej6Enbm47Dapq32jhpubFHWvodHU7mjxlErFRv51DJN6trbea2WptPmY+72hh7PXXX6eMjAy69tpro2JUW1tL27Zto2nTpoV9LiEhgfhPG1ioilawaskz2nLNui476xsxpQrfNtG2y6w6tTZfu/DulCjUKCJUCX9VB0+flef9xJ6UCQm+eBlh8j82IF66LZ82Hiqhi/s3CljaYrfkFUuj405CWJw4JFO8C41ahH+/sKcUxlbtOUHl1fXURWw+HBjswjuwTi05P1XZ1BFoqHw4XVt+VtzCOxRbs+KyUiI7c1Xlcjpt34bi/W/n51BcXCzxqkk21leBffGxCxitDzN138pjTmqc2FWlHZ0VixUKys+RcgRrZR1aUlYo3i3JJ/AZbZ8G3rPLuWOFsbq6OmJh7M477xQfiuBm3HHHHdS9e3dauHCh5Pz444/TxRdfTP3795f2Zc8884zUqt1zzz126Yc2q4daNQYDfuO7QBnws9PXfcJug4OZzl5DtYD9jbEwxisCfxnCbYV6ZplwZMmBjZi122INFHv6DRNe/bcfK6WPhe3Y7eN7y7Ru+6d3dwG96dzGx8ntMcOpsRnOWo1kzPvj9hYrKncJW1X2xO8UYcxIBk7Ky956ywgkeXry8OHDchWlNhnHsy8xFYqKimjWrFnSToy1YayyXLduHQ0d6tsXTKXz4rG4UhrISDcIXmy/mW1Wwhh73t9X2OhjzMwytXmP7+db0v7d4SIxQg5tN8JTlMty8+Wj7M4iVLhJLPvn8N737l1VqX6wQ1mLcds5nj2xczoEZxHg1cVm7APJ+bL22ShnrUZTVSsqsS2S0WSNz8+xwhjbbvGPyMCBA5tQWbVqFb3xxhv++Oeff15qwnh1ZH5+Pn3yySfSZsyfwKMnbFNUJvZa4wA/Y8a/BMoDv9SMBTh8Nb6k8DnyXntdkxKoWnji/v5wcciEO8T+lby9C09pTBT+xUKF64U9If/wcB4HGtoSKp2T4wJ/sLXtUAKal3Yh0DJw+jVrsni/R55KDAyt3QcyMC+7nSttGIQxu/VM0/oEz+81vY8YFxMoEz6U1FpaTFMa39F+D/xVjZoxKxy+BraEnR3zVOWHW49Jf2OhnFAub9CKXTGwq1hgEPorgafmLhuQTqt2n6AlQjs2Z/KgwGJcc65+sH/x92B/VHayBXIN7DZoiN2nFo1GojRjB8UelQj2JhD6m9fedUbtDCKg7MVYg5MgjFERjCWgpinZ2Ssb0bbnLUpSrXeLwgIYC2MbhN0YTWraxqUN9mJTNRsna1PyVCULY+9vOUq/mtRUI61N79TrKWL/QqEElM5B510/lAZ1S4YHfqd2Zoh6q6nFELdcF6WEMfbEj2BvAo6dprQ3VmfUTglj0IqZ018d4n1jndMVPrs8/mJsi+XlatPw7/OK6EzD1kyqxXvFFk37xRc1C4pXBrizUPcDj5OHZlLnhDjKO32GNh0qCrzlqvMisSuFmNWV4baLekmbIP4BRwABpxFQwtixkjNhbUad1ia31hfCmFt7Vke7IIzpgNSKJEozprKweiWlKreX2DCYDc9rhIuNTYdOq2h5VIb7l4opyOTEyL7weNp16nDf/q7vCa/8bg1qG5suHeOpfXOect0KAe1yBYE04YYmSQyg2ByF7UIR7EsAwph9+8b0mhWLbXo4QDNmDmplM6ZybythTNmNcT3YxUVgUMLYNQ1CVuC9UOc3jfGtqvxYONGsCrM6M9RzToorFJtJc4ALCyf1GuoaigB/9vuIRTwcYMQfipB94iCM2acvLK+J0oxhJaU56NVqSpV7WwljXL4y3A/cNPyg8D20U6yk5Cm4SUO6qWpGPF7cJ42yhZaNF3+sEPZjbgyFZQ3CWHKCG5uHNnmMAPsa49BWwhjvC8qDwA+ErSkf+RqhKQEY8Ddl4pkYJYyliOkYBOMJaKcpB3TrbHwhOnNUwtgPR0qoXLgzYdsvpRWbIAz8tV71w2XLjiRvFIb8/7VqPy3ZcpxucKHLLTVNyS5BEEDA6QSU3RgPvqwOy3OPN9mlgE0m7LJLgdU8IpUHzVgkOi6/p4QxTFOa09GB9kZs/t0WKylVy3K6dKQeqR3kqPTbgz67Mf6i5KB3ilLldXPDVCVvj/R1fgzxno7hRrtOHBVjmlL1NI5uIKCEsQMWC2P8/XLvm5uDtotinvli+yiOV98/bmBsRBugGTOCokPzKD1TI2sOYcz4DuQvmnkf7vBnzIr5q55b3aYjQl5VmXf6iHRxwf7OtgotmTApIV4lGU3g3QTihYasRkw3vPNjrPjbJBcIaEe7zEC7d58TRsUn1DQlNGPRvBZIa1MCShizUjPGgzD+7IeakOQ4Hpzy/UniuwcrlX0vDjRjNv0AWVEtaMbMoaxGhPmljRsIc0ltPSJUU5XrhN2GcvQ6tneq9NCvl4RqGwtigUHbNpUucBNlTq9NF5hHa8+N0sKpacoM2Iy1tkvwvA0IKC/8bAvJJgpWhI1CW6797AeWy98efJ/TIfgIQDPm4TehWPhT4gDNmHEvgZ1HhOP7+vapzD1aQqfKfUbq1wzTZ7jPhJprG6eZ+942at+uHT38fq6lo2IjtXB+A36x6wACCDidAH+/s4uLU8LfIWvHhnc/z/QmqQFNcwXpTddcPm64D82YG3qxhW3wa8ZgwN9Cgk0fs/OIcItw+spTAjwqPSZGpRxeXn1At+1Gc23j/Nhh6sz/2SS/+Pk6VDB6VGykFo73u220GYMBf6j+Q5zzCCjtmFUrKvW6hdGbznnEo68xhLHombnmCb8wJkZOCMYQ0DvS05vOmFqRFLjYaJa1W4GB7aP0GtPqrXOKzvdJb36B9dWe69HWsW2Ktt3afNQ1T+OcafCfhmlKRQVHpxOw2m7soj6p0o403L4VHM/2o5wOwUcAwpiH3wQIY8Z3vt6Rnt50RtTQKIFFb53vv7K/rmrrzS9SZs1p66LVwqkpSnb9EW7T9Ej1wT0QsCMBJYxZpRljDTwv6IkU+D6M9xsJQRhrZOGpM/6BZsedHGAzZlzX23FEaJTAordtt4/vHXFUzLQzxEpFI0bFerVrutP5ve9jitK4TwVyamsCfmHslHW+xq4ZnkV3X9K7SdPjY2PopRljhEudrCb3vBwBYcyjvV921me8z82HMGbcSxA4ItSq6NW11SNC3YJIWfDqTy0VvW1j/2pqVKzarM2rurZOeAQvl9E8MGiph252zaEn6NXCKVZw+KqHKtI4hUBbeeE/WnxGIrppdDY9fsMwec575I7p1cUp6CyrJ4Qxy1DbqyC1kpK9xMfH4jUwsnd4xMcjv0xhExEY+LotRoR6BRE96fS2LVw61oh1Ey4j+P3795fX04sr99GlT6+g6a9uoAfe2iKPfM1G+YEhlMC2YlcBPSJWbUYKLKtFY5vi9zGWHNx3kcrAPRCwO4He6R1lFflzVyRWVVoRKoT95aqGLdNmXdaP7hAa85E5vpWcK3cVWlEFR5UB1xaO6i7jKqvsxfQaWxtXsjdyYmGEHRryFCFrW1jQ4Wm5trCRUNOL7OMr2Hzf1xcssLCgqHfaULVt/b5C+uyrb2jyZeNofP+MJm1T6bQM+N2b+ca3tCWvmJ75dHeTF0L5IlOCayi3FZ0SYqmiqlY+2yutIx06VSkdSQa2TynNotFEKpsxFhoRQMAtBNj+MVMMMNj34Y9iqlLv9metaf/K3YVUda6OeovP55CsJJnVVYO7EW/J9sXOQvq/Y3u2JnvXPQuViOu6VF+DlDCGTcL18WpJKha82NHqDed3l8e2EMS43nqnF6OpH6cdJ4TLC9Lr5THcsxyvZZAqfB79788vogQxnRkqKIGKV0Eu/SH0lipKEPvJoK702a8up5cN0kQWNjjqhTAWqmcQ52QCym7MKk/8S7f5tNtTR2SJnT6Q+BbTAAAnqklEQVR8Q6Orh2ZIhF/tPUFnG1YtO5mpkXUP/W1oZAnIy5YElDAGezFbdo/hlQo3bdhWU6e5R0vlqDlcQ9UqyP/455aQ2jz13K78MooTTma5fWt/cyX9+afny1txQghc89BPojYS9mvG4H1fIcbRJQSs9DVWWX2OVu46IclNCzDUH5qVTNlCC3+2po7W7T/pErLGNAPTlMZwdFwuEMYc12WtrnC4acNwWq1WFxghA2UoHyGJvHVGfGlHCmpLFda+cTt4FN7u7S10TiwKKDpTLaeHIz2vvecXxuB9X4sG1w4n0De9k2yBFe4tVgtbMfbXl9Olg/D4n+wnxxqyq4Z0o//dcIg+31FIV4ppSwQfAWjGPPomQBjzZseHmjZsCxJ6FgvorVegYMeLUbo1GN8fLfKt5NKbD6fDNGU0tJDWSQSs1Iwtzc2XaK4NmKJUrK4e6hPAeAFOncYJtUrjxSOEMS/2umgzhDGPdrxNmq0WFSgje221OD61k76dIbSCXfeUDjI7taxem3e4a7ZhKW3wvafNM9wziAcBpxAItBnjbb/MCvw5WrGzQGbPmmptuLhvKnUSq/gLhE+/3GMl2tuevYYw5tGuL2nYJDwF+1J69A1o22azhi6cLzIloD1xw/CIzmM5XSi3Fd3F1AiHaDVjyq0F+0lL7gALDgkR/1xDoGdqRxIfO6qoriX1rpvRuDV7Tsgy2DZsVIMri8ByEuJi6fKBXWUUr6pE8BGAMObRNwGaMY92vI2a3dyigmkjs5sV2EK5rWipZkxNd/JKSrX6y0a4UBUQaBUBHmSogYqZdmPLGqYoA1dRaivOdmMcvtjh06Bp73vxGsM/L/a6aLMSxuDawqMvgE2a3dyiAiWwsZsLNtZXgVeBsiDG97VB/eBEqxkrxFZIWpS4dhmBPumdKe/0GbH7RQWN65tmeOuqztX6BaxpIzLD5s8uaVhLt+N4KR0TXvqzG0wLwj7ggRsQxjzQyaGaqIQxuLYIRQdxVhJQiwrCldmcwKZ9ruWasSqZFezFtERx7RYCfYQD1jWiMez41Yzw9b6TVCY87/MuG6N7hN/yKK1zAo3p2YU2HSqiL4V9Ge9n6/WAaUqPvgEQxjza8Q5tthLY9DjQ9QtjUa6m9E9TwseYQ98SVLs5AsqI/8cT5ghjS7f5VlFOFRrrdqz6ihDUqkrYjfkgQRiL8LK4+RaEMTf3rrfbpqYpeYSu3nM9RHh1Fwd439dDC2mcSEC5tzhogmasWmx99Nl2JYyFn6JU3K4e4vPGv37/KSoXn1WvBwhjHnwDztXW+V/+lI7tPUgATXYzAd6Hr0vDKmG2R9Eb4PBVLymkcyqBvsJmjMNBsZer0T6+2KM+u4bpKhbAXNg7tVlE/bp2lvtWVovfo6/ECkyvBwhjHnwDlC8lbnpyIswGPfgKuL7JSjsWjRG/cvjaFdOUrn8/vNrA7JREio+NIdZiHSvRP1DRw2tZwxTlNcMy5W4YzT3DK5avVqsq4eKCHCeMzZs3Ty47545Uf4MHD47Y7//85z+J0yQmJtKIESNo6dKlEdO7/aaauumcEEdxwmM5Agi4jYDfbiwKzZjyvYRpSre9DWiPIsDf9+xvjIOR7i1qhHbr0x0NU5QRVlGqeqijcnGxcnch1XrcG78jf4mHDRtGx48f9/+tXbtW9W2T47p162j69On085//nL7//nu68cYb5V9ubm6TtF6JUMIYVlJ6pce9187uKb4fHL1e+PnH5FRFtQSF1ZTee1+81GJlxH9QuLcwKnxz4DQVC0fiaZ3a00U6pihVuRf27kL8O3RafPa25BWraE8eHSmMxcXFUWZmpv8vPT09bOe98MILdM0119BDDz1EQ4YMoQULFtCYMWNo0aJFYZ9x+w0ljMHHmNt72rvti3aa8mS5z3ifV23yDwoCCLiVgBLGDhggjLE2iw3w/2vVPomLV0hGM9vCe8lOFD7HOHy5y9t2Y440GNq7dy9lZ2fLacfx48fTwoULqWfPnrJDtf/Wr19Pc+bMCYqeMmUKLVmyJChOe1FVVUX8p0Jpaak8rampIf7TE1Q6ddTzjBVpTpX5bAWSE2N1t8WKerW2DMVZHVubH56PTEBxVsfIqa29m5nk29cyr6hC1zt+7LRPS5DeuT3V1p4Tf9bWV09pirM66nkGaVpOQHFWx5bnZK8ne3RJlBU6cKJc12cjXO0/3V5ATyzdRfkNq5A5Ha+mvKxfKk0Z5vOwH+7ZwPifDEynD7YcE8JYIQ0fQK2qU2C+gedO6EPHCWPjxo2jN954gwYNGiSnKefPn0+XXXYZ8bRjUlJSIH95np+fT926Bb8YfM3xkQILeJy3Nnz22WfUsaNvCkR7L9z1559/Hu5Wm8Svy2f/L7F0puSUK+3n7Ma7TTrZwkLtyDuvnAHE0Y8FJbre8W2nfZ+J9rVndaW3EG+TouzIu0klXRThNt6FJb53ffvhEy1+17eeiqHX9qiJNc7PF4oqq2n2W1to5sA6GpWmbzNysQCTYsTv0YGTlbSyUwzt/dcX1C+5XnroV/m29lhZWdnaLEx/3nHC2NSpU/1QRo4cSSyc9erVi9555x1pF+a/2cqTuXPnBmnUWDPWo0cPmjx5MiUnJ+vKnaVx/iBPmjSJ4uN9I3VdD5qc6OCqA8J6cx8N6tODpk0bZnJp1mVvV97WEbC2JDvz5h+FZ7etorKaGLpq0hRKiI+NCKfk2zyi3TtpQE6G+EyMjpi2rW7amXdbMTGzXLfy5m3FFu1YQ6erxKrK7PMpS2wtdmGvLrpWQDJvnppc+NwacdY4c9TYD2JhnbhYVtCR/t/PLteVJ2vY4jf/QNW19bTkkO9zmilWND8ybXBUGrbGOjQ9UzNbTe/YJ8ZxwpgWXUpKCg0cOJD27fPNWWvvs21ZQUHwZqR8zfGRQkJCAvGfNrBQFa1g1ZJntOUaeV1e7ZuD6dIpIeq2GFkPs/KyG2+z2mmXfO3Iu2tyHHUQAtiZmloqrDhHfbv6pmbCMTsl0nDodl4H238m7Mg7HFc3xLuNd+6xk7JbePHiQ+/6FrKxQBZur1dtH24SNmKBU5Pa+6wPO15SRd8fKaPx/SLvf7k89zjd/9ZW0urQ2AEzx780Y0zI/We1ZTZ3zX1o96D0jHavZ9j6lZeX0/79+ykrKytkGrYp+/LLL4PusbaK470alAE/VlN69Q1wf7vZ7Y3fiF+He4tGh69NB2Dup4UWeoUACz/3Ld7cpLn5Qlt275ubie83F9S2Ya1Nxxq2+R/taCKIcb5KOOP7XnF54Thh7Ne//jWtXr2aDh48SOy24qabbqLY2FjpvoI78Y477iCeYlThgQceoOXLl9Nzzz1Hu3btIvZTtmnTJpo9e7ZK4rmjEsawmtJzXe+pBitfY3q88J8oOyvZZMDhq6feES811ijhR6/rl+bSbfzxtNCg+T53ofrBp2E7S5zOC8FxwtiRI0ek4MUG/LfeeiulpaXRhg0bqGtX3/LYw4cPS8N+1XkTJkygxYsX0yuvvEKjRo2if/3rX3Il5fDhw1USzx3ZHwyHFOHfBQEE3ErArxnTsWF4o2Ys8nSmW1mhXe4nYJTwc1GfVGln1mi2H8yO43nak9NFCkZp2CKV4aR7jrMZe+uttyLyXbVqVZP7t9xyC/Efgo+A0oxhmhJvhJsJKM3YET3TlNgk3M2vAtomCBgl/LAvPrYv42lNbVACGt/ndJFCc5oz9azedCq9U4+O04w5FbSd6l16xqcZgzBmp15BXYwmkNOlg8yyuf0pecNk5fQV05RG9wLyswsBvUKNnnTXDM+SxvVagStTaMT0Gt0bpWGzC9/W1sNxmrHWNhjPE0EzhrfACwSUZqy5LZFOCzcY54RAJmz+Kb0zDPi98G54sY1K+GFjfWUgH8iB9VgsTDU3vaiemTgog3ggw2HBDcOof0aSfFYroKn02mOgho3LDqyT0qnp0bBp83XqNTRjTu25Ftab9+CraHBtAc1YCyHiMUcQUDZj/OMTaUVWYcMUZWrH9sTbsyCAgBsJKOGH26aEHdVOdR2N8LOnoEwKUKli+7AZF/eSbiz0CmKqXKVhYyEwMESjYQt8zsnn0Iw5ufdaUHc1RcmPYjVlCwDiEccQ4OmWOGG3wlqvgtKzlJ3im7bUNkDZ0nRNglZMywbX7iKghB92GRG4kpGFHxbE+L7esPO4b4vAIVlJQqusxDm9Tzem4zInDc2k9fsK6bOvvqHJl42j8f0zmrU5a8zBHWcYBrqjH3W3orjBXiwpMc5zL7tuSEjoCgI8Ss9K8Y24I01V+ldSJgePzl0BAY0AAQ0BFn7W/uZKmnVZH3lneHayvI5GEOMHdx4vk88PydS3I41MHOYff1bHidWXF6TXy2O0GrYw2ToqGsKYo7qr9ZWFvVjrGSIH5xDIFh71OUQy4j9RViXTZEAzJjngn/sJsLBz/ajusqF5wvWLuIw67PBrxlovjEVduAsfgDDmwk6N1CQIY5Ho4J7bCCi7sYiaMTGFyQHCmNt6H+2JRGBgZmdhIxkjF3Qd0eGLLzCv+vp6oRlT05QQxgLZtPQcwlhLyTn0OWUzBuN9h3Ygqh0VgZwGO7GIwhg0Y1ExRWJ3EEiIi6VBmUmyMblHS6JqFH+eys6ek8Jc/4zOUT2LxKEJQBgLzcW1sdCMubZr0bAQBPyasQgjf9iMhQCHKE8QGJ59nmxn7rHohDFlL9ava2dqHwcxwoiXBRSNoOigPEoatkKCZsxBnYaqtphA95SO8tnImjFMU7YYMB50NIHh3X3C2LajvilHvY1RU5RDszBFqZdZc+ng2qI5QibfZ/9HvGcYL6/npfjscM+slSRclvoQVVSfk76XzCrLZGzIHgR0EQjUjLGdi3YJPscpP2N6PI/rKhSJQMAhBJQwtl1MU4b6fIRrxq582IuFY9PSeAhjLSVnwHPLc4+T1t8Lb7Aarb8XPVXRlvXR1uO06WCRKWXpqQ/SgIAVBPjzxOFMTS0VCa0wO6gMDKXC7qXqXJ2MwlZIgWRw7gUCg4XNGA/IT1VUS79j4XzxaVmoacrBwscYgjEEME1pDMeoc2HhiDdaDXS8x5mwt3CO5/vRBNZ6rd9/ij7YclQeAz2OG11WNPVCWhBoSwKJ8bGknLmGcm9xQmikObDfPU6LAAJeIsDv/IAGA3y9RvyVYlbl4KkKiWkIpikNe12gGTMMpf6MWFBijVjgXlzqaY5jly98n70S65lG1Gq9OC+lYeM8jCyL80YAAScR4D0q2ZfY0eJKGpHjs5FR9W+cooT3fcUER28RGCHsxnbllxELY5OHZTbbeE4rZvflIAd7uTaLS3cCaMZ0ozIuIduIaTVigbmzQMb3OV1zoTmt11++3GtYWc3VBfdBwI4ElN1YKF9K/pWUwl4TAQS8SEDZjeUe02fEr+yOoRUz9m2BZsxYnrpyU3vhNZe4uXTNadg4/z8JYUxPaK4sPXkgDQjYkQBrxjiEWlHJe1ZygL2YxIB/HiSghLFtOn2NNQpjsBcz8nWBZsxImjrz0rtqq7l0zWnYdFZHJmuurGjyQloQsBMBvzAWwtdYo2YM05R26jPUxToC7J6Ct0PiqfzChsFJpNKV8T7cWkSiFP09CGPRM2v1E+y+gm26Im0Hxvc5XaSgV5vFPsXClcXxesqKVA/cAwE7E1DC2LGSM02q2SiMYZqyCRxEeIJAh/axpLzoN6cdqxP2zruwDZIp7wWEMVOwRs6UjfLZfQWHcEIS72DfnPF+Ssf4yAU13J15SR95pi1LXXNdmitLV0FIBAI2JKBsxkKtplSaAExT2rDjUCXLCPg98Tfj/DWvqJIqqmul1/2+6Z0sq58XCoIw1ka9fM3wLHppxhjKbPCDpKrROcFnxrdkyzF64Yu90hFfKLcVh09V0lNLd6nHQh5Z2GKt1+wr+4csi8vmOnBdEEDArQSUMMZ+xnhZfmDgqRkOyv1F4D2cg4BXCOi1G1P2YgO7daa4WIgPRr4fMOA3kmaUebEQxK4ntB74/7pmP/1h+W56/os9tDO/hLbklUj/Yyr7LkIjdlY4sTxTU0csvJVXnZMatkBXGVqtV7iyoBFTVHF0K4HkxHjpR4w3Nmbt2IBujYbHmKZ0a6+jXdEQUMLY9mb2qFT2YoMzsQ1SNHz1pIUwpoeSiWlYGBrfLy2ohF9M7E/txajjiU92CuevBUH3+IJH+Bz6pHekxbMupq15xU08+bPWS+vJP1RZMiP8AwGXE2C7MfaPdKS4URhjLRkPZDhgmtLlLwCaF5HA0OxksVWYz6XSyfIqCuc/TGnG4NYiIs4W3YQw1iJs5j90t7Dz+rNwS8HbtYQLZ4VmjFdBQusVjhDiQcBHIKeLTxgLtBtTDl8T49tRUoN5AHiBgBcJ8AxLH2EDduBEhXT+OnFQRkgMO/17UjZql0MmRGTUBDDpGzUyax7gqctIghjXItAxrNJ63XB+d6lpw/SjNf2EUpxBQK2oDPQ1FjhFqd1A3BmtQi1BwDgC7ImfQ7htkcrO1lDead+KZLi1MI67ygnCmCJhs6NetxV609mseagOCFhKQG2AHKQZa9iXMiMJPsYs7QwUZksCza2o5Gl+DrwoLKVje1u2wcmVgjBm097T64RVbzqbNhPVAgFLCKgVlUGasVLfSkrYi1nSBSjE5gSUEX84X2OwFzO3AyGMmcu3xbk35xhWua1ozjFsiyuAB0HARQTUNOUxYcCvQuA0pYrDEQS8SmBYd98KSR6wFFVUN8HQKIzBXqwJHAMiIIwZANGMLNjmK5xjWK3bCjPKR54g4CYCSjPGe1HW1NbJpqkpfvgYc1NPoy0tJcAuYHqndZSP54ZwcbHjuG+aEispW0o48nMQxiLzadO7vEoylGNYOGtt025B4Q4kkN4pQXoNF7u5+H32KYevsBlzYIeiyqYQGOY34i8Nyp8dj+/2r6SEj7EgOAZdwLWFQSDNygZuK8wii3y9RKCd0DTzVOWPJyvoiHD82iO1o9gUWdmMYV9KL70LaGt4Aryi8pMfjjdZUXnwVIVwNF5H7Aamdxq2QQpPsOV3HKcZW7hwIY0dO5aSkpIoIyODbrzxRtq9e3dEAm+88YZwaBcT9JeY6JwvYLitiNi9uAkCuggouzFlxK+mKaEZ04UPiTxAwO/eQjNNuathinKQ2L0CbpPMeREcJ4ytXr2a7rvvPtqwYQN9/vnnVFNTQ5MnT6aKioqIhJKTk+n48eP+v0OHDkVMj5sgAALuIuAXxoRmrPpcnX8ni27JzhmYuatH0Bq7ERgmPPFzOCT2Pi4549vpha8bjfcxRck8zAiOm6Zcvnx5EAfWerGG7LvvvqPLL7886F7gBWvGMjMzA6NwDgIg4CECyoj/aHElnRBbvnCIj40h3usVAQRAgKT/sB6pHaRzV96nckK/dIkFwpj5b4fjhDEtkpKSEhmVmpqqvRV0XV5eTr169aK6ujoaM2YMPfnkkzRs2LCgNIEXVVVVxH8qlJb6DBpZE8d/eoJKp456nkGalhNQnNWx5TnhST0EFGd11PNMW6bJTPI5qjxyupKOnS6XVeE9+M6dC7/lWFvWV1u24qyO2vu4NpaA4qyOxuZu39yGZiZJYWzr4SIa29PnlX/Hcd/v34CuHXX//kXbQsVZHaN9PlJ6M/KMVF5L7sXUi9CSB+3wDAtW119/PRUXF9PatWvDVmn9+vW0d+9eGjlyJLHw9uyzz9KaNWto+/btlJOTE/K5efPm0fz585vcW7x4MXXs6Fv+2+QmIkAABGxLYG9JDC3aEUvpifV0Q686+u/dsdSrcz3NGVFr2zqjYiBgNYHPj8bQx4djaUxaHd05sI4qhO7hd5t8epunxp6jDg5U4VRWVtJtt90mf//ZZMmOwdHC2L333kvLli2Tglg4oSoUdJaShwwZQtOnT6cFCxaESiK1YlrNWI8ePejkyZOktzO5HLZrmzRpEsXHYyokJGgDI8HbQJg6snIa77yiSrryj2vl1OTDUwfRvI930dWDu9JLPxuto7Vtn8RpvNueWOtq4FXeX+09STP/ZzP1ET7HPnvwUvpG7JM847VNlJOSSCv/I7wpUOtok9S4mfV7yTNb6enpthbGHCjj+rp89uzZ9PHHH0sNVzSCGD/NgtHo0aNp3759Yd+fhIQE4j9t4GejFaxa8oy2XFzrJwDe+lkZkdIpvHukJZHwcCGcvgqfSYW+BT/dzusQ9efZCGatycMpvFvTRjs96zXeo3r6TH5+FEb8Z4XSeE9hpeyOIdnnWfJZMYM352n34LjVlDyryoLY+++/TytWrKA+ffpEzbi2tpa2bdtGWVlZUT+LB0AABJxJID62HamVk98fLpaNwN6uzuxL1No8AmnCjjJbbAbOYcexUqykNA91UM6OE8bYrcWbb75JbLvFvsby8/Pl35kzjXvO3XHHHTR37lx/Qx9//HH67LPP6MCBA7R582aaMWMGsWuLe+65x58GJyAAAu4noNxb7Cnwbe2CTcLd3+doYfQE1KbhuSyMNXjeH5qFPSmjJ6n/CccJYy+99JKc9504caLUbLF2i//efvttf6sPHz4s/YmpiKKiIpo1a5a0E5s2bRrx/PG6deto6NChKgmOIAACHiCg3Fvwtkgc4PDVxwH/QSCQgBLGtuQV054C38rjwZn2NHwPrLeTzx1nM6Zn8eeqVauC+uT5558n/kMAARDwNgGlGVMUME2pSOAIAo0ElCf+L3cWSAfJndrHUk+xhRiCeQQcpxkzDwVyBgEQcDsBpRlT7cQ0pSKBIwg0EhjW3acFq6z2uX3JFispHesDq7FZtj6DMGbr7kHlQAAEjCQQqBkTm3JQWiefI1gjy0BeIOB0ApsPFcmVx6ode8Xq40ufXkHLc4+rKBwNJgBhzGCgyA4EQMC+BLIaVolxDZMS4om3SUMAARBoJMAC171vbiZlV6nu5JeclfEQyBQRY48QxozlidxAAARsSoB/RO54baO/dqVnazDa99PACQgQ1QoJbP5HO0JOSappSr7P6RCMJQBhzFieyA0EQMCGBNRov6C0cb9ZriZG+zbsLFSpzQhsFN72jwsNWLjAIhjf53QIxhKAMGYsT+QGAiBgMwIY7dusQ1Ad2xIoLAsviAVWWm+6wGdwHpkAhLHIfHAXBEDA4QQw2nd4B6L6lhHQ6+pFbzrLKu6CgiCMuaAT0QQQAIHwBPSO4vWmC18S7oCAswlc1CeVeJFLuGUtHM/3OR2CsQQgjBnLE7mBAAjYjIDeUbzedDZrHqoDAoYRiG0XQ49d59uZRiuQqWu+z+kQjCUAYcxYnsgNBEDAZgQw2rdZh6A6tiZwzfAsemnGGMoMcAPDFeZrjuf7CMYTcNx2SMYjQI4gAAJuJqBG++w7icfzgYvy1fgeo303vwFoW7QEWOCaNDRTrprk6XvWGvOgBhqxaEnqTw9hTD8rpAQBEHAoATXaZx9JgUv3ebTPghhG+w7tWFTbNAIseI3vl2Za/sg4mACEsWAeuAIBEHApAYz2XdqxaBYIuIAAhDEXdCKaAAIgoI8ARvv6OCEVCICAtQRgwG8tb5QGAiAAAiAAAiAAAkEEIIwF4cAFCIAACIAACIAACFhLAMKYtbxRGgiAAAiAAAiAAAgEEYAwFoQDFyAAAiAAAiAAAiBgLQEIY9byRmkgAAIgAAIgAAIgEEQAwlgQDlyAAAiAAAiAAAiAgLUEIIxZyxulgQAIgAAIgAAIgEAQAQhjQThwAQIgAAIgAAIgAALWEoAwZi1vlAYCIAACIAACIAACQQTggT8IR/iL+nrf9sKlpaXhE2nu1NTUUGVlJfEz8fHxmru4NJoAeBtNNHJ+4B2Zj9F3wdtoopHzA+/IfIy+ayZv9butfseNrrsR+UEY00mxrKxMpuzRo4fOJ5AMBEAABEAABEDALgT4d/y8886zS3WC6hEjJEWfyicoGhdaAnV1dXTs2DFKSkqimJgY7e2Q1yyNs/CWl5dHycnJIdMg0jgC4G0cSz05gbceSsalAW/jWOrJCbz1UDIujZm8WcxhQSw7O5vatbOndRY0YzrfJe7AnJwcnamDk7EgBmEsmImZV+BtJt2meYN3UyZmxoC3mXSb5g3eTZmYGWMWb7tqxBRLe4qIqnY4ggAIgAAIgAAIgIDLCUAYc3kHo3kgAAIgAAIgAAL2JhA7TwR7V9HZtYuNjaWJEydSXBxmhK3oSfC2gnJjGeDdyMKKM/C2gnJjGeDdyMKKMy/zhgG/FW8YygABEAABEAABEACBMAQwTRkGDKJBAARAAARAAARAwAoCEMasoIwyQAAEQAAEQAAEQCAMAQhjYcAgGgRAAARAAARAAASsIABhzArKKAMEQAAEQAAEQAAEwhCAMBYGjBHRL774IvXu3ZsSExNp3LhxtHHjRiOyRR4aAgsXLqSxY8fK3REyMjLoxhtvpN27d2tS4dIsAk899ZTcleLBBx80qwjP53v06FGaMWMGpaWlUYcOHWjEiBG0adMmz3MxA0BtbS3953/+J/Xp00ey7tevHy1YsICwWY0xtNesWUPXXXed9IbPu9ksWbIkKGPm/Oijj1JWVpbkf/XVV9PevXuD0rjxAsKYSb369ttv05w5c+ixxx6jzZs306hRo2jKlClUWFhoUonezXb16tV033330YYNG+jzzz8n3nB28uTJVFFR4V0oFrX822+/pb/+9a80cuRIi0r0XjFFRUV0ySWXUHx8PC1btox27NhBzz33HHXp0sV7MCxo8dNPP00vvfQSLVq0iHbu3El8/Yc//IH+8pe/WFC6+4vg72X+PWRlRajArP/85z/Tyy+/TN988w116tRJ/naePXs2VHL3xAkpFMEEAhdddFG9EBD8OYvRVr3YF6teaHH8cTgxh4AQeHm/1XohpJlTAHKVBMReb/UDBgyoFwJw/RVXXFH/wAMPgIwJBH7zm9/UX3rppSbkjCxDEbj22mvrZ86cGXTr5ptvrv/Zz34WFIeL1hPg7+n333/fn5HYA7o+MzOz/plnnvHHFRcX1yckJNT/4x//8Me58QSaMRPk6urqavruu++I1asq8N6WfL1+/XoVhaNJBEpKSmTOqampJpWAbJkAayPFD1fQew4yxhP48MMP6cILL6RbbrmFeBp+9OjR9OqrrxpfEHKUBCZMmEBffvkl7dmzR15v3bqV1q5dS1OnTgUhkwn8+OOPlJ+fH/SdwntKspmP23874RbehJfr5MmTxHYH3bp1C8qdr3ft2hUUhwtjCYiRFbHtEk/rDB8+3NjMkZufwFtvvSWn33maEsFcAgcOHJDTZmz28Lvf/Y6Y+S9/+Utq37493XnnneYW7sHcf/vb31JpaSkNHjyY2CM8f5f//ve/J6EZ8yANa5vMghiHUL+d6p61NbKuNAhj1rFGSRYQYG1Nbm6uHMlaUJwni8jLyyMxJSnt83hxCoK5BHiAwZqxJ598UhbEmjF+x9mmBsKY8ezfeecd+vvf/06LFy+mYcOG0ZYtW+QAT5iZgLfxuJFjAwFMU5rwKqSnp8sRVUFBQVDufC3mw4PicGEcgdmzZ9PHH39MK1eupJycHOMyRk5BBHgKnheijBkzRu65yvuu8iIKNrrlc9YkIBhHgFeVDR06NCjDIUOG0OHDh4PicGEMgYceeohYO/bTn/5Urlq9/fbb6Ve/+hXxqm0Ecwmo30cv/nZCGDPh3eLpgwsuuEDaHajseXTLdgjjx49XUTgaREAYcxILYsIQlFasWCGXpBuUNbIJQeCqq66ibdu2SY0Baw34jzU3PI3D5zy1g2AcAZ5y17pqYXumXr16GVcIcvITqKysJLbxDQz8TvN3OIK5BNidCAtk/FupAk8Z86pKt/92YppS9bjBR7bv4CkE/pESKyvpT3/6k3S1cPfddxtcErLjqUmeUvjggw+krzFlW8CGn+yTCcFYAklJSU3s8Xj5OfvAgp2esaw5N9bKsFE5T1Peeuut0l/hK6+8QvyHYDwB9oHFNmI9e/aU05Tff/89/fGPfySxwtL4wjyYY3l5Oe3bt8/fcjba50EcL7hi5mzz+8QTT5BYqS0H1uzzjaeI2X+kq4Mbl4japU3CL029eLnqhaasnl1dCD9Ydqmaq+ohPqDSlYX2+Prrr7uqnXZuDFxbmNs7H330Ub0QdOUSf2FYXi8EMXML9HDuQhMj3bTwd7ewiazv27dv/cMPP1xfVVXlYSrGNV2YkYT8vhbKC1mI0EDWCwGsXhjxy/ddaOLrhWbYuArYNKcYrperpU00DgRAAARAAARAAARsTCB4YtzGFUXVQAAEQAAEQAAEQMCNBCCMubFX0SYQAAEQAAEQAAHHEIAw5piuQkVBAARAAARAAATcSADCmBt7FW0CARAAARAAARBwDAEIY47pKlQUBEAABEAABEDAjQQgjLmxV9EmEAABEAABEAABxxCAMOaYrkJFQQAEQAAEQAAE3EgAwpgbexVtAgEQaELgrrvucr8X7yatRgQIgIATCGA7JCf0EuoIAiAQkUBMTEzE+4899hi98MILBB/XETHhJgiAQBsRgDDWRuBRLAiAgHEEjh8/7s/s7bffpkcffTRoc+3OnTsT/yGAAAiAgB0JYJrSjr2COoEACERFIDMzk9QfbxDPmjJ1zUcWxLTTlBMnTqT7779fbkzcpUsXEnvh0auvvkoVFRV09913y03n+/fvT8uWLQuqS25uLk2dOlXmyc/cfvvtdPLkyaA0uAABEACBaAhAGIuGFtKCAAi4isDf/vY3Sk9Pp40bN0rB7N5776VbbrmFJkyYQJs3b6bJkydLYauyslK2u7i4mK688koaPXo0bdq0iZYvX04FBQV06623uooLGgMCIGAtAQhj1vJGaSAAAjYiMGrUKHrkkUdowIABNHfuXEpMTJTC2axZs2QcT3eeOnWKfvjhB1nrRYsWSUHsySefpMGDB8vz1157jVauXEl79uyxUctQFRAAAScRgM2Yk3oLdQUBEDCUwMiRI/35xcbGUlpaGo0YMcIfx9OQHAoLC+Vx69atUvAKZX+2f/9+GjhwoEyHfyAAAiAQDQEIY9HQQloQAAFXEYiPjw9qD9uaBcapVZp1dXUyXXl5OV133XX09NNPBz3HF1lZWU3iEAECIAACeghAGNNDCWlAAARAQBAYM2YMvfvuu9S7d2+Ki8PXJ14KEAABYwjAZswYjsgFBEDAAwTuu+8+On36NE2fPp2+/fZb4qnJTz/9VK6+rK2t9QABNBEEQMAMAhDGzKCKPEEABFxJIDs7m77++mtiwYtXWrJ92YMPPkgpKSnUrh2+Tl3Z6WgUCFhAIEZ4pK63oBwUAQIgAAIgAAIgAAIgEIIAhnIhoCAKBEAABEAABEAABKwiAGHMKtIoBwRAAARAAARAAARCEIAwFgIKokAABEAABEAABEDAKgIQxqwijXJAAARAAARAAARAIAQBCGMhoCAKBEAABEAABEAABKwiAGHMKtIoBwRAAARAAARAAARCEIAwFgIKokAABEAABEAABEDAKgIQxqwijXJAAARAAARAAARAIAQBCGMhoCAKBEAABEAABEAABKwiAGHMKtIoBwRAAARAAARAAARCEPj/Gs9LIyrd/eYAAAAASUVORK5CYII=;" parent="1" vertex="1">
          <mxGeometry x="589.36" y="93.15" width="121.27" height="91.7" as="geometry" />
        </mxCell>
        <mxCell id="rhMrbndXJ0T741SxI-ga-69" value="" style="endArrow=classic;html=1;rounded=0;entryX=0;entryY=0;entryDx=0;entryDy=10;entryPerimeter=0;" parent="1" edge="1">
          <mxGeometry width="50" height="50" relative="1" as="geometry">
            <mxPoint x="539.5" y="138.56" as="sourcePoint" />
            <mxPoint x="559.5" y="138.56" as="targetPoint" />
          </mxGeometry>
        </mxCell>
        <mxCell id="juhcVKc-gh98u9--TeOG-1" value="" style="endArrow=classic;html=1;rounded=0;" parent="1" edge="1">
          <mxGeometry width="50" height="50" relative="1" as="geometry">
            <mxPoint x="160" y="133.42" as="sourcePoint" />
            <mxPoint x="180" y="133.42" as="targetPoint" />
            <Array as="points" />
          </mxGeometry>
        </mxCell>
        <mxCell id="juhcVKc-gh98u9--TeOG-2" value="&lt;p style=&quot;line-height: 90%; font-size: 8px;&quot;&gt;Output time series&lt;/p&gt;" style="text;html=1;align=center;verticalAlign=middle;whiteSpace=wrap;rounded=0;" parent="1" vertex="1">
          <mxGeometry x="597.5" y="50" width="95" height="30" as="geometry" />
        </mxCell>
        <mxCell id="juhcVKc-gh98u9--TeOG-3" value="" style="shape=cube;whiteSpace=wrap;html=1;boundedLbl=1;backgroundOutline=1;darkOpacity=0.05;darkOpacity2=0.1;size=10;" parent="1" vertex="1">
          <mxGeometry x="20" y="280" width="140" height="114" as="geometry" />
        </mxCell>
        <mxCell id="juhcVKc-gh98u9--TeOG-4" value="" style="shape=image;verticalLabelPosition=bottom;labelBackgroundColor=default;verticalAlign=top;aspect=fixed;imageAspect=0;image=data:image/png,iVBORw0KGgoAAAANSUhEUgAAAmMAAAHOCAYAAADUog7QAAAKqmlDQ1BJQ0MgUHJvZmlsZQAASImVlwdQk9kWx+/3pYeEAAkISAm9SW8BpIQeem+iEpIAoYQYCCp2ZXEF14KICCpSFgUUXJUiq6iIYkVQAfuCLArKc7GABcv7gCHs7mvzzsyd+5t/zv3fc+98d+YEALIMWyhMhWUASBNkikK8XOlR0TF03AjAABjII0OazckQMoOC/AASc/NfY7IPQNPzXeNpr3/9/b+GLJeXwQEACkI4npvBSUP4NDJecoSiTABQhxFda2WmcJo7EKaJkAIRvj/NibM8Ns3xM4wGMzlhIW4I0wDAk9hsUSIAJDqi07M4iYgPyQVhMwGXL0BYiLBTWlo6F+ETCOsjOYhGmvZnxP/JJ/EvnvESTzY7UcKzZ5kJvDs/Q5jKXv1/Xsf/jrRU8dweusggJYm8Q5BZDrmz+ynpvhIWxAcEzjGfO5M/w0li7/A55mS4xcwxl+3uK1mbGuA3xwl8T5bEJ5MVNse8DI/QORalh0j2ShC5MeeYLZrfV5wSLtGTeCyJf3ZSWOQcZ/EjAuY4IyXUdz7HTaKLxCGS+nkCL9f5fT0lZ0/L+NN5+SzJ2sykMG/J2dnz9fMEzHnPjChJbVyeu8d8TrgkX5jpKtlLmBokyeelekn0jKxQydpM5IOcXxskucNktk/QHINQ4AEsgBUwB7bAG3iBKAAyeasypw/ili5cLeInJmXSmcgL49FZAo7JIrqFmYUVANPvdfZzeBcy8w4hhbZ5Lb0K+YwnkTeye16LLwSgORcAxYfzmvYhACg5ADS1c8SirFlt5i1hABFQAA0oATWgBfSBMVKjDXAALki1PiAQhIFosAxwQBJIAyKwEqwFm0AuyAe7wF5QAspAJTgKjoOToBmcBRfBFXADdINe8AgMgGHwCoyDSTAFQRAOIkNUSAlSh3QgI8gCYkBOkAfkB4VA0VAclAgJIDG0FtoC5UMFUAlUDtVAv0BnoIvQNagHegANQqPQW+gzjIJJMA1WhXVhU5gBM2FfOAxeCifCK+BsOAfeARfDFfAxuAm+CN+Ae+EB+BU8gQIoKZQCSgNljGKg3FCBqBhUAkqEWo/KQxWhKlD1qFZUJ+ouagA1hvqExqKpaDraGO2A9kaHoznoFej16O3oEvRRdBO6A30XPYgeR3/DkDEqGCOMPYaFicIkYlZicjFFmGpMI+YyphczjJnEYrEKWD2sLdYbG41Nxq7BbscexDZgL2B7sEPYCRwOp4QzwjniAnFsXCYuF7cfdwx3HncHN4z7iJfCq+Mt8J74GLwAvxlfhK/Ft+Hv4F/gpwgyBB2CPSGQwCWsJuwkVBFaCbcJw4QpoixRj+hIDCMmEzcRi4n1xMvEx8R3UlJSmlJ2UsFSfKmNUsVSJ6SuSg1KfSLJkQxJbqRYkpi0g3SEdIH0gPSOTCbrkl3IMeRM8g5yDfkS+Sn5ozRV2kSaJc2V3iBdKt0kfUf6NYVA0aEwKcso2ZQiyinKbcqYDEFGV8ZNhi2zXqZU5oxMv8yELFXWXDZQNk12u2yt7DXZETmcnK6chxxXLkeuUu6S3BAVRdWiulE51C3UKupl6jANS9OjsWjJtHzacVoXbVxeTt5KPkJ+lXyp/Dn5AQWUgq4CSyFVYafCSYU+hc8LVBcwF/AWbFtQv+DOgg+KCxVdFHmKeYoNir2Kn5XoSh5KKUq7lZqVniijlQ2Vg5VXKh9Svqw8tpC20GEhZ2HewpMLH6rAKoYqISprVCpVbqpMqKqpeqkKVferXlIdU1NQc1FLVitUa1MbVaeqO6nz1QvVz6u/pMvTmfRUejG9gz6uoaLhrSHWKNfo0pjS1NMM19ys2aD5RIuoxdBK0CrUatca11bX9tdeq12n/VCHoMPQSdLZp9Op80FXTzdSd6tus+6InqIeSy9br07vsT5Z31l/hX6F/j0DrAHDIMXgoEG3IWxobZhkWGp42wg2sjHiGx006lmEWWS3SLCoYlG/McmYaZxlXGc8aKJg4mey2aTZ5LWptmmM6W7TTtNvZtZmqWZVZo/M5cx9zDebt5q/tTC04FiUWtyzJFt6Wm6wbLF8Y2VkxbM6ZHXfmmrtb73Vut36q42tjcim3mbUVts2zvaAbT+DxghibGdctcPYudptsDtr98nexj7T/qT9Hw7GDikOtQ4ji/UW8xZXLR5y1HRkO5Y7DjjRneKcDjsNOGs4s50rnJ+5aLlwXapdXjANmMnMY8zXrmauItdG1w9u9m7r3C64o9y93PPcuzzkPMI9Sjyeemp6JnrWeY57WXut8brgjfH29d7t3c9SZXFYNaxxH1ufdT4dviTfUN8S32d+hn4iv1Z/2N/Hf4//4wCdAEFAcyAIZAXuCXwSpBe0IujXYGxwUHBp8PMQ85C1IZ2h1NDlobWhk2GuYTvDHoXrh4vD2yMoEbERNREfIt0jCyIHokyj1kXdiFaO5ke3xOBiImKqYyaWeCzZu2Q41jo2N7Zvqd7SVUuvLVNelrrs3HLKcvbyU3GYuMi42rgv7EB2BXsinhV/IH6c48bZx3nFdeEWckd5jrwC3osEx4SChJFEx8Q9iaNJzklFSWN8N34J/02yd3JZ8oeUwJQjKd9TI1Mb0vBpcWlnBHKCFEFHulr6qvQeoZEwVziwwn7F3hXjIl9RdQaUsTSjJZOGNEY3xfriH8SDWU5ZpVkfV0asPLVKdpVg1c3Vhqu3rX6R7Zn98xr0Gs6a9rUaazetHVzHXFe+Hlofv759g9aGnA3DG702Ht1E3JSy6dZms80Fm99vidzSmqOaszFn6AevH+pypXNFuf1bHbaW/Yj+kf9j1zbLbfu3fcvj5l3PN8svyv+ynbP9+k/mPxX/9H1Hwo6unTY7D+3C7hLs6tvtvPtogWxBdsHQHv89TYX0wrzC93uX771WZFVUto+4T7xvoNivuGW/9v5d+7+UJJX0lrqWNhxQObDtwIeD3IN3Drkcqi9TLcsv+3yYf/h+uVd5U4VuRVEltjKr8nlVRFXnz4yfa6qVq/Orvx4RHBk4GnK0o8a2pqZWpXZnHVwnrhs9Fnus+7j78ZZ64/ryBoWG/BPghPjEy1/ifuk76Xuy/RTjVP1pndMHGqmNeU1Q0+qm8eak5oGW6JaeMz5n2lsdWht/Nfn1yFmNs6Xn5M/tbCO25bR9P599fuKC8MLYxcSLQ+3L2x9dirp0ryO4o+uy7+WrVzyvXOpkdp6/6nj17DX7a2euM64337C50XTT+mbjLetbjV02XU23bW+3dNt1t/Ys7mm743zn4l33u1fuse7d6A3o7ekL77vfH9s/cJ97f+RB6oM3D7MeTj3a+BjzOO+JzJOipypPK34z+K1hwGbg3KD74M1noc8eDXGGXv2e8fuX4Zzn5OdFL9Rf1IxYjJwd9Rztfrnk5fAr4aupsdx/yP7jwGv916f/cPnj5njU+PAb0Zvvb7e/U3p35L3V+/aJoImnk2mTUx/yPip9PPqJ8anzc+TnF1Mrv+C+FH81+Nr6zffb4+9p378L2SL2TCuAQgackADA2yMAkKMBoHYDQFwy20/PBDT7H2CGwH/i2Z57JmwAqOwHIGwNAH63ANhfgrSziD8lFoAgCqI7ANjSUjLmet+ZPn06ZI4B0D1pZunLAv8mZnv4P9X99xlMu1qBv8//BJnRBaN2YkqwAAAAVmVYSWZNTQAqAAAACAABh2kABAAAAAEAAAAaAAAAAAADkoYABwAAABIAAABEoAIABAAAAAEAAAJjoAMABAAAAAEAAAHOAAAAAEFTQ0lJAAAAU2NyZWVuc2hvdBqm40QAAAHWaVRYdFhNTDpjb20uYWRvYmUueG1wAAAAAAA8eDp4bXBtZXRhIHhtbG5zOng9ImFkb2JlOm5zOm1ldGEvIiB4OnhtcHRrPSJYTVAgQ29yZSA2LjAuMCI+CiAgIDxyZGY6UkRGIHhtbG5zOnJkZj0iaHR0cDovL3d3dy53My5vcmcvMTk5OS8wMi8yMi1yZGYtc3ludGF4LW5zIyI+CiAgICAgIDxyZGY6RGVzY3JpcHRpb24gcmRmOmFib3V0PSIiCiAgICAgICAgICAgIHhtbG5zOmV4aWY9Imh0dHA6Ly9ucy5hZG9iZS5jb20vZXhpZi8xLjAvIj4KICAgICAgICAgPGV4aWY6UGl4ZWxZRGltZW5zaW9uPjQ2MjwvZXhpZjpQaXhlbFlEaW1lbnNpb24+CiAgICAgICAgIDxleGlmOlBpeGVsWERpbWVuc2lvbj42MTE8L2V4aWY6UGl4ZWxYRGltZW5zaW9uPgogICAgICAgICA8ZXhpZjpVc2VyQ29tbWVudD5TY3JlZW5zaG90PC9leGlmOlVzZXJDb21tZW50PgogICAgICA8L3JkZjpEZXNjcmlwdGlvbj4KICAgPC9yZGY6UkRGPgo8L3g6eG1wbWV0YT4KwrfSLQAAQABJREFUeAHsnQecVNX1xw/bC7tLXRYQBKUpCCgqoqigYsFgTaIx1mhMjCVqEqPGqCQYa0xibP+Y2GKsiTUiggXQUBQQEBEEpAjS2/bK/O/vzp63b2anvJl5M/Pem3M/n93Xbv3eKWfOOffcDj6VSJIQEAJCQAgIASEgBIRAWghkpaVVaVQICAEhIASEgBAQAkJAExBhTF4IQkAICAEhIASEgBBIIwERxtIIX5oWAkJACAgBISAEhIAIY/IaEAJCQAgIASEgBIRAGgmIMJZG+NK0EBACQkAICAEhIAREGJPXgBAQAkJACAgBISAE0khAhLE0wpemhYAQEAJCQAgIASEgwpi8BoSAEBACQkAICAEhkEYCIoylEb40LQSEgBAQAkJACAgBEcbkNSAEhIAQEAJCQAgIgTQSEGEsjfClaSEgBISAEBACQkAIiDAmrwEhIASEgBAQAkJACKSRgAhjaYQvTQsBISAEhIAQEAJCQIQxeQ0IASEgBISAEBACQiCNBEQYSyN8aVoICAEhIASEgBAQAiKMyWtACAgBISAEhIAQEAJpJCDCWBrhS9NCQAgIASEgBISAEBBhTF4DQkAICAEhIASEgBBIIwERxtIIX5oWAm4jcOedd1KHDh3c1u2M6e+6dev0/DzwwANpG7O8RtKGXhp2MQERxlw8edJ1ZxE47bTTqHPnzrR169Z2Hdu7dy/17NmTRo8eTfv27Wv3XG4IgVgITJ06lSD0pCvV1tbq9mfOnJmuLki7QsBTBEQY89R0ymDSSeDRRx+lxsZGuuGGG9p149Zbb6UdO3bQ3/72N8rKkrddO0ByIyYCEMYmT54cUxk7M0MYQ/uhhLHbbruN6urq7GxO6hICnicg3wqen2IZYKoI9O/fn+644w564YUXaPr06Uazn376KT3++ON044030ogRI4z7cuIuAtBo1tfXu6vTaehtTk4OFRQUpKFlaVIIuJeACGPunTvpuQMJQOAaPnw4/exnP9Nf3C0tLfTTn/6U9t9/f/rhD39Il156KR1wwAH6y6qiooJ+9KMf0c6dO42RLF26VPv8vPnmm8a9hQsX6nuHHXaYcQ8nMIvC7BkuwW8I/l3r169vl+WWW26hvLw82r17t3720Ucf0fe+9z3q27cv5efnU58+fbSGL5qGg32Unn766XZtoO1gU9qmTZv0mHv06KHbGTp0KD355JPtyv71r38lPCsqKtKm38MPP5yef/75dvnMN6CVvP3222nUqFFUVlZGxcXFdOyxx9KHH35ozqbPIVj95S9/oUMOOUTPRffu3enUU0+lBQsWGHnR/2uuuYb+9a9/6b6Ay7Rp0/Tzzz77TPMvLS2ljh070oknnkjz5s0zyuKkqalJa48GDhyo2+jatSuNHTuWZsyYYeTbsmULXXbZZbTffvtpHjBln3nmmQSu4RJeQ4888oh+jD7yX3B+aGEPPPBAXe8RRxxB+FEQnFasWEHf/e53qUuXLrqP4Gx+7QXnxzX6Bl5I0I5x+zzXOOKeOeEaLF955RU6+OCDqbCwkMaMGUOff/65zvZ///d/NGDAAN2HcePGhRz//Pnz9RxhbvG6OP744+l///ufuRk5FwKuJZDj2p5Lx4WAAwlAK4AvwaOPPpp+//vfU3l5OS1atEh/ieNL+Ouvv9ZfvhDEvvjiC50XR3yR4wtr2LBh1KlTJ5o9ezadccYZeoQQlGDaXLJkCVVWVhIEAAgTc+bMoSuvvDIshe9///t000030csvv0y/+tWvAvLh3sknn6wFHTzAlyRMT1dddRVBaPjkk08IAtHGjRv1s4DCcV7Al+6oo47S48QXM77Q33nnHbr88sv1uK6//npd8xNPPEHXXXedFhJ+/vOfa6EWQiq+jC+44IKwrYPN3//+d/rBD35AP/7xj6mqqor+8Y9/0CmnnKLHM3LkSKMs2oQACYH2iiuuoObmZgJnzAMEEk4ffPCB5of+duvWjfr166fnDUIe5gF8c3NzCcIEhIhZs2YZAjKEkrvvvlvXf+SRR+oxQtjD62HChAm6iXPPPVfXd+211+q6t23bpoW1DRs26Gvuh/n4k5/8hL799lud75///Kf5kXEOwRXjR168ru677z4655xz9OsP/UXC6+6YY46h3r17080336yFV7wuzjrrLPrPf/5DZ599tlGf+QTz9thjj+nXCvKgXiT8CImUwBeC3tVXX62zgc13vvMdzRAmfvyAwY8D9BU/UsCeE84xVxC0oX3G++Gpp56iE044Qc8b+EoSAq4m4JMkBISA7QTUl7dPfen5lNbEp4QDXb8Sdtq1o0yaPvUB4lPCl/Hs9NNP96kvF+Nafdn58Jedne1Twou+r77Qdbk33njDyBfqRGkffOoLLOCRErR02Weffda4H6pv6svSp77IfUqzZuRTX4S6LN9Yu3atvlZfjHzLOGJcyM9JCUA+pfnxKd85vqWP559/vk9pO3zcB6UZ8imtWEAeKxdKoPI1NDQEZFVf7j6lhfOpL3fjvvpi131WAp9xj0+UkMunOo/60vcpocW4hxMlrPiUVtG3Zs0a474SjnwlJSW+4447zrinTNI+zGW4hL6B0f333x8uS9j7SqDRZYMz8Hwogdq3a9cu4zFeJ2jrrbfeMu4pbZ5PaQZ9yvRq3MP41Q8Jn9LmGfdCnWzfvl3XZ55fzhf8GsF9tK00iz70j5MSYPV99cPEpwRpvu1TWlt9n/OiT+iPEqp95vnB60W5BviUYGuUlRMh4FYCYqZUnxKShIDdBO666y6tYcIv+D/96U+6ephmOMH3CA790BQhQVvCCVoXXNfU1OhbH3/8MU2cOJGg2YF2AQlHaDxg9oqUzjvvPIKZUwkORraXXnpJm65gDuNk7hvaRd+g3VMfbASTXKIJ9UDbMmnSJF0n6uc/aK6w2pQZQDMIjVwos1qkfihhVZtekUd9aZMSRrTGC5ourhvP0A+wU0IDLgMS7psTTGEwq3GC2Rn+gNAewdzMCeZFaO0wV9DQIWEc0D6tWrWKswUcwRym4plqRSKbiwMyJHCBecfKXk54TSFBM4sENtA2QXsKDRrPBUzmmA/0GSZlOxNMuf2UZpETm9ihHVSCLN82NIvc18WLF+v+gC/6x33F6xR1QouM+ZYkBNxMQIQxN8+e9N2xBGDCGjx4sPa9gn8UEr4AYXbDNb6IYe6B0z8ShBFO+OKE2Wzu3Lm0cuVKgukK95TWJUAYg5AAX59ICX5gEAghgCFBKIJJEiYf9JETzGLwRUJ98IFC3yCIIJn7xvljPSpNCu3Zs0ebZVG3+Q8+U0gYJ9Kvf/1r3QeYnuBvBbOWVd+gZ555RpvL4EAOcyvaefvttwPGAMG0V69eUdmhLzw/OEfCOJRGRs+t/07b/4MOOkgLBd98842++bvf/U6PedCgQdo3DaZimFs5wQft3nvv1aZavCYwvzDRwY8s0QTfP3NiwYyFvtWrV+vXwm9/+9uAuQAvFlJ5Psz1JHIe3Cf4fiHBP9Gc+D73lYXZSy65pF1fYZZW2tCA+TXXJedCwC0ExGfMLTMl/XQ9AWgh4OeFL2VouSD04Bc9HMfNv+yhyYEwgV/8+AKD3xm+0CGQwbcGXz7QjIXz6TGDgtCBcvAFQngN+ERB8IIQwAnaHvgwQViEIDRkyBDtPwTNCAQ0c9+4DB+DNUl8H3WaE9dx4YUXEr5UQyX2OYJQAyH0v//9r/a1gyYL44ZzfqRwDs8995zuL7RWYAxu0JbBN8msGQzVdrh7Zo1huDzh7kO4QrvKRKi1aRAcoCXFylr4qSHBTw7awtdff53effddgnCE/kJrdeihh4arOup9jDtUgjCOxPPxy1/+UmvCQuWFQ72dKVyfwt0P7qsy5+r3Tag+4b0kSQi4mYAIY26ePem7awjgV/7777+vhQkIFZz4Vz9f4wjTFbRCELggjEGYQsIRghhW98EZHl/2VhJMVnCOhoADDRlWokEA4IQVbV999RVBq3TxxRfz7YBVf8bNoBPWuEDrZU7BKzihcYEpCkLaSSedZM4a8hwrIdFv/GGVJJzEYfrFKtBwYRP+/e9/a9Phq6++qs2QXDFrevgaKwwh+ED4jKZZ5DJ8xDjADyyDE1YmQgtp1vSgfmj+8FddXa3nDI79LIyhDvTnF7/4hf7D6wGC+h//+EeCcBkuhROCw+UPvs8mVjjzW5mP4PKJth9cX6Rr8EGCJjeevkaqW54JAacQEDOlU2ZC+uFpAvzrn3/t82D//Oc/82nAEYIXVg8iLAMLY1jNB60Ra7X4fkDBEBfwyUH7iH8GEyVWsEHY4RSqb+gnQj9ES/iCRL+gxTMnaLLMCW2gH9ByLVu2zPxIn8P8x8kc6gP3IJzCJIs+IVxEuBRqHGAIc685oR+oK5SWLXh+zOVwjjawChXaLoR44AThGCsY4cPH5t/gcUB7A20TBGokmDuD45ZB8IDQynm4/uAjz1+wEBycL9w1tIbjxo3Tq0A3b97cLpt5Pto9VDcgkCLF274ubPEfVlCCC0K1QKANTtH6GpxfroWAEwmIZsyJsyJ98hwBfEGzTxAECoQTgCO4WjEWcqwQtKAJgv+RWehCHQijAEdoxKaykvDFO378eHrwwQe1sza0TeYEsyS+7GCygmkSfYXQxD475ryhzqHlueeee7S2ByZWCGbQtAUn5IFwCcdthJ6AgAXtFJzr33vvPX2OMhB2EPoDYRfgS/Xll1/Sww8/TGplYoCjd3D9EDKhFYP5FnnBFiZBtGP+EgeLiy66iB566CHtGM5mYmgi8QxhLCKlKVOmaK0hBC9oHBHOBHMCAQo+X5zQLgQeCBPQkCGsBbR3XD8YwQEd5mvkRT2vvfaa1nqqFaZcTcgj6kRCCBA43ENIjFYmuCLEKsMYEGsN8wFtGYRKCK9YQIFQKuESzLfoMzStMKFjfAjLgj+7E7SNMPHCzxGx56BlxPsHr1W8nvB6VatE7W5W6hMCqSWgfglKEgJCIAkElAN8QIgG9QXnU4KCT62y06EclHO9DyER1Dvep0xpAT3AUn/1BavDJSBkAydlutL5lTDBtywdVewuXQ7hF1Qg13Zlli9f7lMmIB2KQ2m6fOrL2ae+jHUZc9gK9BP9NSeEGEDYCoSnQP1KuPAp52+dL3hc6sveh7AMypSnQ38grAFCLKjYbEaVCHmghE4fwjMgHIISFH3KB8ynFhIYeUKdKD8o3x/+8AefCrCryymfK5/yO/MpHzV9z1wGTBFSQgmiOkyFMj/61Je9T608NbJhnOhrqKQESB1qQWm7fEpL5FNCnE/5AwZkVUKbDlGC+VbCi25LCdg+ZXbV+dSqQF0/+qA0XZqfElR9yr8voJ5QF+i/ik3mQ7+VydCYEyWA6vNQ4TJCvc6UT5tPmaZ9mAeEYlFCjk8JtT4lNIZqNuAexouwKQjzYa471GskFMtwfVUClq5PaXED2lOrenWIF35dYJ7xWlPm/4B8ciEE3EigAzqt3iiShIAQEAJCQAgIASEgBNJAQHzG0gBdmhQCQkAICAEhIASEABMQYYxJyFEICAEhIASEgBAQAmkgIMJYGqBLk0JACAgBISAEhIAQYAIijDEJOQoBISAEhIAQEAJCIA0ERBhLA3RpUggIASEgBISAEBACTECEMSYhRyEgBISAEBACQkAIpIGABH21CB17uamYUDroZCq3ArHYPckmBISAEBACQkAIhCCACF5VVVWEvXoRRNiJSYQxi7MCQcy855zFYpJNCAgBISAEhIAQcAAB7GhideeSVHdXhDGLxLFfHBImk/eei1YU295gyxts74INeSUll4DwTi7f4NqFdzCR5F4L7+TyDa5deAcTSe51MnmrHU20MoW/x5M7kvhqF2HMIjc2TUIQi0UYw4a6yC/CmEXQCWTDm1l4JwAwxqLCO0ZgCWYX3gkCjLG48I4RWILZU8Gbv8cT7GpSijvTeJqUoUqlQkAICAEhIASEgBBwHgERxpw3J9IjISAEhIAQEAJCIIMIOE4Yu/vuu+mII47QqxbLy8vprLPOopUrVxpTsmvXLrr22mtp8ODBVFhYSH379qXrrruO9u7da+QJdXLppZcSVJTmv1NPPTVUVrknBISAEBACQkAICIGUEXCcMDZr1iy6+uqrad68eTRjxgyCHRkO8DU1NRoKVjXi74EHHqBly5bR008/TdOmTaPLL788KjQIX5s3bzb+XnjhhahlJIMQEAJCQAgIASEgBJJJwHEO/BCszAnCFjRkCxcupOOOO46GDRtG//nPf4wsBx54IN1111104YUXUnNzM+XkhB9Sfn4+VVRUGGXlRAgIASEgBISAEBAC6SYQXnJJd89a22fzY5cuXcL2CHmwYjGSIIbCM2fO1IJd586d6YQTTqApU6ZQ165dQ9bb0NBA+OOEpbFI0NThz0rifHy0UkbyxE+AOfMx/pqkpBUCzJmPVspInvgJMGc+xl+TlLRCgDnz0UoZyRM/AebMx/hral8yGXW2byWxOx1UZFpfYlUkrzSi3p9xxhm0Z88e+vjjj0M2tGPHDho1apTWjEFDFi69+OKLOuxB//79ac2aNXTrrbdSx44dae7cuZSdnd2u2J133kmTJ09ud//555/X9bR7IDeEgBAQAkJACAgBxxGora2lCy64QPuWWw1NlepBOFoYu+qqq+idd97RglioqLnQVk2YMIGgNXvzzTdjiuX19ddfE0yc7733Hp144ontuIfSjCECP4Q/q5MJaRx+b+ijxBlrh9j2G8LbdqQRKxTeEfHY/lB42440YoXCOyIe2x8mkzdkhW7dujlaGHOsmfKaa66h//73vzR79uyQ2xdgnyk45COi7muvvRazsHPAAQfoyVm9enVIYQz+ZfgLThCqYhWs4ikT3K5cWycgvK2zsiOn8LaDovU6hLd1VnbkFN52ULReRzJ4o06nJ8cJY7CaInQFBCz4eMGsGJwg5Z5yyilaWIJGrKCgIDhL1OuNGzfSzp07qWfPnlHzSgYhIASEQLIItOzz0Sdrd9G2qnoqLymgI/t3oeysDslqTuoVAkLAgQQcJ4whrAX8st544w2t9dqyZYvGVlZWpuOKQRBDqAvYgJ977jnCNf6Qunfvbvh/DRkyhBCz7Oyzz6bq6mrt/3Xuuefq1ZTwGbvppptowIABWqjTheVfRhCQL76MmGbXDHLass00+a3ltHlvvdHnnmUFdMekg+nUYfJD0YAiJ0LA4wQcJ4w99thjGvm4ceMC0D/11FOEwK2LFi2i+fPn62cQpsxp7dq11K9fP30LgWJ5JSYc9JcuXUrPPPOMXgzQq1cvLdD9/ve/D2mKNNcp594hIF983plLL4wEr8ernltEwSuotijBDPcfu/AwEci8MNEyBiFggYDjhLFoizshpEXLg3Gb8yBS/7vvvmsBh2TxKgH54vPqzLpzXNDQQiMWLIhhNLgHIyWeTzi4QkyWgCJJCHicgOMi8HuctwwvDQSiffGhS/jiQz5JQiAVBOAjZjZNBreJVyKeI58kISAEvE9AhDHvz3HGj1C++DL+JeA4AHDWt5Ks5rNSl+QRAkLAuQREGHPu3EjPbCJg9QvNaj6buiXVZDABrJq0kqzms1KX5BECQsC5BEQYc+7cSM9sImD1C81qPpu6JdVkMAGEr8CqyXABLHAfz5FPkhAQAt4nIMKY9+c440coX3wZ/xJwHADEEUP4ilCJBTQ8l3hjoQjJPSHgPQIijHlvTmVEQQTkiy8IiFw6ggDiiCF8RV42i1/+blUojZiEtXDEFEknhEDKCIgwljLU0lA6CeCL75ELDmvXhR6l+fLF146K3EgVgZNV6Iq87LaPYQTen/nLcRJfLFUTIO0IAYcQaPsUcEiHpBtCIFkEDu/f2ai6W8c8fX77d4bKF59BRU5STWD9rlqqbmyh/JwsylN/iK6yraoh1d2Q9oSAEEgzARHG0jwB0nzqCGzd6/+S616ST98Z3ks3/PGaHanrgLQkBIIIfL5pr75zUM9S2q9zoT7/RglokoSAEMgsAiKMZdZ8Z/Rot1T6Yzthldrxg7prFrO/2h6wW0NGA5LBp5zA5xv36DYP6V1GfToX6fNvdoswlvKJkAaFQJoJiDCW5gmQ5lNHYMveOt1Yj9ICGn1AF+2rs3F3Ha3dUZO6TkhLQsBEgDVjEMbaNGP+16kpm5wKASHgcQIijHl8gmV4bQTMmrGivBw6vJ/fhwzaMUlCINUE9ikHsS82Vepmh0Ez1kU0Y6meA2lPCDiFgAhjTpkJ6UfSCfBegNCMIR3HpspV4jeWdPjSQDsCcN6vamjWzvsDe3Q0zJTQ1koSAkIgswiIMJZZ853Ro93a6jNWwcLYQL/f2Nw1O6mhuSWj2cjgU0+ATZRw3s9V4S36dBEH/tTPgrQoBJxBQIQxZ8yD9CIFBLbsbXPgR3MH9Syhbh3zqa6phRau352CHkgTQqCNgNl5H3fZgR+hLerVa1KSEBACmUNAhLHMmeuMHykLYz3UakqkDh060HEDu+nz2V+JqVKDkH8pI8CaMTjvI3UqyqWO+Tn6XEyVGoP8EwIZQ0CEsYyZ6sweaFV9E9Wo4JpIbKbEueE3Jk78wCEpRQSCnffRLH4cGCsqJbxFimZCmhECziAgwpgz5kF6kWQC7C9WUpBDxa3aBzQ5tlUztnxzJW2XyOdJngWpngkEO+/z/f1aY41tlMCvjESOQiAjCIgwlhHTLIPklZRmrRiowGdsWO9SDeijVRLiQl4pqSGwtDXYKzvvc6vsxC9mSiYiRyGQGQREGMuMec74UbK/WEWrv5gZyHGtqyo/khAXZixynkQCy1q3QWJ/MW6KnfglCj8TkaMQyAwCIoxlxjxn/CgNYaw1rIUZCPuNQTMGXx5JQiDZBIKd97k9I/DrLok1xkzkKAQygYAIY5kwyzJGMkffD8ZxWN/OVJyXTTuqGwm+Y5KEQDIJhHLe5/bYTCmaMSYiRyGQGQREGMuMec74UbIDP4e1MAPJy8miMQd21bdmi9+YGY2cJ4FAOOd9NMUO/HtqmwgrgCUJASGQGQREGMuMec74UbIDf88QPmOAw6ZK2acy418qSQcQznkfDSPOWGcVbwzpGzFVag7yTwhkAgERxjJhlmWMZGjGQviMAQ878SMSf43aL1CSEEgWgXDO+9we+41tlFhjjESOQsDzBEQY8/wUywCx7yT8wZCCQ1swnX7diqlvlyJqavHRvK938m05CgHbCYRz3ueG2lZUihM/M5GjEPA6ARHGvD7DMj7aVtmgKeSpzZi7FOeFJXKssTWSxBsLC0keJEQgkvM+V7yfbBjOKOQoBDKGgAhjGTPVmTtQw0RZlq+3nAlHwvAbk3hj4RDJ/QQJRHLe56pZMyZmSiYiRyHgfQIijHl/jjN+hIbzfmlhRBZHqxWVOVkdaO2OGuU8XRsxrzwUAvEQiOS8z/UZ+1OKAz8jkaMQ8DwBEcY8P8UywDbNWEFEGCUFuYSYY0izZOPwiKzkYXwEojnvo1Z24EesMZ9PghDHR1pKCQF3EXCcMHb33XfTEUccQSUlJVReXk5nnXUWrVy5MoBqfX09XX311dS1a1fq2LEjnXvuubR169aAPMEX+FC7/fbbqWfPnlRYWEgnnXQSrVq1KjibXDuQQIuKij93zU56Y/EmfcR1LIk1YxWl+VGLHTeom87z+meb4m4vaiOSIWMJRHPeB5jenfwa3NrGFtqt4o1JEgJCwPsEHCeMzZo1Swta8+bNoxkzZlBTUxOdfPLJVFNTY8zGDTfcQG+99Ra98sorhPzffvstnXPOOcbzUCf33XcfPfTQQ/T444/T/Pnzqbi4mE455RSCYCfJuQSmLdtMY+/9gH7wxDz6+YuL9RHXuG81cfT9irLIZkrUl5Plf0ssUCEu4m3Par8kX2YRMDvvH7JfWdjBF+RmU4/WHw5iLg+LSR4IAU8RcJwwNm3aNLr00ktp6NChNGLECHr66adpw4YNtHDhQg1+79699I9//IMefPBBOuGEE2jUqFH01FNP0Zw5cwgCXKgErdif//xnuu222+jMM8+k4cOH07PPPquFuNdffz1UEbnnAAIQuK56bhGxZou7hH0mcd+qQLZV5UcKF9aC60V9905bwZfGMdb2jIJyIgRMBNbtrKEqFcMuX+34MLC8o+lJ+1N24pdtkdqzkTtCwIsEcpw+KAhfSF26dNFHCGXQlsHMyGnIkCHUt29fmjt3Lh111FF82ziuXbuWtmzZElCmrKyMRo8ercucf/75Rl4+aWhoIPxxqqz071mItvFnJXE+PlopI3n8BGCKvPPNLyiUQRL3Oqi/yW99QeMGdqVs5XSPxJz5qG+qf5v3+uM1dS/OMfLwMz7G0x6XzdQjc+ZjpnKwOu7FG3bprEMqSsi3r4Wa1F+41LtTAS1YT7Rue7XxmmXOfAxXVu7bQ4A589GeWqWWcASYMx/D5YvnfjLqjKcfkco4Whjbt28fXX/99XTMMcfQsGHD9DggVOXl5VGnTp0CxtWjRw8tcAXcbL1AGSTkMadIZeC7NnnyZHN2fT59+nQqKipqdz/SDZhbJcVGYNXeDmpz7+ywhSCQbd7bQA+/NI0GlgWKbGbecC/bshf1dKAvFs6hzctCV5lIe6FrzJy7Zt6ZM+rYR/rWOhgisqikaTdNnTo1YgV1O/x55yxdSX2qvwzIK7wDcCT9QngnHXFAA8ngXVvr/NXxjhbG4KS/bNky+vjjjwMmKxUXt9xyC914441GU9CM9enTR/uvlZaWGvcjnUAaxwtrwoQJlJvr328uUn551kbgraXKJ2z55203wpwdMHQkTRzeUz8NxXtHdQO1zJul4osRnXfGqZSrAr+GSrG2B00a/Mq2VTVQeUk+Hb5/Z0NDF6p+L94LxduL47RrTM8/+amqajdNHHMITRzVO2K1NQs30fRNX1BWSXeaOHGUziu8IyKz/aHwth1pxAqTyZstWxE7kOaHjhXGrrnmGvrvf/9Ls2fPpv3228/AVFFRQY2NjbRnz54A7RhWU+JZqMT3kQerKTnheuTIkXwZcMzPzyf8BScIVbEKVvGUCW430657diq2NGTkC54PM++drb+IunXMp6KC9vPJjVht74vNVZSbk0N/mPplgC8bNiC/Y9LBdOqwttcX1+31o5m318ca7/jgvL/82ypd/ND9u7R7zQbX26+736fs2z317fIK72Bayb0W3snlG1x7MnijTqen0GqCNPYazvYQxF577TX64IMPqH///gG9gcM+wL7//vvGfYS+gJP/mDFjjHvmE9QBgcxcBpIyVlWGK2MuL+epJ3Bk/y4EAUcptEIm3Mdz5IuU4HyPFM15P1p73MY/Pl5H177wWYAghmfi5M+E5BiKQCzO+yjPDvwbd9cRBDlJQkAIeJuA44QxmCafe+45ev7553WsMfh74a+uzu+EDcf7yy+/XJsQP/zwQ73K8rLLLtNCldl5H079EOiQOigbFXzPpkyZQm+++SZ9/vnndPHFF1OvXr10HDNvT7E7RwenfGiaQn0NsYCG5+y8H26UmytbhTEluEVK3B7ycP2cH9f4+64yLbWuFeBHxpH7Ofmt5RRrHDSjEjnxLAGOL3ZQz1LKCWMqNw8ePzTwmmxs2adN4eZnci4EhID3CDhOGHvssccIKyjHjRunTYowK+LvpZdeMuj/6U9/ou985zs62Otxxx2ntV6vvvqq8Rwn0JbxSkxc33TTTXTttdfSlVdeqYPKVldXE8JoFBRE/pJGWUnpIQCT34lDyts1Xq5iMD124WGWTIJWw1qgEbSHeiuCBDdc4/65h/WhSEoKCGQIw/HJWv+quXYdlxsZS8BK5H0zHAhsvdSKSiQJb2EmI+dCwJsEHOczZmX7DwhQjzzyiP4LNy3B9UA79rvf/U7/hSsj951FQAfJ/NYfUuQXEwbR03PW0c6aRvrj90bQ2IHdLXWWY5QFC1jhCkMgm3BwhRaotlXVK+d8vykUWgrsAGAloZwkIWAmwJqxQ3qHD/Zqzo/z/ToVqT1S6/Q+qUf0i2yODy4r10JACLiLgOM0Y+7CJ71NJgGsVkT0/JKCHLry+APo0NZ9I1dtq7bcLO9LGc1nzFwhBK8xatPwM0f21kdcI0Ews5Ks5rNSl+RxPwH9o2KT/0dFpMj7wSPt08W/YwQEMklCQAh4m4AIY96eX1eP7q0l3+r+nzK0QkUtzyYEy0RaucW/Kk1fRPnXthWSNUEqUnXRnPwhsllZVBCpDXnmLQLwH3xdaVQReT9XCfUHdLO2ShgU2pz4nR8jyVuzJqMRAqknIMJY6plLixYINCvH5amf+/efnDSily4xmIWxrTEIY7yaMsgPzEIX2mWBhgyLBpD8urK2LHxtZVFBWyk58zIBbK+FfVRvfHmJHmaTEszGPTDT8jZefbr4g0uLz5iXXyUyNiHgJyDCmLwSHElg7tc7tX9Yl+I8OlqZDJFYGPtKacasLPevqm+iaqWRQIrFTKkLhPkXzckfzyUJATv2VRUzpbyOhEDmEBBhLHPm2lUjZRPlacMqjKj5/ZWJJze7A9U0ttCmPdH9aNhfrCQ/h4rVn10JAtfHvz6B0B+kX58yWF+LIGYXYXfXA9MkQpxwuBPzaPielRAobKbE3qpNSlMsSQgIAe8SEGHMu3Pr2pE1NLcoU84W3X82UeICWxkd2BqZ3Irf2Ba1dyWS1ZWUOrPFfzBZdldR/ZH6di2OGu/MYrWSzQMEENqEV/GGGo7VECjYNSIvJ0uHU9msIvFLEgJCwLsERBjz7ty6dmQffbWDKuubqYeKJxa8pJ9NlSst+I3Z6bwfCmZhnn8j87qmllCP5V6GErAa2iRaviwl8O/XuXVF5W5x4s/Ql5MMO0MIiDCWIRPtpmG+tdS/ivL0Q3q10zgZwpiFFZVblHkHyS5/sWCGRSyMNfr90oKfy3VmErAa2sRKPjZVbhRhLDNfTDLqjCEgwljGTLU7Blqn/MHeW75Vd3bSiPbO8IN7WA9vkSrNWK3qsyQhwAQ4BApfBx9jCYEiTvzB9ORaCHiTgAhj3pxX147qw5XbtIM+zDMj+3RqNw7WjK3ZXk2NzZGdmnmT8B6liccYa9cRdaMwV8yUobhk+j1zCJRgFrGGQGHNmIS3CCYp10LAWwREGPPWfLp+NLyKEo772MIqOPXuVEgd1crIZrVibe2OmuDHAdesGUMg1mSkNjOlaMaSwdfNdWK7rnzlfB+ceJ9TqytvjVhju8RnLJilXAsBLxGwb72/l6jIWNJCAHHBPlixTbc9abg/0GtwRyCgDerRkRZt2EMrtlQasceC8+GaV1MmTTOW53/7iJkyFP3Mvvfaoo3UoDS3/bsV0R/OPoS2VTUE7HNqlU6bA3/0UC5W65R8QkAIOI+ACGPOm5OM7dF7X27VX2AHdi+mg3r6fcNCwRhcUaqFsa8irKiECXNHtT+0RbI0Y2ymFGEs1Cxl7j2fz0f/nLdeA7h4TD+1v2m3uGGwmXK7EubqZdVu3ByloBBwOoH2enSn91j651kCby1p2/4olImSBz5YacaQIsUa47ABeSo2GaL4JyOxmVK+JJNB1711Is7YV1urtU/hOYftl9BAOhXlarM8KtkkscYSYimFhYCTCYgw5uTZyaC+7altpNlfbdcj/k4YEyXjgGYMaUWE8BYcfb9cxSqLJNhxnfEcOc5YrYS2iAefZ8s826oVO+vQ3lRWmJvQOPHaZVOlhLdICKUUFgKOJiDCmKOnJ3M6h4j7cMo/qGcpDSj3a77CjZ5XVG7cXWfsPRmclyOgJ8tEifZYMyZmymD6mXu9rbKe3m3dPeLCo/raAoKd+PF6lyQEhIA3CYgw5s15dc2osI/f3DU76cn/rdV9Pn14RdS+w+zYvcS/FVE4v7Fkh7VAJ9lnTCLwR52yjMnw4qff6B8Vo/bvTEN7ldkybvYb+0aEMVt4SiVCwIkExIHfibOSIX2atmyz3lCZtVgY9jNz1tMAtf9ktKX/QypKCE7NXylT5WF9O7cjxsJYMjVjbKZEoFpJQqBZbeb9/PwNGsTFY/a3DUibmbKOhtsj39nWN6lICAgBewiIZswejlJLjAQgiF313KJ2GyrvUAIW7uN5pDSoNRJ/OL8xjjGWrLAW6FuRhLaINEUZ9wyrgfG666o0t6cOi67htQrIMFPuETOlVWaSTwi4jYAIY26bMRf1l02QbyzepE2RuEbCcfJby8l/FTggvofnnD8wh/+K/cbCrahkB/6eZf6NlkPVkeg99hkTM2WiJL1RnsNZnHdEHxXw1b87gx0j4y2RNu2ut6M6qUMICAEHEhAzpQMnxQtdCmWChMnwjkkHU3OLr51GzDxmCGQwXSJEwJgDu5ofGecwUyKF8xlj02dFmd+3zCho44nhMyZmShupurOq1duq6X+rd1KW2jTigtH2OO4zCfYZ21PXRPWyJz1jkaMQ8BQBEcY8NZ3OGAybIFnLxb2CgPRTZYK0mjhWWKj8A8tLVMgKop01jdp3jB36kXef0rxtq/QHfE2mmdLwGVPBONFmFr6JJWUkgedaw1mcMKSHCkVRZCuDYrX9Fxat7FKv9Z3+l7Wt9UtlQkAIpJ+AmCnTPwee6kEkE2SsAy0vCb+nJASh/bv4v/SCTZW7VcyyRuVMDWEtUh2x9ic4P5spcb++WZz4g/lkynVNQzP9Z+FGPdyLxuyflGH36ew3t+9sEIE/KYClUiGQZgIijKV5AtzaPIQuhKQI9geDaZFNhJHGhl/64b5WcB8mzSP7d4lUhbEv5cqgbZG2tGrFuhbnU16IzZojVhrDwwKTX5DEGosBnEey8nvgd8q/sUoJZPt3KaRjB8S/9VEkLPu1/vDYKW5jkTDJMyHgWgJipnTt1KWv4+H8wW47/SD6aNUOSx07a2Qveup/67RAZjZnsoAG37LsKGa/wWpF5btfbFXbIlUGtLlVrchESmZYC9QPs2RBbpbaM3AfSXgLEMmcFOo9sKu2iaYv3xI1LEs8lDi8xS7RjMWDT8oIAccTEM2Y46fIWR1kf7Bg7Reur37+M0LQSytpwsEV9NiFh1GF0oCZE65xP1qcMZThbZFWqn0AzYljjCXTX4zb4/AWsqKSiXj/GO49UK28662EZYmHEDvx7xKfsXjwSRkh4HgCohlz/BQ5p4NW/cFKCnIIX0xmjRePApovCFwwQULzBaEMpk0468O/i+9z/kjHwRX+bZNWKTMlHOg5bW01UyZzJSW3xSsqxUzJRLx9jPQewCsQr2+EZcHrOppmNxZSHGtsZz3rjmMpLXmFgBBwOgHRjDl9hhzUP6v+YFeMPUD3Ovhrg6/NJkh8YSF8xZkje+tjLF9g/boWa58wCELf7K41SHHA12TGGOPGeEWlbBbORLx9jPYegEAGLTHy2Zl6tWqQtymfsXlf74wYg8/OdqUuISAEUkNAhLHUcPZEK5FCTZgH2K9bUcImSHN94c5zsrP01kl4bl5RyZqx1Jgp/cE961V4C0neJ2D1PWA1nxViMIte9I/5OmuLrwNd9NRCGnvvB1F3qbBSt+QRAkLAGQTETOmMeXBFL6yGiUA+aLsSMUFaBYJI/Ms3V2phbPwgf4DYtuj7gf5oVuuMJZ+YKWOh5f68sbwH7Bgt+6e1GeH9tcIvEv5pVv0r7eiL1CEEhEDyCDhOMzZ79myaNGkS9erVS8WJ6kCvv/56wOhxL9Tf/fffH5DPfHHnnXe2KzNkyBBzFjm3QAD+XFihyObG4CK4bw5JkYgJMrjucNe8LdIKU3gLDm2RSs2Y+IyFmyFv3Y/1PZDI6KP5p6HuaNuGJdK+lBUCQiB1BBwnjNXU1NCIESPokUceCUlh8+bNZP578skntaB17rnnhszPN4cOHRpQ7uOPP+ZHcrRIAMIV/L1CJRbQzP5gofLZfY+Fsa+2VOmq65W1sFrFfEIKXqmpb9r8j33GxExpM1iHVpfK90C6/NMcil66JQQ8TcBxZsrTTjuN8BcuVVRUBDx64403aPz48XTAAX6n8YCHpoucnBwKLmt6LKcWCSDkBEwjCGOBX+6cIPhAELMSkoLL2HFErDGkr3fUUEPzPtrb6K+1RG0h01H9JTsV5vrbEM1Yskk7p35+D/zq30upyrRZpN3vAat+Z1bzOYeg9EQICIFgAsn/tgpu0cbrrVu30ttvv03PPPNM1FpXrVqlTZ8FBcqfacwYuvvuu6lvX3s39I3aCY9kwJdRfvZiqlXC2G8mHkTDepfFFJLCTgwwiyKUBr4U1yqBbE+jX0fXo3X1mZ1thaqLt0QSYSwUHe/ew3tg2beV9PAHq+mYAV3pmvEDbX8PpNo/zbuzJSMTAs4n4GphDEJYSUkJnXPOORFJjx49mp5++mkaPHiwNlVOnjyZjj32WFq2bJkuH6pwQ0MD4Y9TZaU/yntTUxPhz0rifHy0UsYNebAXX62KOo907qE9tTC0r6WZ9qVpQeGg8o60cMMeWv7tHkMz1qMk3/I8JcJcbZGpU019Y0raS6Svdpfl1zUf7a7f6fVV1/nVsAerRSSH9y1Vr3973wOH7ldCFaX5hNXBbTroQCrdO+YR8mXqHATSsPeKmfLR3tqltmACzJmPwc8TuU5GnYn0J1RZVwtj8Bf74Q9/SNB2RUpms+fw4cMJwtn+++9PL7/8Ml1++eUhi0JzBqEtOE2fPp2KivwbVAc/C3c9Y8aMcI9ceX+H3h8vh3KzfDT7/enKZy+9wyhogOtjFk2f/wUVtApHTZXbaerUqUnv2KZv/G2vWL1Wtbcm6e05sQGvvb6tMl6xxj/3365fo+Z+tdViMeWbWNGBnqxEO0jmNxrEsw7U1NhAb7z9jvG619nkn60EMvX1bSvEGCpLBu/a2rY4lDF0JaVZXSuMffTRR7Ry5Up66aWXYgbWqVMnGjRoEK1eHf4D9JZbbqEbb7zRqBuasT59+tDJJ59MpaWlxv1IJ5DG8cKaMGEC5ebmRsrqqmcL1+8m+uxT5SBfRKeffmza+757/gb6339XUHNxd9qrhDCkUQcfSBNPGpj0vm36eC1N27iKynv2pokTD0l6e05qwKuvb6uMp724hGjbVjr0kINp4pj9rRaLKd9Elfswtf/qlKkriFcJowKYMLFoZI8yz79X1YsePn+E3is1pspTkBl+pQvU58U2tV9sudJWH75/Z1t3JkjmEDL99Z1MtqHqTiZvtmyFatcp91wrjP3jH/+gUaNG6ZWXscKsrq6mNWvW0EUXXRS2aH5+PuEvOEGoilWwiqdMcLtOut5d57dHlpcWxMwiGeM4qFcnXe2qbTXUpVWJ0LtzcUr6VlKQp9uub/alpL1k8Eu0Tq+9vq3yYFN9WVF+Uuf+OyP3o9OG96a5q7fR9I/m08nHjqYxA8pp6cY9dN7/zaMZX26jxz5aR9efNMhq11OSDzHSEHrDvI8tfDzTsdAnkQFn6us7EWaJlE0Gb9Tp9MT6b8f0E4LS4sWL9R86tXbtWn2+YcMGo4+Qcl955RW64oorjHvmkxNPPJEefvhh49Yvf/lLmjVrFq1bt47mzJlDZ599NmVnZ9MPfvADI4+cWCewvdrvS9e9Y3th1Xot9uUcUuHXVH6rAmFurfObciqUoJiKVJDrt4uKA38qaDurDQ6hkopVuwipMVrF+RvVzaePuD60b2eacvYwDeXP762id7/Yolc4z12zk95YvIlwNK94TiU9DlZrFsTQPgerxXNJQkAItBFwnGZswYIFOlQFd5FNhZdccgk9rZzwkV588UXy+XxhhSlovXbs2KHz4t/GjRt13p07d1L37t1p7NixNG/ePH1uZJITywS2K5MDUndldnBCKivKVY7OBcqMU0/bWzdSTkWMMYy9KM//FqqT7ZCc8FJIaR+wkAWpo1rNm670/cP7qIUrlfT0nHV03Quf6cU0O6pb47uoTqVDExUtWC1+LiVjM/V0zYG0KwTsIJC+T5EwvR83bpwWtMI81revvPJKwl+4BA2YOUF4k2QfgW1qdReSU4Qx9GWQWtHGG4TjOnXCmF8zVqc2K5eUWQQ4xlgqNGORyP7m9INozpod9NXWamowCWIow5qoVG6bFEuwWmybJkkICAEsQZMkBGIkYJgpHaIZQ/eHKGGMU252B+pS5Pfl4nvJOnIE/tpGv5YkWe1Ivc4jkEozZaTRZ6nlzHtqQ4fb4ZAYqdw2yWoQWqv5Io1dngkBrxAQYcwrM5nCcRhmSof4jGHoA1SsMU5lymzEX0J8L1lH3ii8vjXuWrLakXqdRQBuEk4wU4IKNFFYrRgu4b0A3y3kS0WSYLWpoCxteI2ACGNem9EUjIeFsXIVkNIJCc7A901bYXRlR00Tjb33A0qFk3BbBH7RjBkTkAEn2HqrWYVtQCpOwbZbkZBa1TBZzRepLSvPsJl6JDcB+IzBlw35JAkBIeAnIMKYvBJiIrBPfQHt4NWUDjBT8qots9MyBsS+MskWyNrMlOIzFtMLyeWZ2USJYRS3LuJI15CcponCSs/xg7uHxOFf60w6vAXySRICQsBPQIQxeSXERGBPXZOhEehanF7NWLRVWxhYsn1l2EwJTUm6wgjENIGS2RYC1a0bhEMzmm6hAhomaJoiiTap1ESt2lpFry7apDlj31hzgsYslYsJzG3LuRBwMgERxpw8Ow7sG5soO6twEnk56X35xLJqK1koObQF6kdEdEmZQYA1Y+leSQnaEAYRSBUpnEB2/hF9UyI04j1wrQqxgR8nxw3qTotum0B3tvath3Jr+PjXJxA2WZckBIRAIIH0fpsG9kWuXECA/U6cENaC+xINm9V80eoJ9bwgN8vYm1MCv4Yi5M17hjAWpPlJ12gh4EDjFOyrVdD6g+mJj76mZZv2Jr179yrfzRVbqqhrcR498L3hlKvaP2ZAN90uBLR0axGTDkAaEAJxEgjUIcdZiRTLHAKsGXOCMOYEX5kOKqwATJUQxCTWWOa8D4yVlGl23jcTh0A24eCK1tWV9Xr/yuH7ldGPnv6U5quVlJc+9Qn9+6dHU58uRQF5YOYMFpJgcvev0vTXEyqPuW2cf7hiGz31v3X69gPfG6Hbx0VZoX8rmkrl4gCf0yzxFdOM5J8QMBMQYcxMQ86jEjCEMQeEtWBfGTjrhwplAZMNNAXIl8zEwlhtk6yoTCZnJ9VtaMYcJIyBD4Sq4ECqT1xyOJ2v9rBcvrmSzn18DmWrHxDmUBjBUfqx6MXKnpJmgS1facB+89rneoouPbofjR9SbkxXaaswhsWn1SoeX2mB8/cJNDovJ0IgRQREGEsRaK80w8IYNglPd2JfmaueW6R9ZcwCGfvOwJcm+Fe/3f3WKyprSDRjdoN1cH0cfT/dYS2sIILw88yPjqSJf5lN24Mi9KM8rzyGmRMJ7yfzewn3zHmggQslsCFf704FdPNpQ3BqJOzfCmENZsq9KjitCGMGGjkRAgYB8RkzUMiJFQJG9H0HaMbQ33C+MqlctcWxxsRMaeUV5I08bKYscZhmLBzdLsqHK5x7PwQv/P329WV0m/oLFsRQJ9+Dxmzq0s1aYAveBBz5Nu2pp5krt+E0ILGpcq8yVUoSAkKgPQHRjLVnInciEGDNmBN8xrib7Cszd/U2mv7RfDr52NE0ZkB50jVi3H5ha5wpceBnIt4/spnSDZoxzAb8v/iHVLjZCaU1M+eFQAYB7OcvfWYIZ+bnOIdGGgIbfNfMGmkIYzCNwm9MkhAQAu0JiGasPRO5E4GAE4UxdBcf/KOVb9iobj59NH8RRBiOLY8K1YpKpDoJbWELTzdUwsJYR4espozGzM4VxU0trCdr3yoLbMFbL4lmrD0ruSMEzAREGDPTkPOoBNjx10masaidTnIGjjUmZsokg3ZQ9Rz01Qlxxqxgsbry2EpdVvIEC38ijFmhJnkymYAIY5k8+zGOvaG5hdjno7tDfMZiHEJSsrdtiSSrKZMC2IGV1qhVgUhuEcZ45TEvbAlGqlceq6CsFWphTqQ8XYqtrYQMFv54RSV/fgS3L9dCINMJiDCW6a+AGMbP+z/mZnegTioCvyQ/Ad4SqVbMlBnzkuDVlG4RxmC2Dxeln4WvO88YSneeETqSP+eZcuawiFsvIV+orZdEM5Yxbw0ZaJwERBiLE1wmFjP8xZRWDMFOJfkJ8GrKehX4VVJmEODVlG5x4MesWFl5HC3PxOG9ogp1ocLJiGYsM94XMsr4CchqyvjZZVxJQxgrSe8G4U4D32amFGHMaXOTrP6wA3/wRtjJas+uennlcaTo+tHysMAWHBgW4WQgiOF5cGLNWGXrBuvBz+VaCGQ6ARHGMv0VEMP4RRgLDaso1/82EjNlaD5evMsO/G7SjPE8wGQZHKWfn/ExWp5oAhvXw0cWxsRnjInIUQgEEhBhLJCHXEUgIMJYaDiFeX5rv6ymDM3Hi3dZM+YWn7FkzEE0gc3cpghjZhpyLgTaExCfsfZM5E4YAtur6/UTWUkZCIiDvoowFsjFq1c+n49EGIttdlkYk6CvsXGT3JlDQISxzJnrhEe6rbJB1yExxgJRFqm995DETBnIxatX9U37CJteI7kl6Ku/t+n7z8KYmCnTNwfSsrMJiDDm7PlxVO94OxURxgKnhVdT1rXGngp8KldeI1DV4N/SBwuKWRD32hjtHo9ZGINmUZIQEAKBBEQYC+QhVxEItPmMFUTIlXmPCvJaNWMS2iIjJr+mwb9qtljtSZqlnOElRSfAwliLUinWyPskOjDJkXEERBjLuCmPb8D4NcvCWLmEtgiAyNoR2ZsyAItnL3glZSY778c6uQVq/9a8bP/XjZgqY6Un+TOBgAhjmTDLNoyxqqGZGpr36Zq6yVZIAURlb8oAHJ6/YOf94ny/RtTzA7ZhgAgSXVroX7y/t9Zv5rWhWqlCCHiGgAhjnpnK5A6EtWIl+TnEQU6T26J7aufQFrVifnHPpCXQUxbGOhbIlmCxYJQo/LHQkryZRkCEsUyb8TjHy8KYOO+3B2iEtpC9KdvD8eCd6lYH/o6iGYtpdtlvTMyUMWGTzBlCQISxDJnoRIe5rcof1qKb+Iu1Q8k+Y43KjAsHZUneJlDd6sAvPmOxzTMLY5X1YqaMjZzkzgQCIoxlwizbMEbRjIWHaDbb1kp4i/CgPPKEHfjduBVSOqfAEMbqRBhL5zxI284kIMKYM+fFcb1iYUxWUrafmvycLELMKSSJwu/n4OX/NWoxCxL8JyVZJ8DCmJgprTOTnJlDwHHC2OzZs2nSpEnUq1cv9QXXgV5//fWA2bj00kv1fTzjv1NPPTUgT6iLRx55hPr160cFBQU0evRo+uSTT0Jlk3thCLAwJj5j7QHhdcimSglv0Z6P1+60OfCLMBbL3IowFgstyZtpBBwnjNXU1NCIESMIwlO4BOFr8+bNxt8LL7wQLqu+/9JLL9GNN95Id9xxBy1atEjXf8opp9C2bdsilpOHbQSM6PsS1qINiumMnfhlRaUJikdPWRgTM2VsEyzCWGy8JHdmEXDcT7vTTjuN8Bcp5efnU0VFRaQsAc8efPBB+vGPf0yXXXaZvv/444/T22+/TU8++STdfPPNAXnlIjQB0YyF5sJ3JbwFk/D+kX3GxEwZ21xLaIvYeEnuzCLgOGHMCv6ZM2dSeXk5de7cmU444QSaMmUKde3aNWTRxsZGWrhwId1yyy3G86ysLDrppJNo7ty5xr3gk4aGBsIfp8rKSn3a1NRE+LOSOB8frZRxap7tVfW6a50Lsy2PP9VjYc58TGX7hTn+AKBVdQ2O5WM3D+bMR7vrd2p9Va2rAQtyOqR0rpkzH53KJ1y/Oqoo/Eh7ahtTyi1cf6LdZ858jJZfnidGgDnzMbHaAksno87AFhK/cp0wBhPlOeecQ/3796c1a9bQrbfeqjVpEKyys9tHxN6xYwe1tLRQjx49AmjhesWKFQH3zBd33303TZ482XxLn0+fPp2Kiora3Y90Y98wiPsAAEAASURBVMaMGZEeO/5Zi4rWsLMabDvQ0vkf07o8Z3c5Hbwbav18Pp77Ce1dmVnhLdLBO52vwI1b/XO9ctkSmvrt4pR3xa28V+8Fqhz6dvsemjp1asq5xdugW3nHO950l0sG79ra2nQPK2r7rhPGzj//fGNQhxxyCA0fPpwOPPBAgrbsxBNPNJ4legJNGvzMOEEz1qdPHzr55JOptLSUb0c8QhrHC2vChAmUm+veaN2IMeabN4uwJ/L3zjiNsh26OXI6eb+4dQGtr95FBw8fSROH94z4uvDKw3TyTifDh1b/j6i6ho47+kgac0BojXwy+ud23iu2VNFfl8+llux8mjhxXDIQ2Vqn23nbCiMFlSWTN1u2UjCMuJtwnTAWPNIDDjiAunXrRqtXrw4pjOEZNGZbt24NKIrrSH5n8EvDX3CCUBWrYBVPmeB203m9u87/q6Krct4vyHe4WkyBSgdv3p8SOyLF+vpI59za0XY6eNvR73jr4EUanYoL0jLXbuXdpaRQI0fQ15ycHL0aPt45SGU5t/JOJSM720oGb9Tp9OS41ZSxAtu4cSPt3LmTevYMrY3Iy8ujUaNG0fvvv29UvW/fPn09ZswY456chCcgKynDs+EnHPhVQlswEe8e2YFfIvDHNse8mrJJ+T3I+yQ2dpLb+wQcJ4xVV1fT4sWL9R/wr127Vp9v2LCB8OxXv/oVzZs3j9atW6cFqjPPPJMGDBhACFXBCebKhx9+mC+1ufGJJ56gZ555hr788ku66qqrCCE0eHWlkVFOQhKQlZQhsQTcLMqDHxERa00CHsqFZwj4fD6qbt1lQYSx2Ka1WL1H2MWhss4fODe2GiS3EPAuAceZKRcsWEDjx483iLPf1iWXXEKPPfYYLV26VAtVe/bs0YFh4cP1+9//PsCkCMd+OO5zOu+882j79u10++2305YtW2jkyJE0bdq0dk79nF+OgQREGAvkEeqKzZQSgT8UHe/cg7Ct5DGdOhY47uPT0aARHBnasV01jYQo/BVlBY7ur3ROCKSSgOM+TcaNG6c+7MKvRnv33Xej8oHWLDhdc801hD9JsRMQYSw6s4Jc0YxFp+T+HLwVEtawFLbOuftHlboRmIWx1LUqLQkB5xNwnJnS+cgyr4eGMCbR98NOPpspxRcmLCJPPKhq3ZcS0feh6ZEUGwEJ/BobL8mdOQREGMucuY57pIYwVtJ+dWnclXqsoCGMtfoTeWx4MpxWAqwZE3+x+F4S7MQvm4XHx09KeZeACGPenVvbRsarKctFGAvLVMyUYdF46oGspExsOkUYS4yflPYuARHGvDu3to1MNGPRURqasSYVaEySZwmYzZSeHWQSB1ZW6HdTFs1YEiFL1a4kIMKYK6ctdZ2uVWa36lY/me6iGQsL3hDGEPVVkmcJsJmyRFZSxjXHrBmrVKspJQkBIdBGQISxNhZyFoLAjqpGfbdAbfIrfjIhALXeKszz/+KXOGPhGXnhCf8wkfdCfLPJwphoxuLjJ6W8S0CEMe/OrS0j215dr+uBVkxWj4VHymEOZDVleEZeeMLCGFZTSoqdQGmBf1saEcZiZyclvE1AhDFvz2/CozP8xSSsRUSWYqaMiMczD8WBP7GpFM1YYvyktHcJiDDm3bm1ZWTbqhp0PeIvFhkn700JHztJ3iXAPmNipoxvjkUYi4+blPI+ARHGvD/HCY3Q0IyJ835EjoZmTFZTRuTk9oe8mlK2QopvJjnoqzjwx8dPSnmXgAhj3p1bW0bGwlh5iewjFwko+4w1tfioqWVfpKzyzMUE2EwpPmPxTaJoxuLjJqW8T0CEMe/PcUIjZGFMzJSRMbKZErnEiT8yKzc/rWk1Q5eIA39c01hW5Hfgb2jeR/WiRY6LoRTyJgFbhbHGxkZauXIlNTeL34xXXi4cfb+7OPBHnNK87CzKxu7RKtVJrLGIrNz8kDVj4jMW3yx2VCFgWt8mJKbK+BhKKW8SsEUYq62tpcsvv5yKiopo6NChtGHDBk3r2muvpXvuuceb5DJkVKIZszbRCPvBpkqJNWaNmRtzSWiLxGYtS0li7Dcm4S0SYymlvUXAFmHslltuoSVLltDMmTOpoKDNt+ikk06il156yVvEMmg0+/b5aEe1rKa0OuVsqpQVlVaJuS8fC2MSgT/+uRO/sfjZSUnvErAlcuHrr7+uha6jjjoqIDAotGRr1qzxLj2Pj2yP2rIEDulIXTvmeXy0iQ+PV1SKL0ziLJ1aQ02Df7srceCPf4ZEGIufnZT0LgFbNGPbt2+n8vLydpRqamoChLN2GeSGowmwibKTcrrNz8l2dF+d0DkxUzphFpLXB2iKWTMmPmPxcxZhLH52UtK7BGwRxg4//HB6++23DUq8bc7f//53GjNmjHFfTtxFgIWxcokxZmni2syUslm4JWAuy1RrWv0nwlj8kyc+Y/Gzk5LeJWCLmfIPf/gDnXbaabR8+XK9kvIvf/mLPp8zZw7NmjXLu/Q8PjLzvpQeH6otwxMzpS0YHVsJr6TEqtmCXFt+xzp2rMnsmOxPmUy6UrdbCdjyiTJ27FhavHixFsQOOeQQmj59ujZbzp07l0aNGuVWNhnfb9aMSVgLay+Fwlz/bxtZTWmNl9tyVTc06S4X52WL+0UCkydmygTgSVHPErBFMwY6Bx54ID3xxBOeBZWJAzOEMTFTWpp+1oyJMGYJl+syVbc675cU+AOXum4ADukwC2OVdRKP0iFTIt1wAAFbhDGOKxZuPH379g33SO47mIAIY7FNDjvw18lm4bGBc0luNlOKv1hiE8bCmMQZS4yjlPYWAVuEsX79+kVU27e0iEOzG18226okxlgs88YO/LIdUizU3JOXV1IW58vK4kRmjYUxicCfCEUp6zUCtghjn332WQCXpqYmwr0HH3yQ7rrrroBncuEeAoZmrGNbIF/39D71PRUzZeqZp7JFFsY6ipkyIewsjIlmLCGMUthjBGwRxkaMGNEOC8Jd9OrVi+6//34655xz2j2XG84nwPtSlpfmO7+zDuhhm5lSNMEOmA7bu1DT4Pdx6iiasYTYijCWED4p7FECtqymDMdm8ODB9Omnn4Z7LPcdTKChuYX21PpXj8lqSmsTxWZKceC3xsttuQzNWL4tv2HdNnzb+ivCmG0opSIPEbDlU6WysjIAic/no82bN9Odd95JAwcODHgmF+4gsLO6UXc0N7sD8YenO3qevl4W5fnfTuIzlr45SGbLLIzJVkiJUebPE7xPGpv3UV5OUnUCiXVWSguBFBGwRRjr1KlTOwd+CGR9+vShF198MUVDkWbsJMD+Yt065lOWCnIpKToB9hmraxQzZXRa7svBqylLRDOW0ORhk/UO6iNFfUUQ/Ma6S+ichHhKYW8QsEUY+/DDDwNoZGVlUffu3WnAgAGUk2NLEwH1y0XyCbAwJh+U1lkX5PpX2dVKaAvr0FyUkzVjHZUwISl+AvhxB4G2sr5ZhLH4MUpJjxGw5VPl+OOP9xgWGY4R1kJpxiRZI2Boxpr2WSsguVxFgIUxMVMmPm3Yn5KFscRrkxqEgPsJxC2Mvfnmm5ZHf8YZZ1jOO3v2bL0Cc+HChdrv7LXXXqOzzjpLl0fIjNtuu42mTp1KX3/9NZWVldFJJ51E99xzj165Ga4R+K5Nnjw54DEWF6xYsSLgnly0ERDNWBsLq2eGMCaaMavIXJWPzZQS9DXxaYPf2MbddSSxxhJnKTV4g0DcwhgLSNEwdFDOAbEEfa2pqSGEyvjRj37ULiRGbW0tLVq0iH7729/qPLt376af//znBGFvwYIFEbsydOhQeu+994w8Yj41UIQ84U3Cy8WfIySfUDdlNWUoKt65V9MqZIswlvicshN/Zb1/xXbiNUoNQsDdBOIWxvbtS44p5rTTTiP8hUrQhM2YMSPg0cMPP0xHHnkkYUumSNsuQfiqqKgIKCsX4QmIZiw8m3BPJM5YODLeuC+aMfvmkYUxCfxqH1Opyd0E4hbGnDLsvXv36pWcWNEZKa1atUqbMgsKCmjMmDF09913RxTeGhoaCH+cOHwHTKX4s5I4Hx+tlHFKnm2V9bornQtzLI833X1nznxMdX9ys9TyMJWwZD9dfUjlmHmMfExl2+loi33GEPM1HWPmNvmYDgZ2tVnSGjh3V3VDWlhaGQdz5qOVMpInfgLMmY/x19S+ZDLqbN9KYnc6qBAU/m+QxOohmBdnzZqlNVSNjf4YVVzlddddx6cxHWHiNPuMBReur6+nY445hoYMGUL/+te/gh8b1++88w5VV1cT/MQQ/wz+Y5s2baJly5ZRSUmJkc98EsrPDM+ff/55KioqMmf15PnvFmXTzoYOdP2wZuofGpEnx53IoGpVgPZbPvX/vvnj6GaS8EmJ0HRe2V/Nz6bGfR3ot4c2UzfZISyhCXpjfRZ98G0Wjeu5j87ulxwrS0IdlMKeIgAXpwsuuICgvCktLXXk2GwRxrAP5cSJEwkDhlDWpUsX2rFjhxZaysvLtbN9PKOPJIxB0j333HNp48aNNHPmzJgA79mzh/bff3+9d+bll18esmuhNGOIm4ZxWZ1M9BFm1QkTJlBubm7Idpx4E/L58N+/T/VqVeD7N4ylvl3cIXymmzcCWA6d7PdLXHDreM8Hy00371S+d1r2+WjIHX4XiXm/Pp66pmGVsZd4Pz7ra/rje6vp3MN60T1nD0vlVFpuy0u8LQ86jRmTyRuWrW7dujlaGLPFTHnDDTfQpEmT6PHHH9crHOfNm6eFjwsvvFA72Ns9v5i073//+7R+/Xr64IMPLAtH3A+YNAcNGkSrV6/mW+2O+fn5hL/gBKEqVsEqnjLB7abyGk61EMSQenYuVuO15WWSsiGkizfk7RwVQ6lZfXE3+TrE/DpJGSCbG0oXb5uHEbG6OpOjeaeOhWpu/THlIhZK0kMv8O7c0a9arKpvcfz7xAu8k/RSTEq1yeCNOp2ebNmHYvHixfSLX/xCRWrPouzsbO1rBS3SfffdR7feequtDFgQgw8YVkd27do15vphslyzZg317Nkz5rKZUICd97FqjLf4yYRx2zFGXlEpUfjtoOmcOth5H9uD5Yv9OeGJEQf+hBFKBR4jYIswBqkTghgSzJJY2YiE1Y/ffPONPrf6D4IShDv8Ia1du1afo04IYt/97nd1GAv4iCFkxpYtW/Sf2U/txBNPJKyy5PTLX/5S+7OtW7eO5syZQ2effbYWGn/wgx9wFjm2EoA5ZubKbfoKUbJxLck6AY41JpuFW2fmhpw1DcohUCUEfIX7hKTECIgwlhg/Ke09ArbYnw499FD69NNP9abgiMZ/++23a9+qf/7znzRsWGz+AIgXNn78eIP0jTfeqM8vueQSglM9B5sdOXKkkQcn2JJp3Lhx+h60XvDt4gS/MgheO3fu1Ns0jR07lmBKxZZNktoITFumFje8tZw27/WvpNysVlSOvfcDumPSwXTqMNEitpEKf2aEt1ArKiV5h0BVqzAmMcbsmVMWxiToqz08pRb3E7BFGPvDH/5AVVVVmsZdd91FF198MV111VVaOHvyySdjogSBKtICz0jPuCFowMxJNis30wh9DkHsqucWUbAebIsSzHD/sQsPE4EsNLqAu4V5/reUmCkDsLj+gjVjIozZM5UsjEmcMXt4Si3uJ2CLMHb44YcbJGCmnDZtmnEtJ84nAFMkNGLBghh6jnswyuD5hIMrKFs5qEsKT0DMlOHZuPkJ+4yJMGbPLGJvSqSaRhWTr2Uf5Wb73VzsqV1qEQLuI2DLO2DKlCnat8t9w5ceg8Ana3cZpslQRCCQwXSJfJIiE2BhrK7J72MUObc8dQsBDvgqm4TbM2OlBW16ADFV2sNUanE3AVuEsVdeeYUGDBhARx99ND366KMB/lruxpMZvd9W5fcRizZaq/mi1ePl5wWtIQ/Egd9bs8zCWEeTEOGtEaZ2NDlKE8Zaxsp6+eGSWvrSmhMJ2CKMLVmyhJYuXaod6B944AG97dDpp5+uo9UjEKwkZxMoL7EWTtxqPmePNrm9MzRjyvwiyTsE2GcMK4wl2UNA/Mbs4Si1eIOALcIYUAwdOpTgyP/111/rlY39+vWj66+/XjbndsHr5Mj+XahnWYH2DQvVXXiJ4TnySYpMQISxyHzc+pRXU4qZ0r4ZZL8xceK3j6nU5F4CtgljZgTFxcVUWFhIeXl5jt0E1tzfTD+HUz7CVyAFu+fzNZ6L8370V4phppTQFtFhuSiHOPDbP1llhX4towhj9rOVGt1HwDZhDMFZEdYCGjKsrsR+ldiQG0FZJTmfAOKIIXxFhdKAmROuJayFmUjkc9GMRebj1qdspmQ/J7eOw0n9FjOlk2ZD+pJuArY4QBx11FE66Ovw4cPpsssu0wFWe/fune6xSfsxEoBAduzA7jT0jnd1yScvOZyOH1wuGrEYOPL2URJnLAZoLsgqDvz2TxILY7Ka0n62UqP7CNgijGH7IQR3Pfhgv6nLfRikx0ygqnVlE0yS44eUy9YvDMbikSPw14qZ0iIxd2RjYUx8xuybLxbGxExpH1Opyb0EbBHGYJ6U5A0C/MGIOECyB1/sc9q2Ubgs14+dnnNLsDAmqyntmyNDGKttsq9SqUkIuJSAbT5jLh2/dDuIAAtj/EEZ9FguoxAwfMZEMxaFlLse1zT4Q5WIZsy+eePPGP7Msa9mqUkIuI+ACGPum7Ok9pg/GPmDMqmNebByw0wpccY8NbtsvhcHfvumVUJb2MdSanI/ARHG3D+Hto7AEMaK8mytN1MqEwd+b840r6YskQj8tk2wCGO2oZSKPEBAhDEPTKKdQzCEsdaNfO2sOxPqKszzv6VkOyTvzHaz2si6rtXsLGZK++aVte+V9eIzZh9VqcmtBGxx4D/uuOP0VkjHH388HXPMMVRQEBiryq1wMrHfe2sb9bA5IGMmMkhkzIW5/rcUf3knUpeUdQYB9hdDb4rzs53RKQ/0goUx/gHogSHJEIRA3ARs0YydfPLJNG/ePDrzzDOpU6dONHbsWLrttttoxowZJHtTxj03aSnIH4z8QZmWTri4UcOBX3zGXDyLgV2vbvSvjM1Tm1vn54gwFkgn/iv+jIE/Xss+X/wVSUkh4AECtmjGIHghNTc36+Cvs2bNopkzZ9J9991HWVlZVF9f7wFUmTEEEcYSm2cObVGrvsB9Pp+EB0kMpyNKG1shib+YrfPBwhgqrVKmyk7ip2orX6nMXQRs0YzxkLFJ+Oeff05LliyhpUuXUklJCZ122mn8WI4uICDCWGKTxMIYfug3NO9LrDIp7QgCHGNMTJT2Tkeu0jSyJpk/d+xtQWoTAu4hYItm7IILLiBowxoaGgj+Y/Adu/nmmwnbI0ngUPe8GNBT/lAsK5TVlPHMXFFumxmrXjl988bh8dQlZZxBgIWxjvm5zuiQh3oB7RgWu/DnjoeGJkMRAjERsEUYe/HFF6lbt250xRVX0AknnKB9xoqKimLqiGR2BgH+UDSbEJzRM3f0Ikf92odvUaNagYcvmU7yNnDHxEXopRHWIt+Wj8sILWXeI3zObN5bL8JY5k29jDiIgC1myp07d9Lf//53amxspFtuuUULZkcffTTdeuutNH369KAm5dLJBEQYS3x2CnIlvEXiFJ1TA/uMiZnS/jmRWGP2M5Ua3UnAFmGsc+fOdMYZZ9CDDz5ICxcu1P5igwYNovvvv198xlz0uoDDuSGMFYlJJt6p48CvMFNKcj8Bw0xZIO8Ju2eTNfD8uWN3/VKfEHALAVv07tCM8QpKrKJcvny5DnExadIk7T/mFhiZ3k/Exmpq8S8x5w/JTGcSz/jZKVkCv8ZDz3llDGFMYozZPjn8OSPCmO1opUKXEbBFGCsvL9emyWOPPZZ+/OMf6wCwhxxyiMtQSHf5AzE7qwMV57U5oguZ2AjwikqEt5DkfgJtwpgtH5fuB2LjCEpbtY382WNj1VKVEHAVAVs+XRDGYujQoa4auHS2PQH+QOyknGplFWx7Plbv8GbhdRL41SoyR+djYUy2QrJ/mlgzVlknP1zspys1uomALT5jIoi5acrD93VvrX+POP6ADJ9TnkQiwJox2RIpEiX3PGMH/o6ymtL2SeNt1yrrZH9K2+FKha4iYItmDCP+97//TS+//DJt2LBBr6o0U1i0aJH5Us4dSmBP6wcir3ByaDcd3y3xGXP8FMXUQQ5tIcJYTNgsZS5rXSjEWnlLhSSTEPAgAVs0Yw899BBddtll1KNHD/rss8/oyCOPpK5duxIi8ksEfve8avgDUTRjic2ZmCkT4+e00lUNfhNaR9kOyfap4c8a/uyxvQGpUAi4hIAtwtijjz5Kf/vb3+ivf/0r5eXl0U033aQ3Cb/uuuto7969LkEh3WRTAX9ACpH4CBTm+RXOspoyPn5OKyWaseTNCH/WiDCWPMZSszsI2CKMwTSJIK9IhYWFVFVVpc8vuugieuGFF/S5/HM+Af5A5A9I5/fYmT1kM6X4jDlzfmLtFTvwi5kyVnLR8/NnDX/2RC8hOYSANwkkJIx9++23mkpFRQXt2rVLn/ft25fmzZunz9euXUsIJBpLmj17NiE+Wa9evfSKvtdffz2gOOq7/fbbqWfPnlrwO+mkk2jVqlUBeUJdPPLII9SvXz8qKCig0aNH0yeffBIqW0bf4w/EThLwNaHXgSGMSWiLhDg6pbDhwC9mStunhP1TK+ubaN++2L4rbO+MVCgE0kggIWFs2LBh9K9//UvvR/nmm2/qYcB37IYbbqAJEybQeeedR2effXZMw6upqaERI0YQhKdQ6b777iP4qD3++OM0f/58Ki4uplNOOYXq6+tDZdf3XnrpJbrxxhvpjjvuICwmQP0os23btrBlMvEBC2P8azUTGdgxZt4cXMyUdtBMfx2sGStuNT+nv0fe6QF/1uA3O/vmeWd0MhIhYJ1AQqspp0yZQj/96U/p5JNPpnvvvVe3evXVV2vn/Tlz5ugtkn7yk59Y743KCYf/cE7/0Ir9+c9/pttuu43OPPNMXe+zzz6rFw5Ag3b++eeHbAvbNCEYLQRFJAhyb7/9Nj355JN08803hyyTiTf3tIa24F+rmcjAjjEbmjEL2yG1KG3AJ2t30baqeiovKaAj+3chBN2V5AwCTWrD94bmfbozJaIZs31S8nOyCXu51jftI/issnBme0NSoRBwOIGEhLGf/exnWnC6/PLLddDXJ554QpsYIRSFE4wS4QGz55YtWwimSU5lZWXa7Dh37tyQbWLzcuyXiQ3MOWVlZek6UCZcamhoIPxxqqys1KdNTU2EPyuJ8/HRSpl05tlT26ib76g+HN3SZzMv7jMfzc9Sec675tQ0RH6tvPvFVpoydQVtqWx7nVWU5tNtE4fQKUN7pLLLcbXFnPkYVyUOL8Q/UNDNvCxfWt8XzJmPDkdnuXtlKgp/fVMD7ayqo4oS5+z/yZz5aHlAkjEuAsyZj3FVEqZQMuoM01TctxMSxtBq//796YMPPqCHH36YzjnnHDrooIMoJyewWrvijEEQQ0IIDXPCNT8z38f5jh07qKWlJWSZFStWBGc3ru+++26aPHmycc0n06dPp6KiIr60dJwxY4alfOnOtHkHtkDqQF8uWUBN69Ldm/jbTzfvFTug2cqmjZu30dSpU0MOZMnODvTkV+wl0KYJ21JZT9e8uJh+NGgfjejqDh+adPMOCdimmzu190MO5Xbw0Yx3p9lUa2LVeI13h2b/5870Wf+j9WXOe817jXdir77kl04G79ra2uR3PMEWAqWmOCtbv349vfrqq9S5c2dtPgwWxuKsNq3FoEmDnxknaMb69OmjTbKlpaV8O+IR0jheWPCfy811zi++cJ2evPRD9aiJTh5/LA2pKAmXzbH3ncI7/8tt9OyqxVRY2okmTjyqHS+YJu/+42x1v00j1papgxKHid7ZWkQ3/fA4R5ssncK7jZ39Zyu3qJXhn82l0qJ8NZfj7G8ghhq9yvvZTZ/Qlg176KDhh9GpDtIIe5V3DC+5lGZNJm+2bKV0QDE2lrAwBtPkL37xC232++KLL6h79+4xdsF6dqzaRNq6dateTcklcT1y5Ei+DDh269aNsrOzdRnzA5Th+sz3+Tw/P5/wF5wgVMUqWMVTJrjdZF/DH4/3h+tWWhjzGJPdv1jqTzfvEvXFjdTQ5AvJccGanQGmyeCxQTeweW8DfbaxisYc2DX4seOu0807mUDqW/y1I+BrrO/7ZPXLa7w7FeVpVDWN+xzD2Dx3XuNtHpsTz5PB2ynv3Ui82U4SKU/YZ6eeeir9+te/1iZKaMaSKYihEzCJQoB6//33jT5B4sWqyjFjxhj3zCcIQjtq1KiAMvv27dPX4cqYy2fKOVb+NbcuLRcn2sRmnfemrG0KvfkxnPWtJKv5rNQleeIjwCspJcZYfPyslOLPG17NbaWM5BECXiOQkGYMvlhLly6l/fbbzzYu1dXVtHr1aqM+OO0vXryYunTpQohhdv311xNWcQ4cOFALZ7/97W91TLKzzjrLKHPiiSfqkBrXXHONvgdz4yWXXEKHH3643qoJKzIRQoNXVxoFM/iE96XMze5AvJ1PBuNIaOjMr04JuKESVk1aSVbzWalL8sRHgIWxYtkkPD6AFkrx6m0RxizAkiyeJZCQMJYMR7sFCxbQ+PHjDeDstwVh6umnn9ZbLUGQuvLKK2nPnj00duxYmjZtmg7myoXWrFmjHff5GvHOtm/froPFwtEfJk2UCV4IwPkz8bi3NawFfqV26NDmUJ6JLBIdM4e2CBdnDOErepYV0Ja99RTKXRn0K9Rz5JOUXgIc8LVEhLGkTYRoxpKGVip2EYGEhLFkjHPcuHERo/ZDUPjd736n/8K1v27dunaPoCVjTVm7h3KD+Fcp/0oVJPETYDMltkOCL16wcIs4YndMOpiuem5R2EbwXOKNhcWTsgeiGUs+ahHGks9YWnA+gYR8xpw/POmhVQIsjHVSmjFJiREoao3UjqjiHDA0uMZTh/Wkxy48jEJtPXXnGUMJzyWlnwALY3Dgl5QcAiKMJYer1OouAiKMuWu+ktZbRL9G4g/GpDWUARWzzxiGGs5UiWcQuC47uh9O6Yh+nWlknzJ9vlmZLyU5g0BNg38RhjjwJ28++DOHP4OS15LULAScS0CEMefOTUp7xpox/mBMaeMeawzmxbwc/1urNspm4Wu21+jRjx9STj89foA+//fCjYRteCSln4ChGROfsaRNRlmRXxvPn0HhGkJ8vrkqLMwbizfpI66Dk5U8wWXkWgg4gYDo3p0wCw7ow546/1ZIIozZMxlw4m9UexrWR9mfcvW2at3gwPISGje4O3XrmE87qhvofRU49tRh/rh69vRIaomHQHWDf0WsaMbioWetDH/mRBLGpi3bTJPfWq7i77VpjbEIBr6VbNK3ksdajySXEEg9AdGMpZ65I1vkD0L+YHRkJ13UKTZVRjJT4lf8mu1+YWxAeUfKzc6i747yh4l56dMNLhqtd7taXe8334swlrw55s+cyvrmkIu3IGRhsYtZEENvsBoZ9/HcSp7kjUBqFgKJExBhLHGGnqhhb53fN0ZWU9oznbyiMpIwtml3nXbwh0mzT+dC3fB5R/TRx1lfbadv99TZ0xmpJW4CNawZEwf+uBlGK1iqNgpHwo8TNgtzGdyDRqy9QZKMe3e++QXhL1Ie1IG6JAkBpxIQYcypM5PifrFmjLcmSXHznmuOY40hvEW4tHq72vdQpQO6FVOO0ooh9VfnRx3QhfC98cqCjfqe/EsfgapWB34J+pq8OSjIzaK81tc/tGPm9MnaXe00YubnEK+2VDZY2F6snlCXJCHgVAIijDl1ZlLcLxbG2GSQ4uY911xRrt8dM1wUfgx41dY2E6UZwPlH9NWXLy/4Rn7Nm8Gk4by6QcyUycaOOHyskefg09ymnVuC2VkX90+OQsAuAiKM2UXS5fXwsnIRxuyZyALlwI8UyUzJzvvwFzMnOO6XKrPYJmWm/Hj1DvMjOU8xAcNMKaspk0q+rND/44V/FHJjdm4JZmdd3D85CgG7CIgwZhdJl9ezp1ZWU9o5hUW5fmGsLkJoi1WmlZTmtgtU2XMOE0d+M5N0nfN2SBL0NbkzwD8CzcIYdq/47JvdERvWW4eV5lNFaQGF28QN97HyUrYXi4hSHqaZgAhjaZ4AJzSPDz321eAPRSf0y819iOYzBuZrWoWxYM0Yxs2O/DOWb9WhLtzMwq19b2huocbWeG+ymjK5swhNMNKsr7bpGGIIC3OHcsq/b9pKo+FgYYuvsWPFnWccrPPxPaNQ64lsLxZMRK6dRsD/DnBar6Q/KSWAFUy80kiEMXvQR1tNuVU5HcM5HAFi+3UratfoQT1LacR+ZbRk4156ddFGuvK4A9vlkRvJJcAmSrRS3Gp2Tm6LmVk7wlLMa3Wuf+GTbwh/+WqFMbYSU+5k9JuJB9F+arVxcJyxiqA4Y9heLDgPfhQ9+P0RRiyyzCQso3YDARHG3DBLSe4jmwYQYgErmyQlToDjjIVz4Gd/sf27FKkvHr9JM7jV84/sq4Sxz+nFT7+hHx97QLsNx4Pzy7W9BHgrJMwlr3a1twWpjeODBQed4D1drxjbn65Qr32kCQdX6BWRcMSH/xfMjvgxwwnBXznPTKVh+79ZX2sh+mRVTpIQcDoB+eZ1+gyloH8sjEErhpVNkhInwGbKcA78q7b5w1qEMlFy65NG9CLU87XaMunTdZF9Z7iMHO0jUNUaZkHCWtjH1FxTpBhinO+/SzcbWnsIXmMO7Epnjuytj2ZBjPNznhsnDKIStehie3Wj8jvbw49dfQSvaNtBuXqAGd550Yxl+AsAwzcLY4LDHgKFef63Vrg4Y6wZiySMwU9p0vBe9JIKcfGiisgfzQEZH9aIpRROc2DPyDKnlprWxRclEvA1KZMeLYYYGkXUfeSDEBZLgrYZ+72+ueRbmv7FFhq1f+dYitua1473JTSIwSbY4O2gbO20VJZyAiKMpRy58xrk2D7iL2bf3BS2mnvDmSmNlZQ9AsNaBPfgvCP7aGHs7aXf0sRDehJMZ6FMNPJhHUwu8WteSVmcH9qMnHgLmV2D1bhfVvMF00SIGAhj05QwdvNpQ9Ki9bfjfRnOlMvbQcFXjvfntEPwC+Yo16khIMJYajg7uhXRjNk/PUWtmrHaMKEtjJWU3UsiNn5on056WT40BFc8s8DIa/5VHMuHtVGBnEQlwNH3ZSVlVFRxZbAa98tqvuBOHD+oO8EPdv3OWlq5tYqGVJQGZ0nqtR3vSwhX0IgF+9Sh47gHpxI8h6/cjOVbRHsGMC5N4jPm0omzs9sijNlJ018Xr6YMZabcVdNIO9Uf0oHlxf4CYf6/q37VB2+QjKz8q3iq0phF+rBGXjzHh7qk2AiwA78IY7Fxs5obZnf8qAjnpYr7icQHg6/fcQO76+5MW7bFardsyRdNiEIjVt6X0Uy5eFfj8+GBd1dE3UzdloFJJUkjIMJY0tC6p2IRxuyfK3bgD2WmZH+x3p0KlYN+eOU0f6CH6h0+hPH3y1eWhBTWuAx/WONDXVJsBNhMKcJYbNys5oazPeJ/IQULZHydaHywU4b20PWnWhizKkRFe19aNdE+plaO4r0enPieFcEvuKxcp5aACGOp5e3I1kQYs39aOLRFqNWUVlZSokfRPtCRp7ZpHw5Rk9UP9agVZVAGxN9Dkuj7yZt0+DrB5wkxw8wJ12ZfKPOzWM5POqiHDn+xYkuVMlfWxFI0obxW32+cDz+8Qq2U3F7VkFA/UFh+kCWMMCUVhP9ZnpLmpREnEBBhzP5ZYDNlKGGMNWMDg/akDO4Ff1AH34/nOl6/m3ja8koZFsYktEVyZ9QcHwyv+VALVOLtQefiPBqtzKFz1uwkmPytBk+GcDRfaZMX7uhAXbGac0B5QEyzaP2x+n5bqYRELM6Z8vaXARru7iX51EcFul20IXJYDmgQsfBqT51/Q/tI/bLz8yRSO/IsPgIijMXHzVOlRBizfzrZ/Fjf1NKuchbGIoW1QCGrH+hd1BfObuWDxiYJc4P4sIaWIVpYDHMZOfcTYJ8xxKuSlFwCHB8sGa1gVaVfGNtqSRgLXAGZTc+uWqB912Ay5VWL0fqJ91u5Eqi2RdFsPTpzTciqoBHDH96/x6mFCLO/2q7zmd/jbMq97Jh+9Kf3VoWsx3zT6ueJuYycp46AmClTx9qxLYkwZv/UsM9YRM1YlLAWVh2cp5w5TA+AP5x5NHwdq99NOJMJ15spR15NKZoxd884R+BfuH43bausjzgYXgEZvGiGF8zguZUE4XL/ru23OUNZvC/xd+aInnq7J9wLl7p2zKcnLz0ioin3mhMGJnUhRLi+yX17CchPPnt5urI2FsY6FeW6sv9O7HSB2kIHCasp9ymTR1brti1V9U2GOWJAlLAW7OB81XOL9Id3qF/F/Gv9saz2+/IF791nhVOgVsBfwhxGw0odXsnDmjFx4Hf3jOJ9MFKFiFmsIvFPX76VLjxq/5AD4gUz5vcZZ8Q9CFBwhEcYCbw3I6X3v9yqd81ALmiuefU0yvD7sqwwj95YElm421HdoH1Ho5ly8TkQ6nOC+xjrDzIuJ8fUERDNWOpYO7YlFsYk6Kt9U8SaMdRY39xmqlyjtjZCgk9ImQXh16qDM/J9/OsT6J8/OpJys/1fFH+/5HDLZhX0yS6tAOryQpLVlF6YRf8YYKpEgt9YuBRtwQwEMmjMoq2ArFQ/uH7z2jLdzJXHHUCf/OYkeuHHR9Ffzh+pj3if4v1q1YeL87EpN9R2UOE+J7oqQdCOhRDhmMl9+wiIZsw+lq6sCVqbylbnTxHG7JtCXk2JGhHegn3IDH+x7pEj75t7gg9a3gA5koMzPqyPVf4lYw7spn1M5n+9i4b2KjNXFfbcTq1A2EZc9oAd+GU1pcsmLkR3TxlaQfe8s0KvWMSOI6F+CLHQE6J4wK1o+dDOFmUO7afMlNefNEhr0UJt52TVh8tqPvPnxJ1vfUFYHPCrUwbH9IMsYKBykVICohlLKW7nNVatIsQreUynUrUqR5I9BGCWzFfRv5HMfmMc1mJgFH+x4F5E+lUcnHfMAf59/OZ+vTP4Udhru7QCYRtw4QNDGBMHfhfOXmCX+3crpsE9SqhZfdi9v2Jr4MPWK6tCT6R8CE/x/PwNusZ7zh1OvKo6VINWfUJjWXzDnxNYQYq0Tu0+IMkdBEQYc8c8Ja2XvC8lBAf2c0paYxlWMZsqzVH4jW2QooS1SAQV/wqfr4QxaLyspGi/9rkOq/k4v5uPIoy5efba9z1aAFgIPRWlgfHOgmuB/+DhYTYdhwb85leX6iI/HN2Xjmr9URRcB19DcIIvF1KwBxpfx+vrBeETad2O1MVW0w3Kv7gJiDAWNzpvFBR/seTNI5smzVH4eYPwaGEtEunVsF6lhC+Nyvpm+nJzpaWqIv3aN1dgNZ+5jBvPfT6f3pQdfRczpRtnsH2fT2n1G5u9arvSVvsD+ppzwSf/wO6RtyeDgH79S4u16wHKmlce/+rfS/Q+mFjwgo3JraRwvl5w8k/E16tfqzC2VoQxK9PgiDziM+aIaUhfJ1gYk5WU9s8BmyjYTImYY9/s8psNkimM5WRn6bhiH6zYpn1khvWO7jfGJhMs4Q+lS8MvdXxBxGIysZ9o6mpsaN5HTS1+EhLaInXck9nSwT1LaT8VSHXj7jrtUwlByJween81/U+ZGfFax+fhbuVbxgkCFqL5v/jpBnr78820Qb2PL1Dar4feX2Wsjua85xzWm0oKrLt8mH29oHnGDx68z6A5izcdwJoxteuAeTV3vPVJueQTcKVmrF+/fio+S4d2f1dffXVIYk8//XS7vAUFkdXRISvy4E0WxsR53/7JZSf+uib/r/Cv1UpKWA3BuruKH5TMFKvfmNlkEq5f8ZpMwtXn5Psc1gJ9LI6wf6iTxyB9CySA74xTlSM/0rtfBPqNvfzpNypw6lf62e/PGkYLbptAz/3ocLp4YIs+YgUk7j93+WjqrAS1zzftpVte/bydIIYKHv1wjV6ZrCuz+I99vUKtlLRYRUA27Hubo4Q5/KjYHCW2WkBBuUgbAVcKY59++ilt3rzZ+JsxY4YG+L3vfS8syNLSUiM/yq5fvz5s3kx6IMJY8mY7WDO2enu1bgxaMXwxJDOx3xgc85tbrO1fiV/oPz9xYLtu4Yvi0R8ellGrsthf7P/bO/P4Kop07z8hCQlLYkhCSELY911QRHBjVEDwur5X38HBjZE/HHF0uOM7w+hVEEd01HGcwaujn6vOvQ6jzqi4AW5sIiAigoR9EQhLEpbsgSQkeeupkzo5p3POSZ+ku9PLrz6fpLurq2v5Vp9znnrqqafY7q81GoomMBHRpgTUVCW7cXnvuyNSc7xC+ASb+/42Wa9fTOwn/ZBxn7MR/AXp9fKo3oFxwg7svXsvkYJOpIa09cbcrB3v2eB0FnZjkXrKPvccOU3ZtWvXIIJPPfUU9evXj6644oqg+MAL/vHLzPSNigLjvX6uhDGspDT+TfAb8AvDXg77Csrksbk9KWWiVv4bIqZkWAPH/cuj+NE9u+jK8WSFb2PinwzqStNGZNEjS3Ll6Doj2VxNnq7KWZhIfS5Yu8Ar5Fo7bWRh1VFUBAInSqtIdKlwxlxHc/65VabkYRFPSN88urt0BRHhcXmL3Vbwqsxwge8of2RqUBQurZnxfdI6EWvjDwi7sUv6p5tZFPI2gIAjNWOB7a6urqY333yTZs6cGVHbUF5eTr169aIePXrQDTfcQNu3bw/MxrPnxQ12EZimNP4V8AtjDftTBmrGjC8tOEc1sudYvS4u2Bh5ea5v+ubOCb3plgt70L+NzJYZv7v5aHABLr5ircldr38rW8iLIKa/uoEufXpF1FNPLkbkyKZxv963eLPflY9qhBKrfjI4I+JviEqvd0Wx3nQqX6OPWFFpNFFz83OkZiwQyZIlS6i4uJjuuuuuwOig80GDBtFrr71GI0eOpJKSEnr22WdpwoQJUiDLyckJSqsuqqqqiP9UKC31rUqrqakh/tMTVDp11POM1WmKGjQhSWI6xs711MNF1V8d9TxjZpqEBk/4ZWeqJds9wgkjhz5pHSxhfVHvFLn9y7p9J2nWJb2abeq3B4uIt19JSoyjsT3Pk3W8fmQ3enfzEfrkh2P0u2sG+n2ncWaKszo2W4ADErAt0f1vbW2yiEHtTfiXn44i5SLB6uYozupodflOLo8HGvM+3N6kX1WbWDv25FKx1dHgdP+0tOKsjiptWkd9P5ucTvusysOKY48uPrvo/YVlbVoPvW1VrNRR73N60pmRp55yo0kTI5Zwq4FBNM/ZJu2UKVOoffv29NFHH+muE3fMkCFDaPr06bRgwYKQz82bN4/mz5/f5N7ixYupY8fQG8A2SeyAiNf3tKMtp9rR/+ldS5dnOfpVsB3tdw60o68L2tGUnDqa0r2OHtoYS7X1wrfQmHOUasGs3zHhYujpH+Kofbt6Wji2Vti5REb03o/taHV+OxrbtY5m9PfZmfFszLzNsVRSHUMzB9bSqDT3viPc1vmircXVzIl/nrWhnlLak+i/WjnVpb2La/sS2FsSQ4t2+PaLjVTL2UNracB5kd9xp7wne0SbXxRtzkisp4dHN27JFqn9br1XWSlWv952m1TGsP24HYM+Ed+ONRd1YiP8L774gt57772oahgfH0+jR4+mffv2hX1u7ty5NGfOHP991ozxFOfkyZNJb2ey0MeLCyZNmkRcph3D24WbiE6dpvEXjKJp5/umpOxYTz11shvvH5bvFsLYIcrp1YeGXpBDtd98LbZFiqXbbpjk3zhcT7tamoaXtL+yb5Vcot99xHi6IIyzSs6fx2RPPfeVODtLP580hq4akuEvdmf8Hnrlq4OUF5tFc6ed74+3G29/xVp48o1Y7FC8QXwewoYYKah1HXqxNOoOm8ykG27jbRKmkNl+9IPYkHuHz0g/ZIKGyL7DzqdpI30uLyLxju/t06DyY4Gim0+Ej6Enbm47Dapq32jhpubFHWvodHU7mjxlErFRv51DJN6trbea2WptPmY+72hh7PXXX6eMjAy69tpro2JUW1tL27Zto2nTpoV9LiEhgfhPG1ioilawaskz2nLNui476xsxpQrfNtG2y6w6tTZfu/DulCjUKCJUCX9VB0+flef9xJ6UCQm+eBlh8j82IF66LZ82Hiqhi/s3CljaYrfkFUuj405CWJw4JFO8C41ahH+/sKcUxlbtOUHl1fXURWw+HBjswjuwTi05P1XZ1BFoqHw4XVt+VtzCOxRbs+KyUiI7c1Xlcjpt34bi/W/n51BcXCzxqkk21leBffGxCxitDzN138pjTmqc2FWlHZ0VixUKys+RcgRrZR1aUlYo3i3JJ/AZbZ8G3rPLuWOFsbq6OmJh7M477xQfiuBm3HHHHdS9e3dauHCh5Pz444/TxRdfTP3795f2Zc8884zUqt1zzz126Yc2q4daNQYDfuO7QBnws9PXfcJug4OZzl5DtYD9jbEwxisCfxnCbYV6ZplwZMmBjZi122INFHv6DRNe/bcfK6WPhe3Y7eN7y7Ru+6d3dwG96dzGx8ntMcOpsRnOWo1kzPvj9hYrKncJW1X2xO8UYcxIBk7Ky956ywgkeXry8OHDchWlNhnHsy8xFYqKimjWrFnSToy1YayyXLduHQ0d6tsXTKXz4rG4UhrISDcIXmy/mW1Wwhh73t9X2OhjzMwytXmP7+db0v7d4SIxQg5tN8JTlMty8+Wj7M4iVLhJLPvn8N737l1VqX6wQ1mLcds5nj2xczoEZxHg1cVm7APJ+bL22ShnrUZTVSsqsS2S0WSNz8+xwhjbbvGPyMCBA5tQWbVqFb3xxhv++Oeff15qwnh1ZH5+Pn3yySfSZsyfwKMnbFNUJvZa4wA/Y8a/BMoDv9SMBTh8Nb6k8DnyXntdkxKoWnji/v5wcciEO8T+lby9C09pTBT+xUKF64U9If/wcB4HGtoSKp2T4wJ/sLXtUAKal3Yh0DJw+jVrsni/R55KDAyt3QcyMC+7nSttGIQxu/VM0/oEz+81vY8YFxMoEz6U1FpaTFMa39F+D/xVjZoxKxy+BraEnR3zVOWHW49Jf2OhnFAub9CKXTGwq1hgEPorgafmLhuQTqt2n6AlQjs2Z/KgwGJcc65+sH/x92B/VHayBXIN7DZoiN2nFo1GojRjB8UelQj2JhD6m9fedUbtDCKg7MVYg5MgjFERjCWgpinZ2Ssb0bbnLUpSrXeLwgIYC2MbhN0YTWraxqUN9mJTNRsna1PyVCULY+9vOUq/mtRUI61N79TrKWL/QqEElM5B510/lAZ1S4YHfqd2Zoh6q6nFELdcF6WEMfbEj2BvAo6dprQ3VmfUTglj0IqZ018d4n1jndMVPrs8/mJsi+XlatPw7/OK6EzD1kyqxXvFFk37xRc1C4pXBrizUPcDj5OHZlLnhDjKO32GNh0qCrzlqvMisSuFmNWV4baLekmbIP4BRwABpxFQwtixkjNhbUad1ia31hfCmFt7Vke7IIzpgNSKJEozprKweiWlKreX2DCYDc9rhIuNTYdOq2h5VIb7l4opyOTEyL7weNp16nDf/q7vCa/8bg1qG5suHeOpfXOect0KAe1yBYE04YYmSQyg2ByF7UIR7EsAwph9+8b0mhWLbXo4QDNmDmplM6ZybythTNmNcT3YxUVgUMLYNQ1CVuC9UOc3jfGtqvxYONGsCrM6M9RzToorFJtJc4ALCyf1GuoaigB/9vuIRTwcYMQfipB94iCM2acvLK+J0oxhJaU56NVqSpV7WwljXL4y3A/cNPyg8D20U6yk5Cm4SUO6qWpGPF7cJ42yhZaNF3+sEPZjbgyFZQ3CWHKCG5uHNnmMAPsa49BWwhjvC8qDwA+ErSkf+RqhKQEY8Ddl4pkYJYyliOkYBOMJaKcpB3TrbHwhOnNUwtgPR0qoXLgzYdsvpRWbIAz8tV71w2XLjiRvFIb8/7VqPy3ZcpxucKHLLTVNyS5BEEDA6QSU3RgPvqwOy3OPN9mlgE0m7LJLgdU8IpUHzVgkOi6/p4QxTFOa09GB9kZs/t0WKylVy3K6dKQeqR3kqPTbgz67Mf6i5KB3ilLldXPDVCVvj/R1fgzxno7hRrtOHBVjmlL1NI5uIKCEsQMWC2P8/XLvm5uDtotinvli+yiOV98/bmBsRBugGTOCokPzKD1TI2sOYcz4DuQvmnkf7vBnzIr5q55b3aYjQl5VmXf6iHRxwf7OtgotmTApIV4lGU3g3QTihYasRkw3vPNjrPjbJBcIaEe7zEC7d58TRsUn1DQlNGPRvBZIa1MCShizUjPGgzD+7IeakOQ4Hpzy/UniuwcrlX0vDjRjNv0AWVEtaMbMoaxGhPmljRsIc0ltPSJUU5XrhN2GcvQ6tneq9NCvl4RqGwtigUHbNpUucBNlTq9NF5hHa8+N0sKpacoM2Iy1tkvwvA0IKC/8bAvJJgpWhI1CW6797AeWy98efJ/TIfgIQDPm4TehWPhT4gDNmHEvgZ1HhOP7+vapzD1aQqfKfUbq1wzTZ7jPhJprG6eZ+942at+uHT38fq6lo2IjtXB+A36x6wACCDidAH+/s4uLU8LfIWvHhnc/z/QmqQFNcwXpTddcPm64D82YG3qxhW3wa8ZgwN9Cgk0fs/OIcItw+spTAjwqPSZGpRxeXn1At+1Gc23j/Nhh6sz/2SS/+Pk6VDB6VGykFo73u220GYMBf6j+Q5zzCCjtmFUrKvW6hdGbznnEo68xhLHombnmCb8wJkZOCMYQ0DvS05vOmFqRFLjYaJa1W4GB7aP0GtPqrXOKzvdJb36B9dWe69HWsW2Ktt3afNQ1T+OcafCfhmlKRQVHpxOw2m7soj6p0o403L4VHM/2o5wOwUcAwpiH3wQIY8Z3vt6Rnt50RtTQKIFFb53vv7K/rmrrzS9SZs1p66LVwqkpSnb9EW7T9Ej1wT0QsCMBJYxZpRljDTwv6IkU+D6M9xsJQRhrZOGpM/6BZsedHGAzZlzX23FEaJTAordtt4/vHXFUzLQzxEpFI0bFerVrutP5ve9jitK4TwVyamsCfmHslHW+xq4ZnkV3X9K7SdPjY2PopRljhEudrCb3vBwBYcyjvV921me8z82HMGbcSxA4ItSq6NW11SNC3YJIWfDqTy0VvW1j/2pqVKzarM2rurZOeAQvl9E8MGiph252zaEn6NXCKVZw+KqHKtI4hUBbeeE/WnxGIrppdDY9fsMwec575I7p1cUp6CyrJ4Qxy1DbqyC1kpK9xMfH4jUwsnd4xMcjv0xhExEY+LotRoR6BRE96fS2LVw61oh1Ey4j+P3795fX04sr99GlT6+g6a9uoAfe2iKPfM1G+YEhlMC2YlcBPSJWbUYKLKtFY5vi9zGWHNx3kcrAPRCwO4He6R1lFflzVyRWVVoRKoT95aqGLdNmXdaP7hAa85E5vpWcK3cVWlEFR5UB1xaO6i7jKqvsxfQaWxtXsjdyYmGEHRryFCFrW1jQ4Wm5trCRUNOL7OMr2Hzf1xcssLCgqHfaULVt/b5C+uyrb2jyZeNofP+MJm1T6bQM+N2b+ca3tCWvmJ75dHeTF0L5IlOCayi3FZ0SYqmiqlY+2yutIx06VSkdSQa2TynNotFEKpsxFhoRQMAtBNj+MVMMMNj34Y9iqlLv9metaf/K3YVUda6OeovP55CsJJnVVYO7EW/J9sXOQvq/Y3u2JnvXPQuViOu6VF+DlDCGTcL18WpJKha82NHqDed3l8e2EMS43nqnF6OpH6cdJ4TLC9Lr5THcsxyvZZAqfB79788vogQxnRkqKIGKV0Eu/SH0lipKEPvJoK702a8up5cN0kQWNjjqhTAWqmcQ52QCym7MKk/8S7f5tNtTR2SJnT6Q+BbTAAAnqklEQVR8Q6Orh2ZIhF/tPUFnG1YtO5mpkXUP/W1oZAnIy5YElDAGezFbdo/hlQo3bdhWU6e5R0vlqDlcQ9UqyP/455aQ2jz13K78MooTTma5fWt/cyX9+afny1txQghc89BPojYS9mvG4H1fIcbRJQSs9DVWWX2OVu46IclNCzDUH5qVTNlCC3+2po7W7T/pErLGNAPTlMZwdFwuEMYc12WtrnC4acNwWq1WFxghA2UoHyGJvHVGfGlHCmpLFda+cTt4FN7u7S10TiwKKDpTLaeHIz2vvecXxuB9X4sG1w4n0De9k2yBFe4tVgtbMfbXl9Olg/D4n+wnxxqyq4Z0o//dcIg+31FIV4ppSwQfAWjGPPomQBjzZseHmjZsCxJ6FgvorVegYMeLUbo1GN8fLfKt5NKbD6fDNGU0tJDWSQSs1Iwtzc2XaK4NmKJUrK4e6hPAeAFOncYJtUrjxSOEMS/2umgzhDGPdrxNmq0WFSgje221OD61k76dIbSCXfeUDjI7taxem3e4a7ZhKW3wvafNM9wziAcBpxAItBnjbb/MCvw5WrGzQGbPmmptuLhvKnUSq/gLhE+/3GMl2tuevYYw5tGuL2nYJDwF+1J69A1o22azhi6cLzIloD1xw/CIzmM5XSi3Fd3F1AiHaDVjyq0F+0lL7gALDgkR/1xDoGdqRxIfO6qoriX1rpvRuDV7Tsgy2DZsVIMri8ByEuJi6fKBXWUUr6pE8BGAMObRNwGaMY92vI2a3dyigmkjs5sV2EK5rWipZkxNd/JKSrX6y0a4UBUQaBUBHmSogYqZdmPLGqYoA1dRaivOdmMcvtjh06Bp73vxGsM/L/a6aLMSxuDawqMvgE2a3dyiAiWwsZsLNtZXgVeBsiDG97VB/eBEqxkrxFZIWpS4dhmBPumdKe/0GbH7RQWN65tmeOuqztX6BaxpIzLD5s8uaVhLt+N4KR0TXvqzG0wLwj7ggRsQxjzQyaGaqIQxuLYIRQdxVhJQiwrCldmcwKZ9ruWasSqZFezFtERx7RYCfYQD1jWiMez41Yzw9b6TVCY87/MuG6N7hN/yKK1zAo3p2YU2HSqiL4V9Ge9n6/WAaUqPvgEQxjza8Q5tthLY9DjQ9QtjUa6m9E9TwseYQ98SVLs5AsqI/8cT5ghjS7f5VlFOFRrrdqz6ihDUqkrYjfkgQRiL8LK4+RaEMTf3rrfbpqYpeYSu3nM9RHh1Fwd439dDC2mcSEC5tzhogmasWmx99Nl2JYyFn6JU3K4e4vPGv37/KSoXn1WvBwhjHnwDztXW+V/+lI7tPUgATXYzAd6Hr0vDKmG2R9Eb4PBVLymkcyqBvsJmjMNBsZer0T6+2KM+u4bpKhbAXNg7tVlE/bp2lvtWVovfo6/ECkyvBwhjHnwDlC8lbnpyIswGPfgKuL7JSjsWjRG/cvjaFdOUrn8/vNrA7JREio+NIdZiHSvRP1DRw2tZwxTlNcMy5W4YzT3DK5avVqsq4eKCHCeMzZs3Ty47545Uf4MHD47Y7//85z+J0yQmJtKIESNo6dKlEdO7/aaauumcEEdxwmM5Agi4jYDfbiwKzZjyvYRpSre9DWiPIsDf9+xvjIOR7i1qhHbr0x0NU5QRVlGqeqijcnGxcnch1XrcG78jf4mHDRtGx48f9/+tXbtW9W2T47p162j69On085//nL7//nu68cYb5V9ubm6TtF6JUMIYVlJ6pce9187uKb4fHL1e+PnH5FRFtQSF1ZTee1+81GJlxH9QuLcwKnxz4DQVC0fiaZ3a00U6pihVuRf27kL8O3RafPa25BWraE8eHSmMxcXFUWZmpv8vPT09bOe98MILdM0119BDDz1EQ4YMoQULFtCYMWNo0aJFYZ9x+w0ljMHHmNt72rvti3aa8mS5z3ifV23yDwoCCLiVgBLGDhggjLE2iw3w/2vVPomLV0hGM9vCe8lOFD7HOHy5y9t2Y440GNq7dy9lZ2fLacfx48fTwoULqWfPnrJDtf/Wr19Pc+bMCYqeMmUKLVmyJChOe1FVVUX8p0Jpaak8rampIf7TE1Q6ddTzjBVpTpX5bAWSE2N1t8WKerW2DMVZHVubH56PTEBxVsfIqa29m5nk29cyr6hC1zt+7LRPS5DeuT3V1p4Tf9bWV09pirM66nkGaVpOQHFWx5bnZK8ne3RJlBU6cKJc12cjXO0/3V5ATyzdRfkNq5A5Ha+mvKxfKk0Z5vOwH+7ZwPifDEynD7YcE8JYIQ0fQK2qU2C+gedO6EPHCWPjxo2jN954gwYNGiSnKefPn0+XXXYZ8bRjUlJSIH95np+fT926Bb8YfM3xkQILeJy3Nnz22WfUsaNvCkR7L9z1559/Hu5Wm8Svy2f/L7F0puSUK+3n7Ma7TTrZwkLtyDuvnAHE0Y8FJbre8W2nfZ+J9rVndaW3EG+TouzIu0klXRThNt6FJb53ffvhEy1+17eeiqHX9qiJNc7PF4oqq2n2W1to5sA6GpWmbzNysQCTYsTv0YGTlbSyUwzt/dcX1C+5XnroV/m29lhZWdnaLEx/3nHC2NSpU/1QRo4cSSyc9erVi9555x1pF+a/2cqTuXPnBmnUWDPWo0cPmjx5MiUnJ+vKnaVx/iBPmjSJ4uN9I3VdD5qc6OCqA8J6cx8N6tODpk0bZnJp1mVvV97WEbC2JDvz5h+FZ7etorKaGLpq0hRKiI+NCKfk2zyi3TtpQE6G+EyMjpi2rW7amXdbMTGzXLfy5m3FFu1YQ6erxKrK7PMpS2wtdmGvLrpWQDJvnppc+NwacdY4c9TYD2JhnbhYVtCR/t/PLteVJ2vY4jf/QNW19bTkkO9zmilWND8ybXBUGrbGOjQ9UzNbTe/YJ8ZxwpgWXUpKCg0cOJD27fPNWWvvs21ZQUHwZqR8zfGRQkJCAvGfNrBQFa1g1ZJntOUaeV1e7ZuD6dIpIeq2GFkPs/KyG2+z2mmXfO3Iu2tyHHUQAtiZmloqrDhHfbv6pmbCMTsl0nDodl4H238m7Mg7HFc3xLuNd+6xk7JbePHiQ+/6FrKxQBZur1dtH24SNmKBU5Pa+6wPO15SRd8fKaPx/SLvf7k89zjd/9ZW0urQ2AEzx780Y0zI/We1ZTZ3zX1o96D0jHavZ9j6lZeX0/79+ykrKytkGrYp+/LLL4PusbaK470alAE/VlN69Q1wf7vZ7Y3fiF+He4tGh69NB2Dup4UWeoUACz/3Ld7cpLn5Qlt275ubie83F9S2Ya1Nxxq2+R/taCKIcb5KOOP7XnF54Thh7Ne//jWtXr2aDh48SOy24qabbqLY2FjpvoI78Y477iCeYlThgQceoOXLl9Nzzz1Hu3btIvZTtmnTJpo9e7ZK4rmjEsawmtJzXe+pBitfY3q88J8oOyvZZMDhq6feES811ijhR6/rl+bSbfzxtNCg+T53ofrBp2E7S5zOC8FxwtiRI0ek4MUG/LfeeiulpaXRhg0bqGtX3/LYw4cPS8N+1XkTJkygxYsX0yuvvEKjRo2if/3rX3Il5fDhw1USzx3ZHwyHFOHfBQEE3ErArxnTsWF4o2Ys8nSmW1mhXe4nYJTwc1GfVGln1mi2H8yO43nak9NFCkZp2CKV4aR7jrMZe+uttyLyXbVqVZP7t9xyC/Efgo+A0oxhmhJvhJsJKM3YET3TlNgk3M2vAtomCBgl/LAvPrYv42lNbVACGt/ndJFCc5oz9azedCq9U4+O04w5FbSd6l16xqcZgzBmp15BXYwmkNOlg8yyuf0pecNk5fQV05RG9wLyswsBvUKNnnTXDM+SxvVagStTaMT0Gt0bpWGzC9/W1sNxmrHWNhjPE0EzhrfACwSUZqy5LZFOCzcY54RAJmz+Kb0zDPi98G54sY1K+GFjfWUgH8iB9VgsTDU3vaiemTgog3ggw2HBDcOof0aSfFYroKn02mOgho3LDqyT0qnp0bBp83XqNTRjTu25Ftab9+CraHBtAc1YCyHiMUcQUDZj/OMTaUVWYcMUZWrH9sTbsyCAgBsJKOGH26aEHdVOdR2N8LOnoEwKUKli+7AZF/eSbiz0CmKqXKVhYyEwMESjYQt8zsnn0Iw5ufdaUHc1RcmPYjVlCwDiEccQ4OmWOGG3wlqvgtKzlJ3im7bUNkDZ0nRNglZMywbX7iKghB92GRG4kpGFHxbE+L7esPO4b4vAIVlJQqusxDm9Tzem4zInDc2k9fsK6bOvvqHJl42j8f0zmrU5a8zBHWcYBrqjH3W3orjBXiwpMc5zL7tuSEjoCgI8Ss9K8Y24I01V+ldSJgePzl0BAY0AAQ0BFn7W/uZKmnVZH3lneHayvI5GEOMHdx4vk88PydS3I41MHOYff1bHidWXF6TXy2O0GrYw2ToqGsKYo7qr9ZWFvVjrGSIH5xDIFh71OUQy4j9RViXTZEAzJjngn/sJsLBz/ajusqF5wvWLuIw67PBrxlovjEVduAsfgDDmwk6N1CQIY5Ho4J7bCCi7sYiaMTGFyQHCmNt6H+2JRGBgZmdhIxkjF3Qd0eGLLzCv+vp6oRlT05QQxgLZtPQcwlhLyTn0OWUzBuN9h3Ygqh0VgZwGO7GIwhg0Y1ExRWJ3EEiIi6VBmUmyMblHS6JqFH+eys6ek8Jc/4zOUT2LxKEJQBgLzcW1sdCMubZr0bAQBPyasQgjf9iMhQCHKE8QGJ59nmxn7rHohDFlL9ava2dqHwcxwoiXBRSNoOigPEoatkKCZsxBnYaqtphA95SO8tnImjFMU7YYMB50NIHh3X3C2LajvilHvY1RU5RDszBFqZdZc+ng2qI5QibfZ/9HvGcYL6/npfjscM+slSRclvoQVVSfk76XzCrLZGzIHgR0EQjUjLGdi3YJPscpP2N6PI/rKhSJQMAhBJQwtl1MU4b6fIRrxq582IuFY9PSeAhjLSVnwHPLc4+T1t8Lb7Aarb8XPVXRlvXR1uO06WCRKWXpqQ/SgIAVBPjzxOFMTS0VCa0wO6gMDKXC7qXqXJ2MwlZIgWRw7gUCg4XNGA/IT1VUS79j4XzxaVmoacrBwscYgjEEME1pDMeoc2HhiDdaDXS8x5mwt3CO5/vRBNZ6rd9/ij7YclQeAz2OG11WNPVCWhBoSwKJ8bGknLmGcm9xQmikObDfPU6LAAJeIsDv/IAGA3y9RvyVYlbl4KkKiWkIpikNe12gGTMMpf6MWFBijVjgXlzqaY5jly98n70S65lG1Gq9OC+lYeM8jCyL80YAAScR4D0q2ZfY0eJKGpHjs5FR9W+cooT3fcUER28RGCHsxnbllxELY5OHZTbbeE4rZvflIAd7uTaLS3cCaMZ0ozIuIduIaTVigbmzQMb3OV1zoTmt11++3GtYWc3VBfdBwI4ElN1YKF9K/pWUwl4TAQS8SEDZjeUe02fEr+yOoRUz9m2BZsxYnrpyU3vhNZe4uXTNadg4/z8JYUxPaK4sPXkgDQjYkQBrxjiEWlHJe1ZygL2YxIB/HiSghLFtOn2NNQpjsBcz8nWBZsxImjrz0rtqq7l0zWnYdFZHJmuurGjyQloQsBMBvzAWwtdYo2YM05R26jPUxToC7J6Ct0PiqfzChsFJpNKV8T7cWkSiFP09CGPRM2v1E+y+gm26Im0Hxvc5XaSgV5vFPsXClcXxesqKVA/cAwE7E1DC2LGSM02q2SiMYZqyCRxEeIJAh/axpLzoN6cdqxP2zruwDZIp7wWEMVOwRs6UjfLZfQWHcEIS72DfnPF+Ssf4yAU13J15SR95pi1LXXNdmitLV0FIBAI2JKBsxkKtplSaAExT2rDjUCXLCPg98Tfj/DWvqJIqqmul1/2+6Z0sq58XCoIw1ka9fM3wLHppxhjKbPCDpKrROcFnxrdkyzF64Yu90hFfKLcVh09V0lNLd6nHQh5Z2GKt1+wr+4csi8vmOnBdEEDArQSUMMZ+xnhZfmDgqRkOyv1F4D2cg4BXCOi1G1P2YgO7daa4WIgPRr4fMOA3kmaUebEQxK4ntB74/7pmP/1h+W56/os9tDO/hLbklUj/Yyr7LkIjdlY4sTxTU0csvJVXnZMatkBXGVqtV7iyoBFTVHF0K4HkxHjpR4w3Nmbt2IBujYbHmKZ0a6+jXdEQUMLY9mb2qFT2YoMzsQ1SNHz1pIUwpoeSiWlYGBrfLy2ohF9M7E/txajjiU92CuevBUH3+IJH+Bz6pHekxbMupq15xU08+bPWS+vJP1RZMiP8AwGXE2C7MfaPdKS4URhjLRkPZDhgmtLlLwCaF5HA0OxksVWYz6XSyfIqCuc/TGnG4NYiIs4W3YQw1iJs5j90t7Dz+rNwS8HbtYQLZ4VmjFdBQusVjhDiQcBHIKeLTxgLtBtTDl8T49tRUoN5AHiBgBcJ8AxLH2EDduBEhXT+OnFQRkgMO/17UjZql0MmRGTUBDDpGzUyax7gqctIghjXItAxrNJ63XB+d6lpw/SjNf2EUpxBQK2oDPQ1FjhFqd1A3BmtQi1BwDgC7ImfQ7htkcrO1lDead+KZLi1MI67ygnCmCJhs6NetxV609mseagOCFhKQG2AHKQZa9iXMiMJPsYs7QwUZksCza2o5Gl+DrwoLKVje1u2wcmVgjBm097T64RVbzqbNhPVAgFLCKgVlUGasVLfSkrYi1nSBSjE5gSUEX84X2OwFzO3AyGMmcu3xbk35xhWua1ozjFsiyuAB0HARQTUNOUxYcCvQuA0pYrDEQS8SmBYd98KSR6wFFVUN8HQKIzBXqwJHAMiIIwZANGMLNjmK5xjWK3bCjPKR54g4CYCSjPGe1HW1NbJpqkpfvgYc1NPoy0tJcAuYHqndZSP54ZwcbHjuG+aEispW0o48nMQxiLzadO7vEoylGNYOGtt025B4Q4kkN4pQXoNF7u5+H32KYevsBlzYIeiyqYQGOY34i8Nyp8dj+/2r6SEj7EgOAZdwLWFQSDNygZuK8wii3y9RKCd0DTzVOWPJyvoiHD82iO1o9gUWdmMYV9KL70LaGt4Aryi8pMfjjdZUXnwVIVwNF5H7Aamdxq2QQpPsOV3HKcZW7hwIY0dO5aSkpIoIyODbrzxRtq9e3dEAm+88YZwaBcT9JeY6JwvYLitiNi9uAkCuggouzFlxK+mKaEZ04UPiTxAwO/eQjNNuathinKQ2L0CbpPMeREcJ4ytXr2a7rvvPtqwYQN9/vnnVFNTQ5MnT6aKioqIhJKTk+n48eP+v0OHDkVMj5sgAALuIuAXxoRmrPpcnX8ni27JzhmYuatH0Bq7ERgmPPFzOCT2Pi4549vpha8bjfcxRck8zAiOm6Zcvnx5EAfWerGG7LvvvqPLL7886F7gBWvGMjMzA6NwDgIg4CECyoj/aHElnRBbvnCIj40h3usVAQRAgKT/sB6pHaRzV96nckK/dIkFwpj5b4fjhDEtkpKSEhmVmpqqvRV0XV5eTr169aK6ujoaM2YMPfnkkzRs2LCgNIEXVVVVxH8qlJb6DBpZE8d/eoJKp456nkGalhNQnNWx5TnhST0EFGd11PNMW6bJTPI5qjxyupKOnS6XVeE9+M6dC7/lWFvWV1u24qyO2vu4NpaA4qyOxuZu39yGZiZJYWzr4SIa29PnlX/Hcd/v34CuHXX//kXbQsVZHaN9PlJ6M/KMVF5L7sXUi9CSB+3wDAtW119/PRUXF9PatWvDVmn9+vW0d+9eGjlyJLHw9uyzz9KaNWto+/btlJOTE/K5efPm0fz585vcW7x4MXXs6Fv+2+QmIkAABGxLYG9JDC3aEUvpifV0Q686+u/dsdSrcz3NGVFr2zqjYiBgNYHPj8bQx4djaUxaHd05sI4qhO7hd5t8epunxp6jDg5U4VRWVtJtt90mf//ZZMmOwdHC2L333kvLli2Tglg4oSoUdJaShwwZQtOnT6cFCxaESiK1YlrNWI8ePejkyZOktzO5HLZrmzRpEsXHYyokJGgDI8HbQJg6snIa77yiSrryj2vl1OTDUwfRvI930dWDu9JLPxuto7Vtn8RpvNueWOtq4FXeX+09STP/ZzP1ET7HPnvwUvpG7JM847VNlJOSSCv/I7wpUOtok9S4mfV7yTNb6enpthbGHCjj+rp89uzZ9PHHH0sNVzSCGD/NgtHo0aNp3759Yd+fhIQE4j9t4GejFaxa8oy2XFzrJwDe+lkZkdIpvHukJZHwcCGcvgqfSYW+BT/dzusQ9efZCGatycMpvFvTRjs96zXeo3r6TH5+FEb8Z4XSeE9hpeyOIdnnWfJZMYM352n34LjVlDyryoLY+++/TytWrKA+ffpEzbi2tpa2bdtGWVlZUT+LB0AABJxJID62HamVk98fLpaNwN6uzuxL1No8AmnCjjJbbAbOYcexUqykNA91UM6OE8bYrcWbb75JbLvFvsby8/Pl35kzjXvO3XHHHTR37lx/Qx9//HH67LPP6MCBA7R582aaMWMGsWuLe+65x58GJyAAAu4noNxb7Cnwbe2CTcLd3+doYfQE1KbhuSyMNXjeH5qFPSmjJ6n/CccJYy+99JKc9504caLUbLF2i//efvttf6sPHz4s/YmpiKKiIpo1a5a0E5s2bRrx/PG6deto6NChKgmOIAACHiCg3Fvwtkgc4PDVxwH/QSCQgBLGtuQV054C38rjwZn2NHwPrLeTzx1nM6Zn8eeqVauC+uT5558n/kMAARDwNgGlGVMUME2pSOAIAo0ElCf+L3cWSAfJndrHUk+xhRiCeQQcpxkzDwVyBgEQcDsBpRlT7cQ0pSKBIwg0EhjW3acFq6z2uX3JFispHesDq7FZtj6DMGbr7kHlQAAEjCQQqBkTm3JQWiefI1gjy0BeIOB0ApsPFcmVx6ode8Xq40ufXkHLc4+rKBwNJgBhzGCgyA4EQMC+BLIaVolxDZMS4om3SUMAARBoJMAC171vbiZlV6nu5JeclfEQyBQRY48QxozlidxAAARsSoB/RO54baO/dqVnazDa99PACQgQ1QoJbP5HO0JOSappSr7P6RCMJQBhzFieyA0EQMCGBNRov6C0cb9ZriZG+zbsLFSpzQhsFN72jwsNWLjAIhjf53QIxhKAMGYsT+QGAiBgMwIY7dusQ1Ad2xIoLAsviAVWWm+6wGdwHpkAhLHIfHAXBEDA4QQw2nd4B6L6lhHQ6+pFbzrLKu6CgiCMuaAT0QQQAIHwBPSO4vWmC18S7oCAswlc1CeVeJFLuGUtHM/3OR2CsQQgjBnLE7mBAAjYjIDeUbzedDZrHqoDAoYRiG0XQ49d59uZRiuQqWu+z+kQjCUAYcxYnsgNBEDAZgQw2rdZh6A6tiZwzfAsemnGGMoMcAPDFeZrjuf7CMYTcNx2SMYjQI4gAAJuJqBG++w7icfzgYvy1fgeo303vwFoW7QEWOCaNDRTrprk6XvWGvOgBhqxaEnqTw9hTD8rpAQBEHAoATXaZx9JgUv3ebTPghhG+w7tWFTbNAIseI3vl2Za/sg4mACEsWAeuAIBEHApAYz2XdqxaBYIuIAAhDEXdCKaAAIgoI8ARvv6OCEVCICAtQRgwG8tb5QGAiAAAiAAAiAAAkEEIIwF4cAFCIAACIAACIAACFhLAMKYtbxRGgiAAAiAAAiAAAgEEYAwFoQDFyAAAiAAAiAAAiBgLQEIY9byRmkgAAIgAAIgAAIgEEQAwlgQDlyAAAiAAAiAAAiAgLUEIIxZyxulgQAIgAAIgAAIgEAQAQhjQThwAQIgAAIgAAIgAALWEoAwZi1vlAYCIAACIAACIAACQQTggT8IR/iL+nrf9sKlpaXhE2nu1NTUUGVlJfEz8fHxmru4NJoAeBtNNHJ+4B2Zj9F3wdtoopHzA+/IfIy+ayZv9butfseNrrsR+UEY00mxrKxMpuzRo4fOJ5AMBEAABEAABEDALgT4d/y8886zS3WC6hEjJEWfyicoGhdaAnV1dXTs2DFKSkqimJgY7e2Q1yyNs/CWl5dHycnJIdMg0jgC4G0cSz05gbceSsalAW/jWOrJCbz1UDIujZm8WcxhQSw7O5vatbOndRY0YzrfJe7AnJwcnamDk7EgBmEsmImZV+BtJt2meYN3UyZmxoC3mXSb5g3eTZmYGWMWb7tqxBRLe4qIqnY4ggAIgAAIgAAIgIDLCUAYc3kHo3kgAAIgAAIgAAL2JhA7TwR7V9HZtYuNjaWJEydSXBxmhK3oSfC2gnJjGeDdyMKKM/C2gnJjGeDdyMKKMy/zhgG/FW8YygABEAABEAABEACBMAQwTRkGDKJBAARAAARAAARAwAoCEMasoIwyQAAEQAAEQAAEQCAMAQhjYcAgGgRAAARAAARAAASsIABhzArKKAMEQAAEQAAEQAAEwhCAMBYGjBHRL774IvXu3ZsSExNp3LhxtHHjRiOyRR4aAgsXLqSxY8fK3REyMjLoxhtvpN27d2tS4dIsAk899ZTcleLBBx80qwjP53v06FGaMWMGpaWlUYcOHWjEiBG0adMmz3MxA0BtbS3953/+J/Xp00ey7tevHy1YsICwWY0xtNesWUPXXXed9IbPu9ksWbIkKGPm/Oijj1JWVpbkf/XVV9PevXuD0rjxAsKYSb369ttv05w5c+ixxx6jzZs306hRo2jKlClUWFhoUonezXb16tV033330YYNG+jzzz8n3nB28uTJVFFR4V0oFrX822+/pb/+9a80cuRIi0r0XjFFRUV0ySWXUHx8PC1btox27NhBzz33HHXp0sV7MCxo8dNPP00vvfQSLVq0iHbu3El8/Yc//IH+8pe/WFC6+4vg72X+PWRlRajArP/85z/Tyy+/TN988w116tRJ/naePXs2VHL3xAkpFMEEAhdddFG9EBD8OYvRVr3YF6teaHH8cTgxh4AQeHm/1XohpJlTAHKVBMReb/UDBgyoFwJw/RVXXFH/wAMPgIwJBH7zm9/UX3rppSbkjCxDEbj22mvrZ86cGXTr5ptvrv/Zz34WFIeL1hPg7+n333/fn5HYA7o+MzOz/plnnvHHFRcX1yckJNT/4x//8Me58QSaMRPk6urqavruu++I1asq8N6WfL1+/XoVhaNJBEpKSmTOqampJpWAbJkAayPFD1fQew4yxhP48MMP6cILL6RbbrmFeBp+9OjR9OqrrxpfEHKUBCZMmEBffvkl7dmzR15v3bqV1q5dS1OnTgUhkwn8+OOPlJ+fH/SdwntKspmP23874RbehJfr5MmTxHYH3bp1C8qdr3ft2hUUhwtjCYiRFbHtEk/rDB8+3NjMkZufwFtvvSWn33maEsFcAgcOHJDTZmz28Lvf/Y6Y+S9/+Utq37493XnnneYW7sHcf/vb31JpaSkNHjyY2CM8f5f//ve/J6EZ8yANa5vMghiHUL+d6p61NbKuNAhj1rFGSRYQYG1Nbm6uHMlaUJwni8jLyyMxJSnt83hxCoK5BHiAwZqxJ598UhbEmjF+x9mmBsKY8ezfeecd+vvf/06LFy+mYcOG0ZYtW+QAT5iZgLfxuJFjAwFMU5rwKqSnp8sRVUFBQVDufC3mw4PicGEcgdmzZ9PHH39MK1eupJycHOMyRk5BBHgKnheijBkzRu65yvuu8iIKNrrlc9YkIBhHgFeVDR06NCjDIUOG0OHDh4PicGEMgYceeohYO/bTn/5Urlq9/fbb6Ve/+hXxqm0Ecwmo30cv/nZCGDPh3eLpgwsuuEDaHajseXTLdgjjx49XUTgaREAYcxILYsIQlFasWCGXpBuUNbIJQeCqq66ibdu2SY0Baw34jzU3PI3D5zy1g2AcAZ5y17pqYXumXr16GVcIcvITqKysJLbxDQz8TvN3OIK5BNidCAtk/FupAk8Z86pKt/92YppS9bjBR7bv4CkE/pESKyvpT3/6k3S1cPfddxtcErLjqUmeUvjggw+krzFlW8CGn+yTCcFYAklJSU3s8Xj5OfvAgp2esaw5N9bKsFE5T1Peeuut0l/hK6+8QvyHYDwB9oHFNmI9e/aU05Tff/89/fGPfySxwtL4wjyYY3l5Oe3bt8/fcjba50EcL7hi5mzz+8QTT5BYqS0H1uzzjaeI2X+kq4Mbl4japU3CL029eLnqhaasnl1dCD9Ydqmaq+ohPqDSlYX2+Prrr7uqnXZuDFxbmNs7H330Ub0QdOUSf2FYXi8EMXML9HDuQhMj3bTwd7ewiazv27dv/cMPP1xfVVXlYSrGNV2YkYT8vhbKC1mI0EDWCwGsXhjxy/ddaOLrhWbYuArYNKcYrperpU00DgRAAARAAARAAARsTCB4YtzGFUXVQAAEQAAEQAAEQMCNBCCMubFX0SYQAAEQAAEQAAHHEIAw5piuQkVBAARAAARAAATcSADCmBt7FW0CARAAARAAARBwDAEIY47pKlQUBEAABEAABEDAjQQgjLmxV9EmEAABEAABEAABxxCAMOaYrkJFQQAEQAAEQAAE3EgAwpgbexVtAgEQaELgrrvucr8X7yatRgQIgIATCGA7JCf0EuoIAiAQkUBMTEzE+4899hi98MILBB/XETHhJgiAQBsRgDDWRuBRLAiAgHEEjh8/7s/s7bffpkcffTRoc+3OnTsT/yGAAAiAgB0JYJrSjr2COoEACERFIDMzk9QfbxDPmjJ1zUcWxLTTlBMnTqT7779fbkzcpUsXEnvh0auvvkoVFRV09913y03n+/fvT8uWLQuqS25uLk2dOlXmyc/cfvvtdPLkyaA0uAABEACBaAhAGIuGFtKCAAi4isDf/vY3Sk9Pp40bN0rB7N5776VbbrmFJkyYQJs3b6bJkydLYauyslK2u7i4mK688koaPXo0bdq0iZYvX04FBQV06623uooLGgMCIGAtAQhj1vJGaSAAAjYiMGrUKHrkkUdowIABNHfuXEpMTJTC2axZs2QcT3eeOnWKfvjhB1nrRYsWSUHsySefpMGDB8vz1157jVauXEl79uyxUctQFRAAAScRgM2Yk3oLdQUBEDCUwMiRI/35xcbGUlpaGo0YMcIfx9OQHAoLC+Vx69atUvAKZX+2f/9+GjhwoEyHfyAAAiAQDQEIY9HQQloQAAFXEYiPjw9qD9uaBcapVZp1dXUyXXl5OV133XX09NNPBz3HF1lZWU3iEAECIAACeghAGNNDCWlAAARAQBAYM2YMvfvuu9S7d2+Ki8PXJ14KEAABYwjAZswYjsgFBEDAAwTuu+8+On36NE2fPp2+/fZb4qnJTz/9VK6+rK2t9QABNBEEQMAMAhDGzKCKPEEABFxJIDs7m77++mtiwYtXWrJ92YMPPkgpKSnUrh2+Tl3Z6WgUCFhAIEZ4pK63oBwUAQIgAAIgAAIgAAIgEIIAhnIhoCAKBEAABEAABEAABKwiAGHMKtIoBwRAAARAAARAAARCEIAwFgIKokAABEAABEAABEDAKgIQxqwijXJAAARAAARAAARAIAQBCGMhoCAKBEAABEAABEAABKwiAGHMKtIoBwRAAARAAARAAARCEIAwFgIKokAABEAABEAABEDAKgIQxqwijXJAAARAAARAAARAIAQBCGMhoCAKBEAABEAABEAABKwiAGHMKtIoBwRAAARAAARAAARCEPj/Gs9LIyrd/eYAAAAASUVORK5CYII=;" parent="1" vertex="1">
          <mxGeometry x="34.360000000000014" y="293.15" width="121.27" height="91.7" as="geometry" />
        </mxCell>
        <mxCell id="juhcVKc-gh98u9--TeOG-5" value="" style="endArrow=classic;html=1;rounded=0;entryX=0;entryY=0;entryDx=0;entryDy=10;entryPerimeter=0;" parent="1" edge="1">
          <mxGeometry width="50" height="50" relative="1" as="geometry">
            <mxPoint x="170" y="338.84000000000003" as="sourcePoint" />
            <mxPoint x="190" y="338.84000000000003" as="targetPoint" />
          </mxGeometry>
        </mxCell>
        <mxCell id="juhcVKc-gh98u9--TeOG-6" value="" style="shape=cube;whiteSpace=wrap;html=1;boundedLbl=1;backgroundOutline=1;darkOpacity=0.05;darkOpacity2=0.1;size=10;fillColor=#f5f5f5;strokeColor=#666666;fontColor=#333333;" parent="1" vertex="1">
          <mxGeometry x="200" y="304" width="80" height="70" as="geometry" />
        </mxCell>
        <mxCell id="juhcVKc-gh98u9--TeOG-7" value="" style="sketch=0;outlineConnect=0;fontColor=#232F3E;gradientColor=none;fillColor=#ED7100;strokeColor=none;dashed=0;verticalLabelPosition=bottom;verticalAlign=top;align=center;html=1;fontSize=12;fontStyle=0;aspect=fixed;pointerEvents=1;shape=mxgraph.aws4.ec2_aws_microservice_extractor_for_net;" parent="1" vertex="1">
          <mxGeometry x="221" y="320" width="48" height="48" as="geometry" />
        </mxCell>
        <mxCell id="juhcVKc-gh98u9--TeOG-8" value="&lt;font style=&quot;font-size: 8px;&quot;&gt;Yaw time series&lt;/font&gt;" style="text;html=1;align=center;verticalAlign=middle;resizable=0;points=[];autosize=1;strokeColor=none;fillColor=none;" parent="1" vertex="1">
          <mxGeometry x="50" y="388" width="80" height="30" as="geometry" />
        </mxCell>
        <mxCell id="juhcVKc-gh98u9--TeOG-9" value="&lt;font style=&quot;font-size: 8px;&quot;&gt;Extract features&lt;/font&gt;" style="text;html=1;align=center;verticalAlign=middle;resizable=0;points=[];autosize=1;strokeColor=none;fillColor=none;" parent="1" vertex="1">
          <mxGeometry x="200" y="388" width="80" height="30" as="geometry" />
        </mxCell>
        <mxCell id="juhcVKc-gh98u9--TeOG-11" value="" style="endArrow=classic;html=1;rounded=0;entryX=0;entryY=0;entryDx=0;entryDy=10;entryPerimeter=0;" parent="1" edge="1">
          <mxGeometry width="50" height="50" relative="1" as="geometry">
            <mxPoint x="290" y="338.79" as="sourcePoint" />
            <mxPoint x="310" y="338.79" as="targetPoint" />
          </mxGeometry>
        </mxCell>
        <mxCell id="juhcVKc-gh98u9--TeOG-12" value="" style="shape=cube;whiteSpace=wrap;html=1;boundedLbl=1;backgroundOutline=1;darkOpacity=0.05;darkOpacity2=0.1;size=10;fillColor=#f5f5f5;strokeColor=#666666;fontColor=#333333;" parent="1" vertex="1">
          <mxGeometry x="500" y="302" width="90" height="70" as="geometry" />
        </mxCell>
        <mxCell id="juhcVKc-gh98u9--TeOG-13" value="" style="endArrow=classic;html=1;rounded=0;entryX=0;entryY=0;entryDx=0;entryDy=10;entryPerimeter=0;" parent="1" edge="1">
          <mxGeometry width="50" height="50" relative="1" as="geometry">
            <mxPoint x="470" y="338.87" as="sourcePoint" />
            <mxPoint x="490" y="338.87" as="targetPoint" />
          </mxGeometry>
        </mxCell>
        <mxCell id="juhcVKc-gh98u9--TeOG-14" value="" style="image;aspect=fixed;html=1;points=[];align=center;fontSize=12;image=img/lib/azure2/ai_machine_learning/Bonsai.svg;" parent="1" vertex="1">
          <mxGeometry x="530" y="316.5" width="42.24" height="41" as="geometry" />
        </mxCell>
        <mxCell id="juhcVKc-gh98u9--TeOG-15" value="&lt;font size=&quot;1&quot; color=&quot;#ff2626&quot;&gt;&lt;i style=&quot;font-size: 6px;&quot;&gt;RandomForestClassifier&lt;/i&gt;&lt;/font&gt;" style="text;html=1;align=center;verticalAlign=middle;resizable=0;points=[];autosize=1;strokeColor=none;fillColor=none;" parent="1" vertex="1">
          <mxGeometry x="506.12" y="350" width="90" height="30" as="geometry" />
        </mxCell>
        <mxCell id="juhcVKc-gh98u9--TeOG-16" value="Classify" style="shape=cube;whiteSpace=wrap;html=1;boundedLbl=1;backgroundOutline=1;darkOpacity=0.05;darkOpacity2=0.1;size=10;fillColor=#ffe6cc;strokeColor=#d79b00;" parent="1" vertex="1">
          <mxGeometry x="630" y="322" width="70" height="34" as="geometry" />
        </mxCell>
        <mxCell id="juhcVKc-gh98u9--TeOG-17" value="&lt;font style=&quot;font-size: 8px;&quot;&gt;HeadRotationDetected&lt;/font&gt;" style="shape=cube;whiteSpace=wrap;html=1;boundedLbl=1;backgroundOutline=1;darkOpacity=0.05;darkOpacity2=0.1;size=10;fillColor=#d5e8d4;strokeColor=#82b366;" parent="1" vertex="1">
          <mxGeometry x="690" y="290" width="110" height="22.15" as="geometry" />
        </mxCell>
        <mxCell id="juhcVKc-gh98u9--TeOG-18" value="&lt;font style=&quot;font-size: 8px;&quot;&gt;NO_HeadRotationDetected&lt;/font&gt;" style="shape=cube;whiteSpace=wrap;html=1;boundedLbl=1;backgroundOutline=1;darkOpacity=0.05;darkOpacity2=0.1;size=10;fillColor=#f8cecc;strokeColor=#b85450;" parent="1" vertex="1">
          <mxGeometry x="690" y="360" width="110" height="24" as="geometry" />
        </mxCell>
        <mxCell id="juhcVKc-gh98u9--TeOG-19" value="" style="endArrow=classic;html=1;rounded=0;entryX=-0.007;entryY=0.417;entryDx=0;entryDy=0;entryPerimeter=0;exitX=0;exitY=0;exitDx=30;exitDy=0;exitPerimeter=0;" parent="1" source="juhcVKc-gh98u9--TeOG-16" target="juhcVKc-gh98u9--TeOG-17" edge="1">
          <mxGeometry width="50" height="50" relative="1" as="geometry">
            <mxPoint x="636" y="327" as="sourcePoint" />
            <mxPoint x="693.76" y="309.49" as="targetPoint" />
            <Array as="points">
              <mxPoint x="660" y="300" />
            </Array>
          </mxGeometry>
        </mxCell>
        <mxCell id="juhcVKc-gh98u9--TeOG-20" value="" style="endArrow=classic;html=1;rounded=0;entryX=0;entryY=0;entryDx=0;entryDy=12;entryPerimeter=0;exitX=0.426;exitY=1.002;exitDx=0;exitDy=0;exitPerimeter=0;" parent="1" source="juhcVKc-gh98u9--TeOG-16" target="juhcVKc-gh98u9--TeOG-18" edge="1">
          <mxGeometry width="50" height="50" relative="1" as="geometry">
            <mxPoint x="610" y="396" as="sourcePoint" />
            <mxPoint x="670" y="374" as="targetPoint" />
            <Array as="points">
              <mxPoint x="660" y="372" />
            </Array>
          </mxGeometry>
        </mxCell>
        <mxCell id="juhcVKc-gh98u9--TeOG-21" value="" style="endArrow=classic;html=1;rounded=0;entryX=0;entryY=0;entryDx=0;entryDy=10;entryPerimeter=0;" parent="1" edge="1">
          <mxGeometry width="50" height="50" relative="1" as="geometry">
            <mxPoint x="600" y="338.89" as="sourcePoint" />
            <mxPoint x="620" y="338.89" as="targetPoint" />
          </mxGeometry>
        </mxCell>
        <mxCell id="juhcVKc-gh98u9--TeOG-22" value="&lt;font style=&quot;font-size: 8px;&quot;&gt;Features&lt;/font&gt;" style="text;html=1;align=center;verticalAlign=middle;resizable=0;points=[];autosize=1;strokeColor=none;fillColor=none;" parent="1" vertex="1">
          <mxGeometry x="360" y="394" width="60" height="30" as="geometry" />
        </mxCell>
        <mxCell id="juhcVKc-gh98u9--TeOG-23" value="" style="sketch=0;aspect=fixed;pointerEvents=1;shadow=0;dashed=0;html=1;strokeColor=none;labelPosition=center;verticalLabelPosition=bottom;verticalAlign=top;align=center;fillColor=#00188D;shape=mxgraph.mscae.general.video" parent="1" vertex="1">
          <mxGeometry x="112.75" y="121.25" width="34.79" height="35.5" as="geometry" />
        </mxCell>
        <mxCell id="juhcVKc-gh98u9--TeOG-24" value="&lt;p style=&quot;line-height: 90%; font-size: 8px;&quot;&gt;Input video file&lt;/p&gt;" style="text;html=1;align=center;verticalAlign=middle;whiteSpace=wrap;rounded=0;" parent="1" vertex="1">
          <mxGeometry x="72.5" y="74.5" width="95" height="30" as="geometry" />
        </mxCell>
        <mxCell id="juhcVKc-gh98u9--TeOG-25" value="Step 1: Time series generation" style="text;html=1;align=center;verticalAlign=middle;whiteSpace=wrap;rounded=0;" parent="1" vertex="1">
          <mxGeometry x="20" y="20" width="200" height="30" as="geometry" />
        </mxCell>
        <mxCell id="juhcVKc-gh98u9--TeOG-26" value="Step 2: Time series classification" style="text;html=1;align=center;verticalAlign=middle;whiteSpace=wrap;rounded=0;" parent="1" vertex="1">
          <mxGeometry x="25" y="220" width="200" height="30" as="geometry" />
        </mxCell>
        <mxCell id="S2lPCbAoQJ0k8r7t1wLW-1" value="&lt;div style=&quot;&quot;&gt;&lt;span style=&quot;color: rgb(255, 38, 38);&quot;&gt;num_peaks&lt;/span&gt;&lt;br&gt;&lt;/div&gt;" style="shape=cube;whiteSpace=wrap;html=1;boundedLbl=1;backgroundOutline=1;darkOpacity=0.05;darkOpacity2=0.1;size=10;align=center;" vertex="1" parent="1">
          <mxGeometry x="320" y="260" width="140" height="30" as="geometry" />
        </mxCell>
        <mxCell id="S2lPCbAoQJ0k8r7t1wLW-7" value="" style="endArrow=classic;html=1;rounded=0;" edge="1" parent="1">
          <mxGeometry width="50" height="50" relative="1" as="geometry">
            <mxPoint x="290" y="326" as="sourcePoint" />
            <mxPoint x="310" y="320" as="targetPoint" />
          </mxGeometry>
        </mxCell>
        <mxCell id="S2lPCbAoQJ0k8r7t1wLW-8" value="" style="endArrow=classic;html=1;rounded=0;" edge="1" parent="1">
          <mxGeometry width="50" height="50" relative="1" as="geometry">
            <mxPoint x="290" y="350" as="sourcePoint" />
            <mxPoint x="310" y="360" as="targetPoint" />
          </mxGeometry>
        </mxCell>
        <mxCell id="S2lPCbAoQJ0k8r7t1wLW-9" value="" style="endArrow=classic;html=1;rounded=0;" edge="1" parent="1">
          <mxGeometry width="50" height="50" relative="1" as="geometry">
            <mxPoint x="470" y="320" as="sourcePoint" />
            <mxPoint x="490" y="330" as="targetPoint" />
          </mxGeometry>
        </mxCell>
        <mxCell id="S2lPCbAoQJ0k8r7t1wLW-11" value="" style="endArrow=classic;html=1;rounded=0;entryX=0;entryY=0;entryDx=0;entryDy=10;entryPerimeter=0;" edge="1" parent="1">
          <mxGeometry width="50" height="50" relative="1" as="geometry">
            <mxPoint x="470" y="360" as="sourcePoint" />
            <mxPoint x="490" y="350" as="targetPoint" />
          </mxGeometry>
        </mxCell>
      </root>
    </mxGraphModel>
  </diagram>
</mxfile>
